M48
; DRILL file {KiCad (7.0.0)} date Thu Jan  4 19:15:57 2024
; FORMAT={-:-/ absolute / inch / decimal}
; #@! TF.CreationDate,2024-01-04T19:15:57+01:00
; #@! TF.GenerationSoftware,Kicad,Pcbnew,(7.0.0)
; #@! TF.FileFunction,NonPlated,1,2,NPTH
FMAT,2
INCH
; #@! TA.AperFunction,NonPlated,NPTH,ComponentDrill
T1C0.0689
; #@! TA.AperFunction,NonPlated,NPTH,ComponentDrill
T2C0.1200
; #@! TA.AperFunction,NonPlated,NPTH,ComponentDrill
T3C0.1570
%
G90
G05
T1
X0.4562Y-3.25
X0.6437Y-1.75
X0.8312Y-2.5
X0.8562Y-3.25
X1.0437Y-1.75
X1.2063Y-1.0
X1.2063Y-3.25
X1.2312Y-2.5
X1.3938Y-1.75
X1.3938Y-4.0
X1.6062Y-1.0
X1.6062Y-3.25
X1.7688Y-2.5
X1.7937Y-1.75
X1.7937Y-4.0
X1.9563Y-3.25
X2.1437Y-1.75
X2.1687Y-2.5
X2.3312Y-1.0
X2.3312Y-4.0
X2.3312Y-4.75
X2.3562Y-3.25
X2.5187Y-2.5
X2.5187Y-4.75
X2.5437Y-1.75
X2.7062Y-3.25
X2.7312Y-1.0
X2.7312Y-4.0
X2.7312Y-4.75
X2.8937Y-1.75
X2.9187Y-2.5
X2.9187Y-4.75
X3.0812Y-4.0
X3.0812Y-4.75
X3.1062Y-3.25
X3.2687Y-2.5
X3.2937Y-1.75
X3.4562Y-1.0
X3.4562Y-3.25
X3.4812Y-4.0
X3.4812Y-4.75
X3.55Y-4.75
X3.6437Y-1.75
X3.6687Y-2.5
X3.8312Y-4.0
X3.8562Y-1.0
X3.8562Y-3.25
X3.925Y-4.75
X3.95Y-4.75
X4.0187Y-2.5
X4.0438Y-1.75
X4.2062Y-3.25
X4.2062Y-4.75
X4.2313Y-4.0
X4.325Y-4.75
X4.3937Y-1.75
X4.4188Y-2.5
X4.5812Y-1.0
X4.5812Y-4.0
X4.5812Y-4.75
X4.6063Y-3.25
X4.6063Y-4.75
X4.675Y-4.75
X4.7687Y-2.5
X4.7938Y-1.75
X4.9562Y-3.25
X4.9813Y-1.0
X4.9813Y-4.0
X4.9813Y-4.75
X5.05Y-4.75
X5.075Y-4.75
X5.1437Y-1.75
X5.1688Y-2.5
X5.3312Y-4.0
X5.3563Y-3.25
X5.45Y-4.75
X5.5187Y-2.5
X5.5438Y-1.75
X5.7062Y-3.25
X5.7062Y-4.75
X5.7313Y-4.0
X5.8937Y-1.75
X5.9188Y-2.5
X6.0812Y-4.0
X6.1063Y-3.25
X6.1063Y-4.75
X6.2687Y-2.5
X6.2938Y-1.75
X6.3625Y-4.75
X6.4562Y-3.25
X6.4813Y-4.0
X6.6437Y-1.75
X6.6688Y-2.5
X6.7375Y-4.75
X6.7625Y-4.75
X6.8312Y-4.0
X6.8312Y-4.75
X6.8563Y-3.25
X7.0187Y-2.5
X7.0438Y-1.75
X7.1375Y-4.75
X7.2062Y-3.25
X7.2062Y-4.75
X7.2313Y-4.0
X7.2313Y-4.75
X7.3937Y-1.0
X7.3937Y-1.75
X7.4188Y-2.5
X7.4875Y-4.75
X7.5812Y-4.0
X7.6063Y-3.25
X7.6063Y-4.75
X7.7687Y-2.5
X7.7938Y-1.0
X7.7938Y-1.75
X7.8625Y-4.75
X7.8875Y-4.75
X7.9562Y-3.25
X7.9813Y-4.0
X8.1437Y-1.75
X8.1687Y-2.5
X8.2625Y-4.75
X8.3312Y-4.0
X8.3312Y-4.75
X8.3562Y-3.25
X8.5187Y-1.0
X8.5187Y-2.5
X8.5437Y-1.75
X8.7062Y-3.25
X8.7312Y-4.0
X8.7312Y-4.75
X8.8937Y-1.75
X8.8937Y-4.75
X8.9187Y-1.0
X8.9187Y-2.5
X9.0812Y-4.0
X9.0812Y-4.75
X9.1062Y-3.25
X9.2687Y-2.5
X9.2937Y-1.75
X9.2937Y-4.75
X9.4562Y-3.25
X9.4812Y-4.0
X9.4812Y-4.75
X9.6437Y-1.0
X9.6437Y-1.75
X9.6687Y-2.5
X9.8562Y-3.25
X10.0187Y-2.5
X10.0187Y-4.0
X10.0437Y-1.0
X10.0437Y-1.75
X10.3937Y-1.75
X10.4187Y-2.5
X10.4187Y-4.0
X10.5812Y-3.25
X10.7687Y-1.0
X10.7687Y-2.5
X10.7937Y-1.75
X10.9562Y-4.0
X10.9812Y-3.25
X11.1437Y-1.75
X11.1687Y-1.0
X11.1687Y-2.5
X11.3562Y-4.0
X11.5187Y-2.5
X11.5437Y-1.75
X11.9187Y-2.5
T2
X3.2812Y-5.025
X3.6562Y-5.025
X3.6562Y-5.025
X4.0312Y-5.025
X4.0312Y-5.025
X5.1562Y-5.025
X5.5312Y-5.025
X6.2812Y-5.025
X6.6562Y-5.025
X7.7812Y-5.025
X7.7812Y-5.025
X8.1562Y-5.025
X8.1562Y-5.025
X8.5312Y-5.025
X10.3125Y-2.975
X11.25Y-2.975
T3
X0.6562Y-3.25
X0.8438Y-1.75
X1.0312Y-2.5
X1.4062Y-1.0
X1.4062Y-3.25
X1.5938Y-1.75
X1.5938Y-4.0
X1.9688Y-2.5
X2.1562Y-3.25
X2.3438Y-1.75
X2.5312Y-1.0
X2.5312Y-4.0
X2.5312Y-4.75
X2.7188Y-2.5
X2.7188Y-4.75
X2.9062Y-3.25
X3.0938Y-1.75
X3.2812Y-4.0
X3.2812Y-4.425
X3.2812Y-4.75
X3.4688Y-2.5
X3.6562Y-1.0
X3.6562Y-3.25
X3.6562Y-4.425
X3.6562Y-4.425
X3.75Y-4.75
X3.8438Y-1.75
X4.0312Y-4.0
X4.0312Y-4.425
X4.0312Y-4.425
X4.125Y-4.75
X4.2188Y-2.5
X4.4062Y-3.25
X4.4062Y-4.75
X4.5938Y-1.75
X4.7812Y-1.0
X4.7812Y-4.0
X4.7812Y-4.75
X4.875Y-4.75
X4.9688Y-2.5
X5.1562Y-3.25
X5.1562Y-4.425
X5.25Y-4.75
X5.3438Y-1.75
X5.5312Y-4.0
X5.5312Y-4.425
X5.7188Y-2.5
X5.9062Y-3.25
X5.9062Y-4.75
X6.0938Y-1.75
X6.2812Y-4.0
X6.2812Y-4.425
X6.4688Y-2.5
X6.5625Y-4.75
X6.6562Y-3.25
X6.6562Y-4.425
X6.8438Y-1.75
X6.9375Y-4.75
X7.0312Y-4.0
X7.0312Y-4.75
X7.2188Y-2.5
X7.4062Y-3.25
X7.4062Y-4.75
X7.5938Y-1.0
X7.5938Y-1.75
X7.6875Y-4.75
X7.7812Y-4.0
X7.7812Y-4.425
X7.7812Y-4.425
X7.9688Y-2.5
X8.0625Y-4.75
X8.1562Y-3.25
X8.1562Y-4.425
X8.1562Y-4.425
X8.3438Y-1.75
X8.5312Y-4.0
X8.5312Y-4.425
X8.5312Y-4.75
X8.7188Y-1.0
X8.7188Y-2.5
X8.9062Y-3.25
X9.0938Y-1.75
X9.0938Y-4.75
X9.2812Y-4.0
X9.2812Y-4.75
X9.4688Y-2.5
X9.6562Y-3.25
X9.8438Y-1.0
X9.8438Y-1.75
X10.2188Y-2.5
X10.2188Y-4.0
X10.3125Y-3.575
X10.5938Y-1.75
X10.7812Y-3.25
X10.9688Y-1.0
X10.9688Y-2.5
X11.1562Y-4.0
X11.25Y-3.575
X11.3438Y-1.75
X11.7188Y-2.5
T0
M30
