M48
; DRILL file {KiCad (7.0.0)} date Thu Jan  4 19:15:57 2024
; FORMAT={-:-/ absolute / inch / decimal}
; #@! TF.CreationDate,2024-01-04T19:15:57+01:00
; #@! TF.GenerationSoftware,Kicad,Pcbnew,(7.0.0)
; #@! TF.FileFunction,Plated,1,2,PTH
FMAT,2
INCH
; #@! TA.AperFunction,Plated,PTH,ViaDrill
T1C0.0157
; #@! TA.AperFunction,Plated,PTH,ComponentDrill
T2C0.0394
; #@! TA.AperFunction,Plated,PTH,ComponentDrill
T3C0.0591
; #@! TA.AperFunction,Plated,PTH,ComponentDrill
T4C0.0600
%
G90
G05
T1
X0.6048Y-4.3874
X0.698Y-4.3122
X0.7318Y-4.4254
X0.7318Y-4.875
X0.734Y-4.8008
X0.787Y-4.5727
X0.7943Y-4.875
X0.9688Y-4.625
X1.0755Y-4.4062
X1.1068Y-4.5625
X1.1768Y-4.7611
X1.1881Y-4.5223
X1.2943Y-4.75
X3.3129Y-1.9875
X3.3129Y-2.1922
T2
X1.3078Y-0.7244
X1.3078Y-1.2953
X1.4062Y-1.2953
X1.5047Y-0.7244
X1.5047Y-1.2953
X5.8078Y-4.4744
X5.8078Y-5.0453
X5.9062Y-5.0453
X6.0047Y-4.4744
X6.0047Y-5.0453
X10.8703Y-0.7244
X10.8703Y-1.2953
X10.9688Y-1.2953
X11.0578Y-3.7244
X11.0578Y-4.2953
X11.0672Y-0.7244
X11.0672Y-1.2953
X11.1562Y-4.2953
X11.2547Y-3.7244
X11.2547Y-4.2953
T4
X0.5062Y-3.15
X0.5578Y-3.0925
X0.6937Y-1.65
X0.7453Y-1.5925
X0.7547Y-3.0728
X0.7562Y-3.05
X0.8812Y-2.4
X0.9328Y-2.3425
X0.9422Y-1.5728
X0.9437Y-1.55
X1.1297Y-2.3228
X1.1312Y-2.3
X1.2562Y-0.9
X1.2562Y-3.15
X1.3078Y-0.8425
X1.3078Y-3.0925
X1.4437Y-1.65
X1.4437Y-3.9
X1.4953Y-1.5925
X1.4953Y-3.8425
X1.5047Y-0.8228
X1.5047Y-3.0728
X1.5062Y-0.8
X1.5062Y-3.05
X1.6922Y-1.5728
X1.6922Y-3.8228
X1.6937Y-1.55
X1.6937Y-3.8
X1.8187Y-2.4
X1.8703Y-2.3425
X2.0063Y-3.15
X2.0578Y-3.0925
X2.0672Y-2.3228
X2.0688Y-2.3
X2.1938Y-1.65
X2.2453Y-1.5925
X2.2547Y-3.0728
X2.2563Y-3.05
X2.3813Y-0.9
X2.3813Y-3.9
X2.3813Y-4.65
X2.4328Y-0.8425
X2.4328Y-3.8425
X2.4328Y-4.5925
X2.4422Y-1.5728
X2.4438Y-1.55
X2.5688Y-2.4
X2.5688Y-4.65
X2.6203Y-2.3425
X2.6203Y-4.5925
X2.6297Y-0.8228
X2.6297Y-3.8228
X2.6297Y-4.5728
X2.6313Y-0.8
X2.6313Y-3.8
X2.6313Y-4.55
X2.7563Y-3.15
X2.8078Y-3.0925
X2.8172Y-2.3228
X2.8172Y-4.5728
X2.8188Y-2.3
X2.8188Y-4.55
X2.9438Y-1.65
X2.9953Y-1.5925
X3.0047Y-3.0728
X3.0063Y-3.05
X3.1313Y-3.9
X3.1313Y-4.65
X3.1828Y-3.8425
X3.1828Y-4.5925
X3.1922Y-1.5728
X3.1938Y-1.55
X3.3188Y-2.4
X3.3703Y-2.3425
X3.3797Y-3.8228
X3.3797Y-4.5728
X3.3813Y-3.8
X3.3813Y-4.55
X3.5063Y-0.9
X3.5063Y-3.15
X3.5578Y-0.8425
X3.5578Y-3.0925
X3.5672Y-2.3228
X3.5688Y-2.3
X3.6Y-4.65
X3.6516Y-4.5925
X3.6938Y-1.65
X3.7453Y-1.5925
X3.7547Y-0.8228
X3.7547Y-3.0728
X3.7563Y-0.8
X3.7563Y-3.05
X3.8484Y-4.5728
X3.85Y-4.55
X3.8813Y-3.9
X3.9328Y-3.8425
X3.9422Y-1.5728
X3.9438Y-1.55
X3.975Y-4.65
X4.0266Y-4.5925
X4.0687Y-2.4
X4.1203Y-2.3425
X4.1297Y-3.8228
X4.1312Y-3.8
X4.2234Y-4.5728
X4.225Y-4.55
X4.2562Y-3.15
X4.2562Y-4.65
X4.3078Y-3.0925
X4.3078Y-4.5925
X4.3172Y-2.3228
X4.3187Y-2.3
X4.4437Y-1.65
X4.4953Y-1.5925
X4.5047Y-3.0728
X4.5047Y-4.5728
X4.5062Y-3.05
X4.5062Y-4.55
X4.6312Y-0.9
X4.6312Y-3.9
X4.6312Y-4.65
X4.6828Y-0.8425
X4.6828Y-3.8425
X4.6828Y-4.5925
X4.6922Y-1.5728
X4.6937Y-1.55
X4.725Y-4.65
X4.7766Y-4.5925
X4.8187Y-2.4
X4.8703Y-2.3425
X4.8797Y-0.8228
X4.8797Y-3.8228
X4.8797Y-4.5728
X4.8812Y-0.8
X4.8812Y-3.8
X4.8812Y-4.55
X4.9734Y-4.5728
X4.975Y-4.55
X5.0062Y-3.15
X5.0578Y-3.0925
X5.0672Y-2.3228
X5.0687Y-2.3
X5.1Y-4.65
X5.1516Y-4.5925
X5.1937Y-1.65
X5.2453Y-1.5925
X5.2547Y-3.0728
X5.2562Y-3.05
X5.3484Y-4.5728
X5.35Y-4.55
X5.3812Y-3.9
X5.4328Y-3.8425
X5.4422Y-1.5728
X5.4437Y-1.55
X5.5687Y-2.4
X5.6203Y-2.3425
X5.6297Y-3.8228
X5.6312Y-3.8
X5.7562Y-3.15
X5.7562Y-4.65
X5.8078Y-3.0925
X5.8078Y-4.5925
X5.8172Y-2.3228
X5.8187Y-2.3
X5.9437Y-1.65
X5.9953Y-1.5925
X6.0047Y-3.0728
X6.0047Y-4.5728
X6.0062Y-3.05
X6.0062Y-4.55
X6.1312Y-3.9
X6.1828Y-3.8425
X6.1922Y-1.5728
X6.1937Y-1.55
X6.3187Y-2.4
X6.3703Y-2.3425
X6.3797Y-3.8228
X6.3812Y-3.8
X6.4125Y-4.65
X6.4641Y-4.5925
X6.5062Y-3.15
X6.5578Y-3.0925
X6.5672Y-2.3228
X6.5687Y-2.3
X6.6609Y-4.5728
X6.6625Y-4.55
X6.6937Y-1.65
X6.7453Y-1.5925
X6.7547Y-3.0728
X6.7562Y-3.05
X6.7875Y-4.65
X6.8391Y-4.5925
X6.8812Y-3.9
X6.8812Y-4.65
X6.9328Y-3.8425
X6.9328Y-4.5925
X6.9422Y-1.5728
X6.9437Y-1.55
X7.0359Y-4.5728
X7.0375Y-4.55
X7.0687Y-2.4
X7.1203Y-2.3425
X7.1297Y-3.8228
X7.1297Y-4.5728
X7.1312Y-3.8
X7.1312Y-4.55
X7.2562Y-3.15
X7.2562Y-4.65
X7.3078Y-3.0925
X7.3078Y-4.5925
X7.3172Y-2.3228
X7.3187Y-2.3
X7.4437Y-0.9
X7.4437Y-1.65
X7.4953Y-0.8425
X7.4953Y-1.5925
X7.5047Y-3.0728
X7.5047Y-4.5728
X7.5062Y-3.05
X7.5062Y-4.55
X7.5375Y-4.65
X7.5891Y-4.5925
X7.6312Y-3.9
X7.6828Y-3.8425
X7.6922Y-0.8228
X7.6922Y-1.5728
X7.6937Y-0.8
X7.6937Y-1.55
X7.7859Y-4.5728
X7.7875Y-4.55
X7.8187Y-2.4
X7.8703Y-2.3425
X7.8797Y-3.8228
X7.8812Y-3.8
X7.9125Y-4.65
X7.9641Y-4.5925
X8.0062Y-3.15
X8.0578Y-3.0925
X8.0672Y-2.3228
X8.0687Y-2.3
X8.1609Y-4.5728
X8.1625Y-4.55
X8.1937Y-1.65
X8.2453Y-1.5925
X8.2547Y-3.0728
X8.2562Y-3.05
X8.3812Y-3.9
X8.3812Y-4.65
X8.4328Y-3.8425
X8.4328Y-4.5925
X8.4422Y-1.5728
X8.4437Y-1.55
X8.5687Y-0.9
X8.5687Y-2.4
X8.6203Y-0.8425
X8.6203Y-2.3425
X8.6297Y-3.8228
X8.6297Y-4.5728
X8.6312Y-3.8
X8.6312Y-4.55
X8.7562Y-3.15
X8.8078Y-3.0925
X8.8172Y-0.8228
X8.8172Y-2.3228
X8.8187Y-0.8
X8.8187Y-2.3
X8.9437Y-1.65
X8.9437Y-4.65
X8.9953Y-1.5925
X8.9953Y-4.5925
X9.0047Y-3.0728
X9.0062Y-3.05
X9.1312Y-3.9
X9.1312Y-4.65
X9.1828Y-3.8425
X9.1828Y-4.5925
X9.1922Y-1.5728
X9.1922Y-4.5728
X9.1937Y-1.55
X9.1937Y-4.55
X9.3187Y-2.4
X9.3703Y-2.3425
X9.3797Y-3.8228
X9.3797Y-4.5728
X9.3812Y-3.8
X9.3812Y-4.55
X9.5062Y-3.15
X9.5578Y-3.0925
X9.5672Y-2.3228
X9.5687Y-2.3
X9.6937Y-0.9
X9.6937Y-1.65
X9.7453Y-0.8425
X9.7453Y-1.5925
X9.7547Y-3.0728
X9.7562Y-3.05
X9.9422Y-0.8228
X9.9422Y-1.5728
X9.9437Y-0.8
X9.9437Y-1.55
X10.0687Y-2.4
X10.0687Y-3.9
X10.1203Y-2.3425
X10.1203Y-3.8425
X10.3172Y-2.3228
X10.3172Y-3.8228
X10.3187Y-2.3
X10.3187Y-3.8
X10.4437Y-1.65
X10.4953Y-1.5925
X10.6312Y-3.15
X10.6828Y-3.0925
X10.6922Y-1.5728
X10.6937Y-1.55
X10.8187Y-0.9
X10.8187Y-2.4
X10.8703Y-0.8425
X10.8703Y-2.3425
X10.8797Y-3.0728
X10.8812Y-3.05
X11.0062Y-3.9
X11.0578Y-3.8425
X11.0672Y-0.8228
X11.0672Y-2.3228
X11.0687Y-0.8
X11.0687Y-2.3
X11.1937Y-1.65
X11.2453Y-1.5925
X11.2547Y-3.8228
X11.2562Y-3.8
X11.4422Y-1.5728
X11.4437Y-1.55
X11.5687Y-2.4
X11.6203Y-2.3425
X11.8172Y-2.3228
X11.8187Y-2.3
T3
G00X1.1858Y-1.0256
M15
G01X1.1858Y-0.9744
M16
G05
G00X1.6267Y-1.0256
M15
G01X1.6267Y-0.9744
M16
G05
G00X5.6858Y-4.7756
M15
G01X5.6858Y-4.7244
M16
G05
G00X6.1267Y-4.7756
M15
G01X6.1267Y-4.7244
M16
G05
G00X10.7483Y-1.0256
M15
G01X10.7483Y-0.9744
M16
G05
G00X10.9358Y-4.0256
M15
G01X10.9358Y-3.9744
M16
G05
G00X11.1892Y-1.0256
M15
G01X11.1892Y-0.9744
M16
G05
G00X11.3767Y-4.0256
M15
G01X11.3767Y-3.9744
M16
G05
T0
M30
