%TF.GenerationSoftware,KiCad,Pcbnew,(7.0.0)*%
%TF.CreationDate,2024-01-04T19:42:07+01:00*%
%TF.ProjectId,HP2621,48503236-3231-42e6-9b69-6361645f7063,rev?*%
%TF.SameCoordinates,Original*%
%TF.FileFunction,Copper,L2,Bot*%
%TF.FilePolarity,Positive*%
%FSLAX46Y46*%
G04 Gerber Fmt 4.6, Leading zero omitted, Abs format (unit mm)*
G04 Created by KiCad (PCBNEW (7.0.0)) date 2024-01-04 19:42:07*
%MOMM*%
%LPD*%
G01*
G04 APERTURE LIST*
G04 Aperture macros list*
%AMRoundRect*
0 Rectangle with rounded corners*
0 $1 Rounding radius*
0 $2 $3 $4 $5 $6 $7 $8 $9 X,Y pos of 4 corners*
0 Add a 4 corners polygon primitive as box body*
4,1,4,$2,$3,$4,$5,$6,$7,$8,$9,$2,$3,0*
0 Add four circle primitives for the rounded corners*
1,1,$1+$1,$2,$3*
1,1,$1+$1,$4,$5*
1,1,$1+$1,$6,$7*
1,1,$1+$1,$8,$9*
0 Add four rect primitives between the rounded corners*
20,1,$1+$1,$2,$3,$4,$5,0*
20,1,$1+$1,$4,$5,$6,$7,0*
20,1,$1+$1,$6,$7,$8,$9,0*
20,1,$1+$1,$8,$9,$2,$3,0*%
%AMHorizOval*
0 Thick line with rounded ends*
0 $1 width*
0 $2 $3 position (X,Y) of the first rounded end (center of the circle)*
0 $4 $5 position (X,Y) of the second rounded end (center of the circle)*
0 Add line between two ends*
20,1,$1,$2,$3,$4,$5,0*
0 Add two circle primitives to create the rounded ends*
1,1,$1,$2,$3*
1,1,$1,$4,$5*%
G04 Aperture macros list end*
%TA.AperFunction,ComponentPad*%
%ADD10C,2.300000*%
%TD*%
%TA.AperFunction,ComponentPad*%
%ADD11HorizOval,2.300000X-0.655144X-0.730170X0.655144X0.730170X0*%
%TD*%
%TA.AperFunction,ComponentPad*%
%ADD12HorizOval,2.300000X0.019758X0.289827X-0.019758X-0.289827X0*%
%TD*%
%TA.AperFunction,ComponentPad*%
%ADD13C,2.000000*%
%TD*%
%TA.AperFunction,ComponentPad*%
%ADD14RoundRect,0.500000X0.500000X-0.500000X0.500000X0.500000X-0.500000X0.500000X-0.500000X-0.500000X0*%
%TD*%
%TA.AperFunction,ComponentPad*%
%ADD15RoundRect,0.550000X0.550000X-1.150000X0.550000X1.150000X-0.550000X1.150000X-0.550000X-1.150000X0*%
%TD*%
%TA.AperFunction,SMDPad,CuDef*%
%ADD16RoundRect,0.150000X-0.625000X0.150000X-0.625000X-0.150000X0.625000X-0.150000X0.625000X0.150000X0*%
%TD*%
%TA.AperFunction,SMDPad,CuDef*%
%ADD17RoundRect,0.250000X-0.650000X0.350000X-0.650000X-0.350000X0.650000X-0.350000X0.650000X0.350000X0*%
%TD*%
%TA.AperFunction,SMDPad,CuDef*%
%ADD18RoundRect,0.250000X0.300000X-0.300000X0.300000X0.300000X-0.300000X0.300000X-0.300000X-0.300000X0*%
%TD*%
%TA.AperFunction,SMDPad,CuDef*%
%ADD19RoundRect,0.075000X0.662500X0.075000X-0.662500X0.075000X-0.662500X-0.075000X0.662500X-0.075000X0*%
%TD*%
%TA.AperFunction,SMDPad,CuDef*%
%ADD20RoundRect,0.075000X0.075000X0.662500X-0.075000X0.662500X-0.075000X-0.662500X0.075000X-0.662500X0*%
%TD*%
%TA.AperFunction,SMDPad,CuDef*%
%ADD21RoundRect,0.140000X0.170000X-0.140000X0.170000X0.140000X-0.170000X0.140000X-0.170000X-0.140000X0*%
%TD*%
%TA.AperFunction,SMDPad,CuDef*%
%ADD22RoundRect,0.140000X-0.140000X-0.170000X0.140000X-0.170000X0.140000X0.170000X-0.140000X0.170000X0*%
%TD*%
%TA.AperFunction,SMDPad,CuDef*%
%ADD23RoundRect,0.250000X-0.300000X0.300000X-0.300000X-0.300000X0.300000X-0.300000X0.300000X0.300000X0*%
%TD*%
%TA.AperFunction,SMDPad,CuDef*%
%ADD24RoundRect,0.140000X0.140000X0.170000X-0.140000X0.170000X-0.140000X-0.170000X0.140000X-0.170000X0*%
%TD*%
%TA.AperFunction,SMDPad,CuDef*%
%ADD25RoundRect,0.140000X-0.170000X0.140000X-0.170000X-0.140000X0.170000X-0.140000X0.170000X0.140000X0*%
%TD*%
%TA.AperFunction,SMDPad,CuDef*%
%ADD26RoundRect,0.275000X0.275000X-0.625000X0.275000X0.625000X-0.275000X0.625000X-0.275000X-0.625000X0*%
%TD*%
%TA.AperFunction,SMDPad,CuDef*%
%ADD27RoundRect,0.150000X-0.587500X-0.150000X0.587500X-0.150000X0.587500X0.150000X-0.587500X0.150000X0*%
%TD*%
%TA.AperFunction,SMDPad,CuDef*%
%ADD28RoundRect,0.225000X0.250000X-0.225000X0.250000X0.225000X-0.250000X0.225000X-0.250000X-0.225000X0*%
%TD*%
%TA.AperFunction,SMDPad,CuDef*%
%ADD29RoundRect,0.150000X-0.275000X0.150000X-0.275000X-0.150000X0.275000X-0.150000X0.275000X0.150000X0*%
%TD*%
%TA.AperFunction,SMDPad,CuDef*%
%ADD30RoundRect,0.175000X-0.225000X0.175000X-0.225000X-0.175000X0.225000X-0.175000X0.225000X0.175000X0*%
%TD*%
%TA.AperFunction,SMDPad,CuDef*%
%ADD31RoundRect,0.135000X-0.135000X-0.185000X0.135000X-0.185000X0.135000X0.185000X-0.135000X0.185000X0*%
%TD*%
%TA.AperFunction,ViaPad*%
%ADD32C,0.800000*%
%TD*%
%TA.AperFunction,Conductor*%
%ADD33C,0.250000*%
%TD*%
%TA.AperFunction,Conductor*%
%ADD34C,0.200000*%
%TD*%
%TA.AperFunction,Conductor*%
%ADD35C,0.381000*%
%TD*%
G04 APERTURE END LIST*
D10*
%TO.P,MX66,1,1*%
%TO.N,COL2*%
X60483750Y-118110000D03*
D11*
X61138605Y-117380169D03*
D12*
%TO.P,MX66,2,2*%
%TO.N,Net-(D66-A)*%
X66813507Y-115860172D03*
D10*
X66833750Y-115570000D03*
%TD*%
%TO.P,MX6,1,1*%
%TO.N,COL10*%
X217646250Y-22860000D03*
D11*
X218301105Y-22130169D03*
D12*
%TO.P,MX6,2,2*%
%TO.N,Net-(D6-A)*%
X223976007Y-20610172D03*
D10*
X223996250Y-20320000D03*
%TD*%
%TO.P,MX35,1,1*%
%TO.N,COL11*%
X236696250Y-60960000D03*
D11*
X237351105Y-60230169D03*
D12*
%TO.P,MX35,2,2*%
%TO.N,Net-(D35-A)*%
X243026007Y-58710172D03*
D10*
X243046250Y-58420000D03*
%TD*%
%TO.P,MX19,1,1*%
%TO.N,COL10*%
X208121250Y-41910000D03*
D11*
X208776105Y-41180169D03*
D12*
%TO.P,MX19,2,2*%
%TO.N,Net-(D19-A)*%
X214451007Y-39660172D03*
D10*
X214471250Y-39370000D03*
%TD*%
%TO.P,MX81,1,1*%
%TO.N,COL5*%
X117633750Y-118110000D03*
D11*
X118288605Y-117380169D03*
D12*
%TO.P,MX81,2,2*%
%TO.N,Net-(D69-A)*%
X123963507Y-115860172D03*
D10*
X123983750Y-115570000D03*
%TD*%
%TO.P,MX47,1,1*%
%TO.N,COL8*%
X165258750Y-80010000D03*
D11*
X165913605Y-79280169D03*
D12*
%TO.P,MX47,2,2*%
%TO.N,Net-(D47-A)*%
X171588507Y-77760172D03*
D10*
X171608750Y-77470000D03*
%TD*%
%TO.P,MX37,1,1*%
%TO.N,COL13*%
X274796250Y-60960000D03*
D11*
X275451105Y-60230169D03*
D12*
%TO.P,MX37,2,2*%
%TO.N,Net-(D37-A)*%
X281126007Y-58710172D03*
D10*
X281146250Y-58420000D03*
%TD*%
%TO.P,MX73,1,1*%
%TO.N,COL10*%
X212883750Y-118110000D03*
D11*
X213538605Y-117380169D03*
D12*
%TO.P,MX73,2,2*%
%TO.N,Net-(D73-A)*%
X219213507Y-115860172D03*
D10*
X219233750Y-115570000D03*
%TD*%
%TO.P,MX5,1,1*%
%TO.N,COL9*%
X189071250Y-22860000D03*
D11*
X189726105Y-22130169D03*
D12*
%TO.P,MX5,2,2*%
%TO.N,Net-(D5-A)*%
X195401007Y-20610172D03*
D10*
X195421250Y-20320000D03*
%TD*%
%TO.P,MX28,1,1*%
%TO.N,COL4*%
X103346250Y-60960000D03*
D11*
X104001105Y-60230169D03*
D12*
%TO.P,MX28,2,2*%
%TO.N,Net-(D28-A)*%
X109676007Y-58710172D03*
D10*
X109696250Y-58420000D03*
%TD*%
%TO.P,MX75,1,1*%
%TO.N,Net-(D66-A)*%
X65246250Y-118110000D03*
D11*
X65901105Y-117380169D03*
D12*
%TO.P,MX75,2,2*%
%TO.N,COL2*%
X71576007Y-115860172D03*
D10*
X71596250Y-115570000D03*
%TD*%
%TO.P,MX33,1,1*%
%TO.N,COL9*%
X198596250Y-60960000D03*
D11*
X199251105Y-60230169D03*
D12*
%TO.P,MX33,2,2*%
%TO.N,Net-(D33-A)*%
X204926007Y-58710172D03*
D10*
X204946250Y-58420000D03*
%TD*%
%TO.P,MX49,1,1*%
%TO.N,COL10*%
X203358750Y-80010000D03*
D11*
X204013605Y-79280169D03*
D12*
%TO.P,MX49,2,2*%
%TO.N,Net-(D49-A)*%
X209688507Y-77760172D03*
D10*
X209708750Y-77470000D03*
%TD*%
%TO.P,MX34,1,1*%
%TO.N,COL10*%
X217646250Y-60960000D03*
D11*
X218301105Y-60230169D03*
D12*
%TO.P,MX34,2,2*%
%TO.N,Net-(D34-A)*%
X223976007Y-58710172D03*
D10*
X223996250Y-58420000D03*
%TD*%
%TO.P,MX65,1,1*%
%TO.N,COL13*%
X279558750Y-99060000D03*
D11*
X280213605Y-98330169D03*
D12*
%TO.P,MX65,2,2*%
%TO.N,row_3*%
X285888507Y-96810172D03*
D10*
X285908750Y-96520000D03*
%TD*%
%TO.P,MX50,1,1*%
%TO.N,COL11*%
X222408750Y-80010000D03*
D11*
X223063605Y-79280169D03*
D12*
%TO.P,MX50,2,2*%
%TO.N,Net-(D50-A)*%
X228738507Y-77760172D03*
D10*
X228758750Y-77470000D03*
%TD*%
%TO.P,MX56,1,1*%
%TO.N,COL4*%
X98583750Y-99060000D03*
D11*
X99238605Y-98330169D03*
D12*
%TO.P,MX56,2,2*%
%TO.N,Net-(D56-A)*%
X104913507Y-96810172D03*
D10*
X104933750Y-96520000D03*
%TD*%
%TO.P,MX38,1,1*%
%TO.N,COL14*%
X293846250Y-60960000D03*
D11*
X294501105Y-60230169D03*
D12*
%TO.P,MX38,2,2*%
%TO.N,Net-(D38-A)*%
X300176007Y-58710172D03*
D10*
X300196250Y-58420000D03*
%TD*%
%TO.P,MX4,1,1*%
%TO.N,COL5*%
X117633750Y-22860000D03*
D11*
X118288605Y-22130169D03*
D12*
%TO.P,MX4,2,2*%
%TO.N,Net-(D4-A)*%
X123963507Y-20610172D03*
D10*
X123983750Y-20320000D03*
%TD*%
%TO.P,MX72,1,1*%
%TO.N,COL9*%
X191452500Y-118110000D03*
D11*
X192107355Y-117380169D03*
D12*
%TO.P,MX72,2,2*%
%TO.N,Net-(D72-A)*%
X197782257Y-115860172D03*
D10*
X197802500Y-115570000D03*
%TD*%
%TO.P,MX63,1,1*%
%TO.N,COL11*%
X231933750Y-99060000D03*
D11*
X232588605Y-98330169D03*
D12*
%TO.P,MX63,2,2*%
%TO.N,Net-(D63-A)*%
X238263507Y-96810172D03*
D10*
X238283750Y-96520000D03*
%TD*%
%TO.P,MX64,1,1*%
%TO.N,COL12*%
X255746250Y-99060000D03*
D11*
X256401105Y-98330169D03*
D12*
%TO.P,MX64,2,2*%
%TO.N,Net-(D64-A)*%
X262076007Y-96810172D03*
D10*
X262096250Y-96520000D03*
%TD*%
%TO.P,MX57,1,1*%
%TO.N,COL5*%
X117633750Y-99060000D03*
D11*
X118288605Y-98330169D03*
D12*
%TO.P,MX57,2,2*%
%TO.N,Net-(D57-A)*%
X123963507Y-96810172D03*
D10*
X123983750Y-96520000D03*
%TD*%
%TO.P,MX44,1,1*%
%TO.N,COL5*%
X108108750Y-80010000D03*
D11*
X108763605Y-79280169D03*
D12*
%TO.P,MX44,2,2*%
%TO.N,Net-(D44-A)*%
X114438507Y-77760172D03*
D10*
X114458750Y-77470000D03*
%TD*%
%TO.P,MX12,1,1*%
%TO.N,COL3*%
X74771250Y-41910000D03*
D11*
X75426105Y-41180169D03*
D12*
%TO.P,MX12,2,2*%
%TO.N,Net-(D12-A)*%
X81101007Y-39660172D03*
D10*
X81121250Y-39370000D03*
%TD*%
%TO.P,MX24,1,1*%
%TO.N,COL0*%
X22383750Y-60960000D03*
D11*
X23038605Y-60230169D03*
D12*
%TO.P,MX24,2,2*%
%TO.N,Net-(D24-A)*%
X28713507Y-58710172D03*
D10*
X28733750Y-58420000D03*
%TD*%
%TO.P,MX62,1,1*%
%TO.N,COL10*%
X212883750Y-99060000D03*
D11*
X213538605Y-98330169D03*
D12*
%TO.P,MX62,2,2*%
%TO.N,Net-(D62-A)*%
X219213507Y-96810172D03*
D10*
X219233750Y-96520000D03*
%TD*%
%TO.P,MX9,1,1*%
%TO.N,COL0*%
X17621250Y-41910000D03*
D11*
X18276105Y-41180169D03*
D12*
%TO.P,MX9,2,2*%
%TO.N,Net-(D9-A)*%
X23951007Y-39660172D03*
D10*
X23971250Y-39370000D03*
%TD*%
%TO.P,MX22,1,1*%
%TO.N,COL13*%
X265271250Y-41910000D03*
D11*
X265926105Y-41180169D03*
D12*
%TO.P,MX22,2,2*%
%TO.N,Net-(D22-A)*%
X271601007Y-39660172D03*
D10*
X271621250Y-39370000D03*
%TD*%
%TO.P,MX26,1,1*%
%TO.N,COL2*%
X65246250Y-60960000D03*
D11*
X65901105Y-60230169D03*
D12*
%TO.P,MX26,2,2*%
%TO.N,Net-(D26-A)*%
X71576007Y-58710172D03*
D10*
X71596250Y-58420000D03*
%TD*%
%TO.P,MX61,1,1*%
%TO.N,COL9*%
X193833750Y-99060000D03*
D11*
X194488605Y-98330169D03*
D12*
%TO.P,MX61,2,2*%
%TO.N,Net-(D61-A)*%
X200163507Y-96810172D03*
D10*
X200183750Y-96520000D03*
%TD*%
%TO.P,MX53,1,1*%
%TO.N,COL1*%
X36671250Y-99060000D03*
D11*
X37326105Y-98330169D03*
D12*
%TO.P,MX53,2,2*%
%TO.N,Net-(D53-A)*%
X43001007Y-96810172D03*
D10*
X43021250Y-96520000D03*
%TD*%
%TO.P,MX16,1,1*%
%TO.N,COL7*%
X150971250Y-41910000D03*
D11*
X151626105Y-41180169D03*
D12*
%TO.P,MX16,2,2*%
%TO.N,Net-(D16-A)*%
X157301007Y-39660172D03*
D10*
X157321250Y-39370000D03*
%TD*%
D13*
%TO.P,SW4,A,A*%
%TO.N,ENC_g*%
X147518750Y-128150000D03*
%TO.P,SW4,B,B*%
%TO.N,ENC_h*%
X152518750Y-128150000D03*
D14*
%TO.P,SW4,C,C*%
%TO.N,GND*%
X150018750Y-128150000D03*
D15*
%TO.P,SW4,MP*%
%TO.N,N/C*%
X144418750Y-120650000D03*
X155618750Y-120650000D03*
D13*
%TO.P,SW4,S1,S1*%
%TO.N,row_4*%
X152518750Y-113650000D03*
%TO.P,SW4,S2,S2*%
%TO.N,COL7*%
X147518750Y-113650000D03*
%TD*%
D10*
%TO.P,MX41,1,1*%
%TO.N,COL2*%
X50958750Y-80010000D03*
D11*
X51613605Y-79280169D03*
D12*
%TO.P,MX41,2,2*%
%TO.N,Net-(D41-A)*%
X57288507Y-77760172D03*
D10*
X57308750Y-77470000D03*
%TD*%
%TO.P,MX74,1,1*%
%TO.N,COL11*%
X231933750Y-118110000D03*
D11*
X232588605Y-117380169D03*
D12*
%TO.P,MX74,2,2*%
%TO.N,Net-(D74-A)*%
X238263507Y-115860172D03*
D10*
X238283750Y-115570000D03*
%TD*%
%TO.P,MX21,1,1*%
%TO.N,COL12*%
X246221250Y-41910000D03*
D11*
X246876105Y-41180169D03*
D12*
%TO.P,MX21,2,2*%
%TO.N,Net-(D21-A)*%
X252551007Y-39660172D03*
D10*
X252571250Y-39370000D03*
%TD*%
%TO.P,MX77,1,1*%
%TO.N,COL3*%
X91440000Y-118110000D03*
D11*
X92094855Y-117380169D03*
D12*
%TO.P,MX77,2,2*%
%TO.N,Net-(D67-A)*%
X97769757Y-115860172D03*
D10*
X97790000Y-115570000D03*
%TD*%
%TO.P,MX54,1,1*%
%TO.N,COL2*%
X60483750Y-99060000D03*
D11*
X61138605Y-98330169D03*
D12*
%TO.P,MX54,2,2*%
%TO.N,Net-(D54-A)*%
X66813507Y-96810172D03*
D10*
X66833750Y-96520000D03*
%TD*%
%TO.P,MX69,1,1*%
%TO.N,COL5*%
X129540000Y-118110000D03*
D11*
X130194855Y-117380169D03*
D12*
%TO.P,MX69,2,2*%
%TO.N,Net-(D69-A)*%
X135869757Y-115860172D03*
D10*
X135890000Y-115570000D03*
%TD*%
%TO.P,MX80,1,1*%
%TO.N,COL8*%
X172402500Y-118110000D03*
D11*
X173057355Y-117380169D03*
D12*
%TO.P,MX80,2,2*%
%TO.N,Net-(D71-A)*%
X178732257Y-115860172D03*
D10*
X178752500Y-115570000D03*
%TD*%
%TO.P,MX48,1,1*%
%TO.N,COL9*%
X184308750Y-80010000D03*
D11*
X184963605Y-79280169D03*
D12*
%TO.P,MX48,2,2*%
%TO.N,Net-(D48-A)*%
X190638507Y-77760172D03*
D10*
X190658750Y-77470000D03*
%TD*%
%TO.P,MX67,1,1*%
%TO.N,COL3*%
X79533750Y-118110000D03*
D11*
X80188605Y-117380169D03*
D12*
%TO.P,MX67,2,2*%
%TO.N,Net-(D67-A)*%
X85863507Y-115860172D03*
D10*
X85883750Y-115570000D03*
%TD*%
%TO.P,MX15,1,1*%
%TO.N,COL6*%
X131921250Y-41910000D03*
D11*
X132576105Y-41180169D03*
D12*
%TO.P,MX15,2,2*%
%TO.N,Net-(D15-A)*%
X138251007Y-39660172D03*
D10*
X138271250Y-39370000D03*
%TD*%
%TO.P,MX29,1,1*%
%TO.N,COL5*%
X122396250Y-60960000D03*
D11*
X123051105Y-60230169D03*
D12*
%TO.P,MX29,2,2*%
%TO.N,Net-(D29-A)*%
X128726007Y-58710172D03*
D10*
X128746250Y-58420000D03*
%TD*%
D13*
%TO.P,SW3,A,A*%
%TO.N,ENC_e*%
X280868750Y-109100000D03*
%TO.P,SW3,B,B*%
%TO.N,ENC_f*%
X285868750Y-109100000D03*
D14*
%TO.P,SW3,C,C*%
%TO.N,GND*%
X283368750Y-109100000D03*
D15*
%TO.P,SW3,MP*%
%TO.N,N/C*%
X277768750Y-101600000D03*
X288968750Y-101600000D03*
D13*
%TO.P,SW3,S1,S1*%
%TO.N,row_3*%
X285868750Y-94600000D03*
%TO.P,SW3,S2,S2*%
%TO.N,COL13*%
X280868750Y-94600000D03*
%TD*%
D10*
%TO.P,MX13,1,1*%
%TO.N,COL4*%
X93821250Y-41910000D03*
D11*
X94476105Y-41180169D03*
D12*
%TO.P,MX13,2,2*%
%TO.N,Net-(D13-A)*%
X100151007Y-39660172D03*
D10*
X100171250Y-39370000D03*
%TD*%
%TO.P,MX36,1,1*%
%TO.N,COL12*%
X255746250Y-60960000D03*
D11*
X256401105Y-60230169D03*
D12*
%TO.P,MX36,2,2*%
%TO.N,Net-(D36-A)*%
X262076007Y-58710172D03*
D10*
X262096250Y-58420000D03*
%TD*%
%TO.P,MX18,1,1*%
%TO.N,COL9*%
X189071250Y-41910000D03*
D11*
X189726105Y-41180169D03*
D12*
%TO.P,MX18,2,2*%
%TO.N,Net-(D18-A)*%
X195401007Y-39660172D03*
D10*
X195421250Y-39370000D03*
%TD*%
%TO.P,MX43,1,1*%
%TO.N,COL4*%
X89058750Y-80010000D03*
D11*
X89713605Y-79280169D03*
D12*
%TO.P,MX43,2,2*%
%TO.N,Net-(D43-A)*%
X95388507Y-77760172D03*
D10*
X95408750Y-77470000D03*
%TD*%
%TO.P,MX42,1,1*%
%TO.N,COL3*%
X70008750Y-80010000D03*
D11*
X70663605Y-79280169D03*
D12*
%TO.P,MX42,2,2*%
%TO.N,Net-(D42-A)*%
X76338507Y-77760172D03*
D10*
X76358750Y-77470000D03*
%TD*%
%TO.P,MX40,1,1*%
%TO.N,COL1*%
X31908750Y-80010000D03*
D11*
X32563605Y-79280169D03*
D12*
%TO.P,MX40,2,2*%
%TO.N,Net-(D40-A)*%
X38238507Y-77760172D03*
D10*
X38258750Y-77470000D03*
%TD*%
%TO.P,MX70,1,1*%
%TO.N,COL7*%
X146208750Y-118110000D03*
D11*
X146863605Y-117380169D03*
D12*
%TO.P,MX70,2,2*%
%TO.N,row_4*%
X152538507Y-115860172D03*
D10*
X152558750Y-115570000D03*
%TD*%
%TO.P,MX46,1,1*%
%TO.N,COL7*%
X146208750Y-80010000D03*
D11*
X146863605Y-79280169D03*
D12*
%TO.P,MX46,2,2*%
%TO.N,Net-(D46-A)*%
X152538507Y-77760172D03*
D10*
X152558750Y-77470000D03*
%TD*%
%TO.P,MX79,1,1*%
%TO.N,COL5*%
X120015000Y-118110000D03*
D11*
X120669855Y-117380169D03*
D12*
%TO.P,MX79,2,2*%
%TO.N,Net-(D69-A)*%
X126344757Y-115860172D03*
D10*
X126365000Y-115570000D03*
%TD*%
%TO.P,MX14,1,1*%
%TO.N,COL5*%
X112871250Y-41910000D03*
D11*
X113526105Y-41180169D03*
D12*
%TO.P,MX14,2,2*%
%TO.N,Net-(D14-A)*%
X119201007Y-39660172D03*
D10*
X119221250Y-39370000D03*
%TD*%
%TO.P,MX83,1,1*%
%TO.N,COL8*%
X174783750Y-118110000D03*
D11*
X175438605Y-117380169D03*
D12*
%TO.P,MX83,2,2*%
%TO.N,Net-(D71-A)*%
X181113507Y-115860172D03*
D10*
X181133750Y-115570000D03*
%TD*%
%TO.P,MX30,1,1*%
%TO.N,COL6*%
X141446250Y-60960000D03*
D11*
X142101105Y-60230169D03*
D12*
%TO.P,MX30,2,2*%
%TO.N,Net-(D30-A)*%
X147776007Y-58710172D03*
D10*
X147796250Y-58420000D03*
%TD*%
%TO.P,MX58,1,1*%
%TO.N,COL6*%
X136683750Y-99060000D03*
D11*
X137338605Y-98330169D03*
D12*
%TO.P,MX58,2,2*%
%TO.N,Net-(D58-A)*%
X143013507Y-96810172D03*
D10*
X143033750Y-96520000D03*
%TD*%
%TO.P,MX84,1,1*%
%TO.N,Net-(D72-A)*%
X184308750Y-118110000D03*
D11*
X184963605Y-117380169D03*
D12*
%TO.P,MX84,2,2*%
%TO.N,COL9*%
X190638507Y-115860172D03*
D10*
X190658750Y-115570000D03*
%TD*%
%TO.P,MX82,1,1*%
%TO.N,Net-(D68-A)*%
X108108750Y-118110000D03*
D11*
X108763605Y-117380169D03*
D12*
%TO.P,MX82,2,2*%
%TO.N,COL4*%
X114438507Y-115860172D03*
D10*
X114458750Y-115570000D03*
%TD*%
%TO.P,MX71,1,1*%
%TO.N,COL8*%
X162877500Y-118110000D03*
D11*
X163532355Y-117380169D03*
D12*
%TO.P,MX71,2,2*%
%TO.N,Net-(D71-A)*%
X169207257Y-115860172D03*
D10*
X169227500Y-115570000D03*
%TD*%
%TO.P,MX27,1,1*%
%TO.N,COL3*%
X84296250Y-60960000D03*
D11*
X84951105Y-60230169D03*
D12*
%TO.P,MX27,2,2*%
%TO.N,Net-(D27-A)*%
X90626007Y-58710172D03*
D10*
X90646250Y-58420000D03*
%TD*%
%TO.P,MX78,1,1*%
%TO.N,COL10*%
X200977500Y-118110000D03*
D11*
X201632355Y-117380169D03*
D12*
%TO.P,MX78,2,2*%
%TO.N,Net-(D73-A)*%
X207307257Y-115860172D03*
D10*
X207327500Y-115570000D03*
%TD*%
%TO.P,MX11,1,1*%
%TO.N,COL2*%
X55721250Y-41910000D03*
D11*
X56376105Y-41180169D03*
D12*
%TO.P,MX11,2,2*%
%TO.N,Net-(D11-A)*%
X62051007Y-39660172D03*
D10*
X62071250Y-39370000D03*
%TD*%
%TO.P,MX52,1,1*%
%TO.N,COL13*%
X270033750Y-80010000D03*
D11*
X270688605Y-79280169D03*
D12*
%TO.P,MX52,2,2*%
%TO.N,Net-(D52-A)*%
X276363507Y-77760172D03*
D10*
X276383750Y-77470000D03*
%TD*%
%TO.P,MX17,1,1*%
%TO.N,COL8*%
X170021250Y-41910000D03*
D11*
X170676105Y-41180169D03*
D12*
%TO.P,MX17,2,2*%
%TO.N,Net-(D17-A)*%
X176351007Y-39660172D03*
D10*
X176371250Y-39370000D03*
%TD*%
%TO.P,MX3,1,1*%
%TO.N,COL3*%
X89058750Y-22860000D03*
D11*
X89713605Y-22130169D03*
D12*
%TO.P,MX3,2,2*%
%TO.N,Net-(D3-A)*%
X95388507Y-20610172D03*
D10*
X95408750Y-20320000D03*
%TD*%
%TO.P,MX10,1,1*%
%TO.N,COL1*%
X36671250Y-41910000D03*
D11*
X37326105Y-41180169D03*
D12*
%TO.P,MX10,2,2*%
%TO.N,Net-(D10-A)*%
X43001007Y-39660172D03*
D10*
X43021250Y-39370000D03*
%TD*%
%TO.P,MX20,1,1*%
%TO.N,COL11*%
X227171250Y-41910000D03*
D11*
X227826105Y-41180169D03*
D12*
%TO.P,MX20,2,2*%
%TO.N,Net-(D20-A)*%
X233501007Y-39660172D03*
D10*
X233521250Y-39370000D03*
%TD*%
D13*
%TO.P,SW2,A,A*%
%TO.N,ENC_c*%
X276106250Y-32900000D03*
%TO.P,SW2,B,B*%
%TO.N,ENC_d*%
X281106250Y-32900000D03*
D14*
%TO.P,SW2,C,C*%
%TO.N,GND*%
X278606250Y-32900000D03*
D15*
%TO.P,SW2,MP*%
%TO.N,N/C*%
X273006250Y-25400000D03*
X284206250Y-25400000D03*
D13*
%TO.P,SW2,S1,S1*%
%TO.N,row_2*%
X281106250Y-18400000D03*
%TO.P,SW2,S2,S2*%
%TO.N,COL13*%
X276106250Y-18400000D03*
%TD*%
D10*
%TO.P,MX7,1,1*%
%TO.N,COL12*%
X246221250Y-22860000D03*
D11*
X246876105Y-22130169D03*
D12*
%TO.P,MX7,2,2*%
%TO.N,Net-(D7-A)*%
X252551007Y-20610172D03*
D10*
X252571250Y-20320000D03*
%TD*%
%TO.P,MX45,1,1*%
%TO.N,COL6*%
X127158750Y-80010000D03*
D11*
X127813605Y-79280169D03*
D12*
%TO.P,MX45,2,2*%
%TO.N,Net-(D45-A)*%
X133488507Y-77760172D03*
D10*
X133508750Y-77470000D03*
%TD*%
%TO.P,MX25,1,1*%
%TO.N,COL1*%
X46196250Y-60960000D03*
D11*
X46851105Y-60230169D03*
D12*
%TO.P,MX25,2,2*%
%TO.N,Net-(D25-A)*%
X52526007Y-58710172D03*
D10*
X52546250Y-58420000D03*
%TD*%
%TO.P,MX60,1,1*%
%TO.N,COL8*%
X174783750Y-99060000D03*
D11*
X175438605Y-98330169D03*
D12*
%TO.P,MX60,2,2*%
%TO.N,Net-(D60-A)*%
X181113507Y-96810172D03*
D10*
X181133750Y-96520000D03*
%TD*%
%TO.P,MX8,1,1*%
%TO.N,COL13*%
X274796250Y-22860000D03*
D11*
X275451105Y-22130169D03*
D12*
%TO.P,MX8,2,2*%
%TO.N,row_2*%
X281126007Y-20610172D03*
D10*
X281146250Y-20320000D03*
%TD*%
%TO.P,MX39,1,1*%
%TO.N,COL0*%
X12858750Y-80010000D03*
D11*
X13513605Y-79280169D03*
D12*
%TO.P,MX39,2,2*%
%TO.N,Net-(D39-A)*%
X19188507Y-77760172D03*
D10*
X19208750Y-77470000D03*
%TD*%
%TO.P,MX23,1,1*%
%TO.N,COL14*%
X284321250Y-41910000D03*
D11*
X284976105Y-41180169D03*
D12*
%TO.P,MX23,2,2*%
%TO.N,Net-(D23-A)*%
X290651007Y-39660172D03*
D10*
X290671250Y-39370000D03*
%TD*%
%TO.P,MX59,1,1*%
%TO.N,COL7*%
X155733750Y-99060000D03*
D11*
X156388605Y-98330169D03*
D12*
%TO.P,MX59,2,2*%
%TO.N,Net-(D59-A)*%
X162063507Y-96810172D03*
D10*
X162083750Y-96520000D03*
%TD*%
%TO.P,MX1,1,1*%
%TO.N,COL0*%
X31908750Y-22860000D03*
D11*
X32563605Y-22130169D03*
D12*
%TO.P,MX1,2,2*%
%TO.N,row_1*%
X38238507Y-20610172D03*
D10*
X38258750Y-20320000D03*
%TD*%
%TO.P,MX76,1,1*%
%TO.N,Net-(D74-A)*%
X227171250Y-118110000D03*
D11*
X227826105Y-117380169D03*
D12*
%TO.P,MX76,2,2*%
%TO.N,COL11*%
X233501007Y-115860172D03*
D10*
X233521250Y-115570000D03*
%TD*%
%TO.P,MX32,1,1*%
%TO.N,COL8*%
X179546250Y-60960000D03*
D11*
X180201105Y-60230169D03*
D12*
%TO.P,MX32,2,2*%
%TO.N,Net-(D32-A)*%
X185876007Y-58710172D03*
D10*
X185896250Y-58420000D03*
%TD*%
%TO.P,MX68,1,1*%
%TO.N,COL4*%
X100965000Y-118110000D03*
D11*
X101619855Y-117380169D03*
D12*
%TO.P,MX68,2,2*%
%TO.N,Net-(D68-A)*%
X107294757Y-115860172D03*
D10*
X107315000Y-115570000D03*
%TD*%
%TO.P,MX31,1,1*%
%TO.N,COL7*%
X160496250Y-60960000D03*
D11*
X161151105Y-60230169D03*
D12*
%TO.P,MX31,2,2*%
%TO.N,Net-(D31-A)*%
X166826007Y-58710172D03*
D10*
X166846250Y-58420000D03*
%TD*%
%TO.P,MX51,1,1*%
%TO.N,COL12*%
X241458750Y-80010000D03*
D11*
X242113605Y-79280169D03*
D12*
%TO.P,MX51,2,2*%
%TO.N,Net-(D51-A)*%
X247788507Y-77760172D03*
D10*
X247808750Y-77470000D03*
%TD*%
D13*
%TO.P,SW1,A,A*%
%TO.N,ENC_a*%
X33218750Y-32900000D03*
%TO.P,SW1,B,B*%
%TO.N,ENC_b*%
X38218750Y-32900000D03*
D14*
%TO.P,SW1,C,C*%
%TO.N,GND*%
X35718750Y-32900000D03*
D15*
%TO.P,SW1,MP*%
%TO.N,N/C*%
X30118750Y-25400000D03*
X41318750Y-25400000D03*
D13*
%TO.P,SW1,S1,S1*%
%TO.N,row_1*%
X38218750Y-18400000D03*
%TO.P,SW1,S2,S2*%
%TO.N,COL0*%
X33218750Y-18400000D03*
%TD*%
D10*
%TO.P,MX55,1,1*%
%TO.N,COL3*%
X79533750Y-99060000D03*
D11*
X80188605Y-98330169D03*
D12*
%TO.P,MX55,2,2*%
%TO.N,Net-(D55-A)*%
X85863507Y-96810172D03*
D10*
X85883750Y-96520000D03*
%TD*%
%TO.P,MX2,1,1*%
%TO.N,COL2*%
X60483750Y-22860000D03*
D11*
X61138605Y-22130169D03*
D12*
%TO.P,MX2,2,2*%
%TO.N,Net-(D2-A)*%
X66813507Y-20610172D03*
D10*
X66833750Y-20320000D03*
%TD*%
D16*
%TO.P,J1,1,Pin_1*%
%TO.N,+5V*%
X82137500Y-51681250D03*
%TO.P,J1,2,Pin_2*%
%TO.N,D_N*%
X82137500Y-52681250D03*
%TO.P,J1,3,Pin_3*%
%TO.N,D_P*%
X82137500Y-53681250D03*
%TO.P,J1,4,Pin_4*%
%TO.N,GND*%
X82137500Y-54681250D03*
D17*
%TO.P,J1,MP,MountPin*%
X86012500Y-50381250D03*
X86012500Y-55981250D03*
%TD*%
D18*
%TO.P,D29,1,K*%
%TO.N,ROW2*%
X133350000Y-64900000D03*
%TO.P,D29,2,A*%
%TO.N,Net-(D29-A)*%
X133350000Y-62100000D03*
%TD*%
%TO.P,D60,1,K*%
%TO.N,ROW4*%
X185737500Y-103000000D03*
%TO.P,D60,2,A*%
%TO.N,Net-(D60-A)*%
X185737500Y-100200000D03*
%TD*%
D19*
%TO.P,U2,1,VBAT*%
%TO.N,+3V3*%
X28306250Y-117106250D03*
%TO.P,U2,2,PC13*%
%TO.N,ENC_e*%
X28306250Y-117606250D03*
%TO.P,U2,3,PC14*%
%TO.N,COL13*%
X28306250Y-118106250D03*
%TO.P,U2,4,PC15*%
%TO.N,COL12*%
X28306250Y-118606250D03*
%TO.P,U2,5,PF0*%
%TO.N,COL11*%
X28306250Y-119106250D03*
%TO.P,U2,6,PF1*%
%TO.N,COL10*%
X28306250Y-119606250D03*
%TO.P,U2,7,NRST*%
%TO.N,NRST*%
X28306250Y-120106250D03*
%TO.P,U2,8,VSSA*%
%TO.N,GND*%
X28306250Y-120606250D03*
%TO.P,U2,9,VDDA*%
%TO.N,+3V3*%
X28306250Y-121106250D03*
%TO.P,U2,10,PA0*%
%TO.N,/A0*%
X28306250Y-121606250D03*
%TO.P,U2,11,PA1*%
%TO.N,COL9*%
X28306250Y-122106250D03*
%TO.P,U2,12,PA2*%
%TO.N,COL8*%
X28306250Y-122606250D03*
D20*
%TO.P,U2,13,PA3*%
%TO.N,COL7*%
X26893750Y-124018750D03*
%TO.P,U2,14,PA4*%
%TO.N,COL6*%
X26393750Y-124018750D03*
%TO.P,U2,15,PA5*%
%TO.N,COL5*%
X25893750Y-124018750D03*
%TO.P,U2,16,PA6*%
%TO.N,COL4*%
X25393750Y-124018750D03*
%TO.P,U2,17,PA7*%
%TO.N,COL3*%
X24893750Y-124018750D03*
%TO.P,U2,18,PB0*%
%TO.N,COL2*%
X24393750Y-124018750D03*
%TO.P,U2,19,PB1*%
%TO.N,COL1*%
X23893750Y-124018750D03*
%TO.P,U2,20,PB2*%
%TO.N,ROW4*%
X23393750Y-124018750D03*
%TO.P,U2,21,PB10*%
%TO.N,ROW5*%
X22893750Y-124018750D03*
%TO.P,U2,22,PB11*%
%TO.N,ENC_h*%
X22393750Y-124018750D03*
%TO.P,U2,23,VSS*%
%TO.N,GND*%
X21893750Y-124018750D03*
%TO.P,U2,24,VDD*%
%TO.N,+3V3*%
X21393750Y-124018750D03*
D19*
%TO.P,U2,25,PB12*%
%TO.N,ENC_g*%
X19981250Y-122606250D03*
%TO.P,U2,26,PB13*%
%TO.N,/B13*%
X19981250Y-122106250D03*
%TO.P,U2,27,PB14*%
%TO.N,/B14*%
X19981250Y-121606250D03*
%TO.P,U2,28,PB15*%
%TO.N,/B15*%
X19981250Y-121106250D03*
%TO.P,U2,29,PA8*%
%TO.N,ENC_a*%
X19981250Y-120606250D03*
%TO.P,U2,30,PA9*%
%TO.N,ENC_b*%
X19981250Y-120106250D03*
%TO.P,U2,31,PA10*%
%TO.N,/A10*%
X19981250Y-119606250D03*
%TO.P,U2,32,PA11*%
%TO.N,D_N*%
X19981250Y-119106250D03*
%TO.P,U2,33,PA12*%
%TO.N,D_P*%
X19981250Y-118606250D03*
%TO.P,U2,34,PA13*%
%TO.N,/A13*%
X19981250Y-118106250D03*
%TO.P,U2,35,VSS*%
%TO.N,GND*%
X19981250Y-117606250D03*
%TO.P,U2,36,VDDIO2*%
%TO.N,+3V3*%
X19981250Y-117106250D03*
D20*
%TO.P,U2,37,PA14*%
%TO.N,COL0*%
X21393750Y-115693750D03*
%TO.P,U2,38,PA15*%
%TO.N,ROW3*%
X21893750Y-115693750D03*
%TO.P,U2,39,PB3*%
%TO.N,COL14*%
X22393750Y-115693750D03*
%TO.P,U2,40,PB4*%
%TO.N,ROW2*%
X22893750Y-115693750D03*
%TO.P,U2,41,PB5*%
%TO.N,ROW1*%
X23393750Y-115693750D03*
%TO.P,U2,42,PB6*%
%TO.N,ENC_c*%
X23893750Y-115693750D03*
%TO.P,U2,43,PB7*%
%TO.N,ENC_d*%
X24393750Y-115693750D03*
%TO.P,U2,44,BOOT0*%
%TO.N,BOOT0*%
X24893750Y-115693750D03*
%TO.P,U2,45,PB8*%
%TO.N,ROW0*%
X25393750Y-115693750D03*
%TO.P,U2,46,PB9*%
%TO.N,ENC_f*%
X25893750Y-115693750D03*
%TO.P,U2,47,VSS*%
%TO.N,GND*%
X26393750Y-115693750D03*
%TO.P,U2,48,VDD*%
%TO.N,+3V3*%
X26893750Y-115693750D03*
%TD*%
D18*
%TO.P,D27,1,K*%
%TO.N,ROW2*%
X95250000Y-64900000D03*
%TO.P,D27,2,A*%
%TO.N,Net-(D27-A)*%
X95250000Y-62100000D03*
%TD*%
%TO.P,D8,1,K*%
%TO.N,ROW0*%
X286543750Y-26800000D03*
%TO.P,D8,2,A*%
%TO.N,row_2*%
X286543750Y-24000000D03*
%TD*%
D21*
%TO.P,C5,1*%
%TO.N,+3V3*%
X20175000Y-115093750D03*
%TO.P,C5,2*%
%TO.N,GND*%
X20175000Y-114133750D03*
%TD*%
D18*
%TO.P,D10,1,K*%
%TO.N,ROW1*%
X47625000Y-45850000D03*
%TO.P,D10,2,A*%
%TO.N,Net-(D10-A)*%
X47625000Y-43050000D03*
%TD*%
%TO.P,D37,1,K*%
%TO.N,ROW2*%
X285750000Y-64900000D03*
%TO.P,D37,2,A*%
%TO.N,Net-(D37-A)*%
X285750000Y-62100000D03*
%TD*%
D22*
%TO.P,C7,1*%
%TO.N,NRST*%
X30807500Y-120313728D03*
%TO.P,C7,2*%
%TO.N,GND*%
X31767500Y-120313728D03*
%TD*%
D18*
%TO.P,D61,1,K*%
%TO.N,ROW4*%
X204787500Y-103000000D03*
%TO.P,D61,2,A*%
%TO.N,Net-(D61-A)*%
X204787500Y-100200000D03*
%TD*%
%TO.P,D30,1,K*%
%TO.N,ROW2*%
X152400000Y-64900000D03*
%TO.P,D30,2,A*%
%TO.N,Net-(D30-A)*%
X152400000Y-62100000D03*
%TD*%
%TO.P,D65,1,K*%
%TO.N,ROW4*%
X291306250Y-103000000D03*
%TO.P,D65,2,A*%
%TO.N,row_3*%
X291306250Y-100200000D03*
%TD*%
D21*
%TO.P,C9,1*%
%TO.N,GND*%
X73606237Y-55952595D03*
%TO.P,C9,2*%
%TO.N,+3V3*%
X73606237Y-54992595D03*
%TD*%
D23*
%TO.P,D72,1,K*%
%TO.N,ROW5*%
X195262500Y-114487500D03*
%TO.P,D72,2,A*%
%TO.N,Net-(D72-A)*%
X195262500Y-117287500D03*
%TD*%
D18*
%TO.P,D42,1,K*%
%TO.N,ROW3*%
X80962500Y-83950000D03*
%TO.P,D42,2,A*%
%TO.N,Net-(D42-A)*%
X80962500Y-81150000D03*
%TD*%
%TO.P,D13,1,K*%
%TO.N,ROW1*%
X104775000Y-45850000D03*
%TO.P,D13,2,A*%
%TO.N,Net-(D13-A)*%
X104775000Y-43050000D03*
%TD*%
D23*
%TO.P,D71,1,K*%
%TO.N,ROW5*%
X166687500Y-114487500D03*
%TO.P,D71,2,A*%
%TO.N,Net-(D71-A)*%
X166687500Y-117287500D03*
%TD*%
D18*
%TO.P,D28,1,K*%
%TO.N,ROW2*%
X114300000Y-64900000D03*
%TO.P,D28,2,A*%
%TO.N,Net-(D28-A)*%
X114300000Y-62100000D03*
%TD*%
%TO.P,D62,1,K*%
%TO.N,ROW4*%
X223837500Y-103000000D03*
%TO.P,D62,2,A*%
%TO.N,Net-(D62-A)*%
X223837500Y-100200000D03*
%TD*%
%TO.P,D43,1,K*%
%TO.N,ROW3*%
X100012500Y-83950000D03*
%TO.P,D43,2,A*%
%TO.N,Net-(D43-A)*%
X100012500Y-81150000D03*
%TD*%
%TO.P,D31,1,K*%
%TO.N,ROW2*%
X171450000Y-64900000D03*
%TO.P,D31,2,A*%
%TO.N,Net-(D31-A)*%
X171450000Y-62100000D03*
%TD*%
%TO.P,D17,1,K*%
%TO.N,ROW1*%
X180975000Y-45850000D03*
%TO.P,D17,2,A*%
%TO.N,Net-(D17-A)*%
X180975000Y-43050000D03*
%TD*%
%TO.P,D3,1,K*%
%TO.N,ROW0*%
X100012500Y-26800000D03*
%TO.P,D3,2,A*%
%TO.N,Net-(D3-A)*%
X100012500Y-24000000D03*
%TD*%
%TO.P,D39,1,K*%
%TO.N,ROW3*%
X23812500Y-83950000D03*
%TO.P,D39,2,A*%
%TO.N,Net-(D39-A)*%
X23812500Y-81150000D03*
%TD*%
D24*
%TO.P,C4,1*%
%TO.N,+3V3*%
X19547500Y-124618750D03*
%TO.P,C4,2*%
%TO.N,GND*%
X18587500Y-124618750D03*
%TD*%
D18*
%TO.P,D54,1,K*%
%TO.N,ROW4*%
X71437500Y-103000000D03*
%TO.P,D54,2,A*%
%TO.N,Net-(D54-A)*%
X71437500Y-100200000D03*
%TD*%
%TO.P,D6,1,K*%
%TO.N,ROW0*%
X228600000Y-26800000D03*
%TO.P,D6,2,A*%
%TO.N,Net-(D6-A)*%
X228600000Y-24000000D03*
%TD*%
D21*
%TO.P,C1,1*%
%TO.N,+3V3*%
X27318750Y-113890483D03*
%TO.P,C1,2*%
%TO.N,GND*%
X27318750Y-112930483D03*
%TD*%
D18*
%TO.P,D22,1,K*%
%TO.N,ROW1*%
X276225000Y-45850000D03*
%TO.P,D22,2,A*%
%TO.N,Net-(D22-A)*%
X276225000Y-43050000D03*
%TD*%
%TO.P,D14,1,K*%
%TO.N,ROW1*%
X123825000Y-45850000D03*
%TO.P,D14,2,A*%
%TO.N,Net-(D14-A)*%
X123825000Y-43050000D03*
%TD*%
%TO.P,D11,1,K*%
%TO.N,ROW1*%
X66675000Y-45850000D03*
%TO.P,D11,2,A*%
%TO.N,Net-(D11-A)*%
X66675000Y-43050000D03*
%TD*%
%TO.P,D40,1,K*%
%TO.N,ROW3*%
X42862500Y-83950000D03*
%TO.P,D40,2,A*%
%TO.N,Net-(D40-A)*%
X42862500Y-81150000D03*
%TD*%
%TO.P,D15,1,K*%
%TO.N,ROW1*%
X142875000Y-45850000D03*
%TO.P,D15,2,A*%
%TO.N,Net-(D15-A)*%
X142875000Y-43050000D03*
%TD*%
%TO.P,D18,1,K*%
%TO.N,ROW1*%
X200025000Y-45850000D03*
%TO.P,D18,2,A*%
%TO.N,Net-(D18-A)*%
X200025000Y-43050000D03*
%TD*%
D23*
%TO.P,D67,1,K*%
%TO.N,ROW5*%
X88106250Y-114487500D03*
%TO.P,D67,2,A*%
%TO.N,Net-(D67-A)*%
X88106250Y-117287500D03*
%TD*%
D22*
%TO.P,C3,1*%
%TO.N,+3V3*%
X30812236Y-121289389D03*
%TO.P,C3,2*%
%TO.N,GND*%
X31772236Y-121289389D03*
%TD*%
D18*
%TO.P,D25,1,K*%
%TO.N,ROW2*%
X57150000Y-64900000D03*
%TO.P,D25,2,A*%
%TO.N,Net-(D25-A)*%
X57150000Y-62100000D03*
%TD*%
%TO.P,D16,1,K*%
%TO.N,ROW1*%
X161925000Y-45850000D03*
%TO.P,D16,2,A*%
%TO.N,Net-(D16-A)*%
X161925000Y-43050000D03*
%TD*%
D23*
%TO.P,D69,1,K*%
%TO.N,ROW5*%
X133350000Y-114487500D03*
%TO.P,D69,2,A*%
%TO.N,Net-(D69-A)*%
X133350000Y-117287500D03*
%TD*%
%TO.P,D70,1,K*%
%TO.N,ROW5*%
X150018750Y-114487500D03*
%TO.P,D70,2,A*%
%TO.N,row_4*%
X150018750Y-117287500D03*
%TD*%
D18*
%TO.P,D7,1,K*%
%TO.N,ROW0*%
X257175000Y-26800000D03*
%TO.P,D7,2,A*%
%TO.N,Net-(D7-A)*%
X257175000Y-24000000D03*
%TD*%
%TO.P,D63,1,K*%
%TO.N,ROW4*%
X242887500Y-103000000D03*
%TO.P,D63,2,A*%
%TO.N,Net-(D63-A)*%
X242887500Y-100200000D03*
%TD*%
%TO.P,D5,1,K*%
%TO.N,ROW0*%
X200025000Y-26800000D03*
%TO.P,D5,2,A*%
%TO.N,Net-(D5-A)*%
X200025000Y-24000000D03*
%TD*%
%TO.P,D24,1,K*%
%TO.N,ROW2*%
X33337500Y-64900000D03*
%TO.P,D24,2,A*%
%TO.N,Net-(D24-A)*%
X33337500Y-62100000D03*
%TD*%
D25*
%TO.P,C8,1*%
%TO.N,GND*%
X78368737Y-54992595D03*
%TO.P,C8,2*%
%TO.N,+5V*%
X78368737Y-55952595D03*
%TD*%
D18*
%TO.P,D45,1,K*%
%TO.N,ROW3*%
X138112500Y-83950000D03*
%TO.P,D45,2,A*%
%TO.N,Net-(D45-A)*%
X138112500Y-81150000D03*
%TD*%
D26*
%TO.P,SW5,1,1*%
%TO.N,+3V3*%
X17725000Y-107875000D03*
X17725000Y-101675000D03*
%TO.P,SW5,2,2*%
%TO.N,BOOT0*%
X14025000Y-107875000D03*
X14025000Y-101675000D03*
%TD*%
D23*
%TO.P,D68,1,K*%
%TO.N,ROW5*%
X104775000Y-114487500D03*
%TO.P,D68,2,A*%
%TO.N,Net-(D68-A)*%
X104775000Y-117287500D03*
%TD*%
D22*
%TO.P,C2,1*%
%TO.N,+3V3*%
X29220000Y-115887500D03*
%TO.P,C2,2*%
%TO.N,GND*%
X30180000Y-115887500D03*
%TD*%
D18*
%TO.P,D33,1,K*%
%TO.N,ROW2*%
X209550000Y-64900000D03*
%TO.P,D33,2,A*%
%TO.N,Net-(D33-A)*%
X209550000Y-62100000D03*
%TD*%
%TO.P,D53,1,K*%
%TO.N,ROW4*%
X47625000Y-103000000D03*
%TO.P,D53,2,A*%
%TO.N,Net-(D53-A)*%
X47625000Y-100200000D03*
%TD*%
%TO.P,D46,1,K*%
%TO.N,ROW3*%
X157162500Y-83950000D03*
%TO.P,D46,2,A*%
%TO.N,Net-(D46-A)*%
X157162500Y-81150000D03*
%TD*%
%TO.P,D34,1,K*%
%TO.N,ROW2*%
X228600000Y-64900000D03*
%TO.P,D34,2,A*%
%TO.N,Net-(D34-A)*%
X228600000Y-62100000D03*
%TD*%
D23*
%TO.P,D73,1,K*%
%TO.N,ROW5*%
X221456250Y-114487500D03*
%TO.P,D73,2,A*%
%TO.N,Net-(D73-A)*%
X221456250Y-117287500D03*
%TD*%
D18*
%TO.P,D59,1,K*%
%TO.N,ROW4*%
X166687500Y-103000000D03*
%TO.P,D59,2,A*%
%TO.N,Net-(D59-A)*%
X166687500Y-100200000D03*
%TD*%
%TO.P,D58,1,K*%
%TO.N,ROW4*%
X147637500Y-103000000D03*
%TO.P,D58,2,A*%
%TO.N,Net-(D58-A)*%
X147637500Y-100200000D03*
%TD*%
%TO.P,D55,1,K*%
%TO.N,ROW4*%
X90487500Y-103000000D03*
%TO.P,D55,2,A*%
%TO.N,Net-(D55-A)*%
X90487500Y-100200000D03*
%TD*%
%TO.P,D56,1,K*%
%TO.N,ROW4*%
X109537500Y-103000000D03*
%TO.P,D56,2,A*%
%TO.N,Net-(D56-A)*%
X109537500Y-100200000D03*
%TD*%
D27*
%TO.P,U1,1,GND*%
%TO.N,GND*%
X75049987Y-56422595D03*
%TO.P,U1,2,VO*%
%TO.N,+3V3*%
X75049987Y-54522595D03*
%TO.P,U1,3,VI*%
%TO.N,+5V*%
X76924987Y-55472595D03*
%TD*%
D18*
%TO.P,D50,1,K*%
%TO.N,ROW3*%
X233362500Y-83950000D03*
%TO.P,D50,2,A*%
%TO.N,Net-(D50-A)*%
X233362500Y-81150000D03*
%TD*%
D28*
%TO.P,C6,1*%
%TO.N,+3V3*%
X18587500Y-115075000D03*
%TO.P,C6,2*%
%TO.N,GND*%
X18587500Y-113525000D03*
%TD*%
D18*
%TO.P,D1,1,K*%
%TO.N,ROW0*%
X43656250Y-26800000D03*
%TO.P,D1,2,A*%
%TO.N,row_1*%
X43656250Y-24000000D03*
%TD*%
%TO.P,D36,1,K*%
%TO.N,ROW2*%
X266700000Y-64900000D03*
%TO.P,D36,2,A*%
%TO.N,Net-(D36-A)*%
X266700000Y-62100000D03*
%TD*%
%TO.P,D9,1,K*%
%TO.N,ROW1*%
X28575000Y-45850000D03*
%TO.P,D9,2,A*%
%TO.N,Net-(D9-A)*%
X28575000Y-43050000D03*
%TD*%
%TO.P,D44,1,K*%
%TO.N,ROW3*%
X119062500Y-83950000D03*
%TO.P,D44,2,A*%
%TO.N,Net-(D44-A)*%
X119062500Y-81150000D03*
%TD*%
%TO.P,D52,1,K*%
%TO.N,ROW3*%
X280987500Y-83950000D03*
%TO.P,D52,2,A*%
%TO.N,Net-(D52-A)*%
X280987500Y-81150000D03*
%TD*%
D29*
%TO.P,J2,1,Pin_1*%
%TO.N,+5V*%
X83850000Y-51381250D03*
%TO.P,J2,2,Pin_2*%
%TO.N,D_N*%
X83850000Y-52581250D03*
%TO.P,J2,3,Pin_3*%
%TO.N,D_P*%
X83850000Y-53781250D03*
%TO.P,J2,4,Pin_4*%
%TO.N,GND*%
X83850000Y-54981250D03*
D30*
%TO.P,J2,MP,MountPin*%
X87625000Y-50231250D03*
X87625000Y-56131250D03*
%TD*%
D23*
%TO.P,D66,1,K*%
%TO.N,ROW5*%
X73818750Y-114487500D03*
%TO.P,D66,2,A*%
%TO.N,Net-(D66-A)*%
X73818750Y-117287500D03*
%TD*%
D18*
%TO.P,D12,1,K*%
%TO.N,ROW1*%
X85725000Y-45850000D03*
%TO.P,D12,2,A*%
%TO.N,Net-(D12-A)*%
X85725000Y-43050000D03*
%TD*%
%TO.P,D64,1,K*%
%TO.N,ROW4*%
X266700000Y-103000000D03*
%TO.P,D64,2,A*%
%TO.N,Net-(D64-A)*%
X266700000Y-100200000D03*
%TD*%
%TO.P,D35,1,K*%
%TO.N,ROW2*%
X247650000Y-64900000D03*
%TO.P,D35,2,A*%
%TO.N,Net-(D35-A)*%
X247650000Y-62100000D03*
%TD*%
%TO.P,D51,1,K*%
%TO.N,ROW3*%
X252412500Y-83950000D03*
%TO.P,D51,2,A*%
%TO.N,Net-(D51-A)*%
X252412500Y-81150000D03*
%TD*%
%TO.P,D41,1,K*%
%TO.N,ROW3*%
X61912500Y-83950000D03*
%TO.P,D41,2,A*%
%TO.N,Net-(D41-A)*%
X61912500Y-81150000D03*
%TD*%
%TO.P,D47,1,K*%
%TO.N,ROW3*%
X176212500Y-83950000D03*
%TO.P,D47,2,A*%
%TO.N,Net-(D47-A)*%
X176212500Y-81150000D03*
%TD*%
%TO.P,D4,1,K*%
%TO.N,ROW0*%
X128587500Y-26800000D03*
%TO.P,D4,2,A*%
%TO.N,Net-(D4-A)*%
X128587500Y-24000000D03*
%TD*%
D23*
%TO.P,D74,1,K*%
%TO.N,ROW5*%
X240506250Y-114487500D03*
%TO.P,D74,2,A*%
%TO.N,Net-(D74-A)*%
X240506250Y-117287500D03*
%TD*%
D18*
%TO.P,D26,1,K*%
%TO.N,ROW2*%
X76200000Y-65087500D03*
%TO.P,D26,2,A*%
%TO.N,Net-(D26-A)*%
X76200000Y-62287500D03*
%TD*%
%TO.P,D32,1,K*%
%TO.N,ROW2*%
X190500000Y-64900000D03*
%TO.P,D32,2,A*%
%TO.N,Net-(D32-A)*%
X190500000Y-62100000D03*
%TD*%
%TO.P,D21,1,K*%
%TO.N,ROW1*%
X257175000Y-45850000D03*
%TO.P,D21,2,A*%
%TO.N,Net-(D21-A)*%
X257175000Y-43050000D03*
%TD*%
%TO.P,D48,1,K*%
%TO.N,ROW3*%
X195262500Y-83950000D03*
%TO.P,D48,2,A*%
%TO.N,Net-(D48-A)*%
X195262500Y-81150000D03*
%TD*%
%TO.P,D38,1,K*%
%TO.N,ROW2*%
X300831250Y-64900000D03*
%TO.P,D38,2,A*%
%TO.N,Net-(D38-A)*%
X300831250Y-62100000D03*
%TD*%
%TO.P,D23,1,K*%
%TO.N,ROW1*%
X295275000Y-45850000D03*
%TO.P,D23,2,A*%
%TO.N,Net-(D23-A)*%
X295275000Y-43050000D03*
%TD*%
%TO.P,D2,1,K*%
%TO.N,ROW0*%
X71437500Y-26800000D03*
%TO.P,D2,2,A*%
%TO.N,Net-(D2-A)*%
X71437500Y-24000000D03*
%TD*%
%TO.P,D57,1,K*%
%TO.N,ROW4*%
X128587500Y-103000000D03*
%TO.P,D57,2,A*%
%TO.N,Net-(D57-A)*%
X128587500Y-100200000D03*
%TD*%
%TO.P,D20,1,K*%
%TO.N,ROW1*%
X238125000Y-45850000D03*
%TO.P,D20,2,A*%
%TO.N,Net-(D20-A)*%
X238125000Y-43050000D03*
%TD*%
D31*
%TO.P,R1,1*%
%TO.N,BOOT0*%
X15365000Y-110331250D03*
%TO.P,R1,2*%
%TO.N,GND*%
X16385000Y-110331250D03*
%TD*%
D18*
%TO.P,D19,1,K*%
%TO.N,ROW1*%
X219075000Y-45850000D03*
%TO.P,D19,2,A*%
%TO.N,Net-(D19-A)*%
X219075000Y-43050000D03*
%TD*%
%TO.P,D49,1,K*%
%TO.N,ROW3*%
X214312500Y-83950000D03*
%TO.P,D49,2,A*%
%TO.N,Net-(D49-A)*%
X214312500Y-81150000D03*
%TD*%
D32*
%TO.N,GND*%
X84146716Y-50482064D03*
X18644250Y-121940897D03*
X32875000Y-120650000D03*
X18587500Y-123825000D03*
X30178397Y-114865941D03*
X84147629Y-55680682D03*
X27318750Y-111918750D03*
X18587500Y-112404740D03*
%TO.N,+3V3*%
X20175000Y-123825000D03*
X19989044Y-116145812D03*
X29891691Y-120932309D03*
X28112500Y-115887500D03*
X17728276Y-109529906D03*
%TO.N,BOOT0*%
X15362213Y-111440352D03*
X24606250Y-117475000D03*
%TD*%
D33*
%TO.N,ROW0*%
X127618600Y-27768900D02*
X100981400Y-27768900D01*
X227631100Y-27768900D02*
X200993900Y-27768900D01*
D34*
X286543750Y-26800000D02*
X286543750Y-26987500D01*
D33*
X129381250Y-35718750D02*
X184943750Y-35718750D01*
D34*
X25052311Y-114427678D02*
X25273634Y-114649001D01*
X288165927Y-27781250D02*
X305851390Y-27781250D01*
D33*
X256206100Y-27768900D02*
X229568900Y-27768900D01*
D34*
X306074882Y-87661100D02*
X252892326Y-87661101D01*
X24893750Y-90722901D02*
X24893750Y-114044878D01*
X286543750Y-26987500D02*
X286751714Y-27195464D01*
X249463719Y-89432854D02*
X26183797Y-89432854D01*
X306782367Y-28712227D02*
X306782367Y-86953615D01*
D33*
X70468600Y-27768900D02*
X44625150Y-27768900D01*
X187325000Y-27781250D02*
X199043750Y-27781250D01*
X285574850Y-27768900D02*
X258143900Y-27768900D01*
D34*
X25393750Y-114938987D02*
X25393750Y-115693750D01*
D33*
X185737500Y-34131250D02*
X185737500Y-29368750D01*
X128587500Y-26800000D02*
X128587500Y-34925000D01*
X185737550Y-34131300D02*
X185737550Y-34924950D01*
D34*
X251478112Y-88246888D02*
X250877932Y-88847068D01*
D33*
X99043600Y-27768900D02*
X72406400Y-27768900D01*
D34*
X306782350Y-28712227D02*
G75*
G03*
X305851390Y-27781250I-930950J27D01*
G01*
D33*
X127618600Y-27768900D02*
G75*
G03*
X128587500Y-26800000I0J968900D01*
G01*
D34*
X286751711Y-27195467D02*
G75*
G03*
X288165927Y-27781250I1414189J1414167D01*
G01*
D33*
X199043750Y-27781200D02*
G75*
G03*
X200025000Y-26800000I50J981200D01*
G01*
D34*
X252892326Y-87661120D02*
G75*
G03*
X251478113Y-88246889I-26J-1999980D01*
G01*
D33*
X100012500Y-26800000D02*
G75*
G03*
X100981400Y-27768900I968900J0D01*
G01*
X184943750Y-35718750D02*
G75*
G03*
X185737550Y-34924950I-50J793850D01*
G01*
X285574850Y-27768850D02*
G75*
G03*
X286543750Y-26800000I50J968850D01*
G01*
X70468600Y-27768900D02*
G75*
G03*
X71437500Y-26800000I0J968900D01*
G01*
X187325000Y-27781300D02*
G75*
G03*
X185737500Y-29368750I0J-1587500D01*
G01*
D34*
X24893763Y-114044878D02*
G75*
G03*
X25052311Y-114427678I541337J-22D01*
G01*
D33*
X99043600Y-27768900D02*
G75*
G03*
X100012500Y-26800000I0J968900D01*
G01*
X128587550Y-34925000D02*
G75*
G03*
X129381250Y-35718750I793750J0D01*
G01*
D34*
X26183797Y-89432850D02*
G75*
G03*
X24893750Y-90722901I3J-1290050D01*
G01*
D33*
X227631100Y-27768900D02*
G75*
G03*
X228600000Y-26800000I0J968900D01*
G01*
X200025000Y-26800000D02*
G75*
G03*
X200993900Y-27768900I968900J0D01*
G01*
X43656200Y-26800000D02*
G75*
G03*
X44625150Y-27768900I968900J0D01*
G01*
D34*
X306074882Y-87661067D02*
G75*
G03*
X306782367Y-86953615I18J707467D01*
G01*
D33*
X228600000Y-26800000D02*
G75*
G03*
X229568900Y-27768900I968900J0D01*
G01*
X71437500Y-26800000D02*
G75*
G03*
X72406400Y-27768900I968900J0D01*
G01*
D34*
X249463719Y-89432880D02*
G75*
G03*
X250877931Y-88847067I-19J1999980D01*
G01*
X25393774Y-114938987D02*
G75*
G03*
X25273634Y-114649001I-410074J-13D01*
G01*
D33*
X257175000Y-26800000D02*
G75*
G03*
X258143900Y-27768900I968900J0D01*
G01*
X256206100Y-27768900D02*
G75*
G03*
X257175000Y-26800000I0J968900D01*
G01*
%TO.N,row_1*%
X38258750Y-20320000D02*
X41751250Y-20320000D01*
X43656250Y-22225000D02*
X43656250Y-24000000D01*
X43656200Y-22225000D02*
G75*
G03*
X41751250Y-20320000I-1905000J0D01*
G01*
%TO.N,Net-(D2-A)*%
X71437500Y-22225000D02*
X71437500Y-24000000D01*
X66833750Y-20320000D02*
X69532500Y-20320000D01*
X71437500Y-22225000D02*
G75*
G03*
X69532500Y-20320000I-1905000J0D01*
G01*
%TO.N,Net-(D3-A)*%
X100012500Y-22225000D02*
X100012500Y-24000000D01*
X95408750Y-20320000D02*
X98107500Y-20320000D01*
X100012500Y-22225000D02*
G75*
G03*
X98107500Y-20320000I-1905000J0D01*
G01*
%TO.N,Net-(D4-A)*%
X123983750Y-20320000D02*
X126682500Y-20320000D01*
X123943750Y-20900000D02*
X123943750Y-20360000D01*
X128587500Y-22225000D02*
X128587500Y-24000000D01*
X123983750Y-20319950D02*
G75*
G03*
X123943750Y-20360000I50J-40050D01*
G01*
X128587500Y-22225000D02*
G75*
G03*
X126682500Y-20320000I-1905000J0D01*
G01*
%TO.N,Net-(D5-A)*%
X195421250Y-20320000D02*
X198120000Y-20320000D01*
X200025000Y-22225000D02*
X200025000Y-24000000D01*
X200025000Y-22225000D02*
G75*
G03*
X198120000Y-20320000I-1905000J0D01*
G01*
%TO.N,Net-(D6-A)*%
X228600000Y-22225000D02*
X228600000Y-24000000D01*
X223996250Y-20320000D02*
X226695000Y-20320000D01*
X228600000Y-22225000D02*
G75*
G03*
X226695000Y-20320000I-1905000J0D01*
G01*
%TO.N,Net-(D7-A)*%
X257175000Y-22225000D02*
X257175000Y-24000000D01*
X252571250Y-20320000D02*
X255270000Y-20320000D01*
X257175000Y-22225000D02*
G75*
G03*
X255270000Y-20320000I-1905000J0D01*
G01*
%TO.N,row_2*%
X286543750Y-22225000D02*
X286543750Y-24000000D01*
X281106250Y-18400000D02*
X281106250Y-20900000D01*
X281146250Y-20320000D02*
X284638750Y-20320000D01*
X286543700Y-22225000D02*
G75*
G03*
X284638750Y-20320000I-1905000J0D01*
G01*
%TO.N,ROW1*%
X237156100Y-46818900D02*
X220043900Y-46818900D01*
X180006100Y-46818900D02*
X162893900Y-46818900D01*
X46656100Y-46818900D02*
X29543900Y-46818900D01*
X160956100Y-46818900D02*
X143843900Y-46818900D01*
D34*
X250380876Y-87647067D02*
X250981056Y-87046887D01*
D33*
X256206100Y-46818900D02*
X239093900Y-46818900D01*
D34*
X252395269Y-86461101D02*
X305103402Y-86461100D01*
D33*
X141906100Y-46818900D02*
X124793900Y-46818900D01*
D34*
X25406857Y-88232854D02*
X248966662Y-88232854D01*
X305087500Y-46831250D02*
X296256250Y-46831250D01*
D33*
X199056100Y-46818900D02*
X181943900Y-46818900D01*
X122856100Y-46818900D02*
X105743900Y-46818900D01*
X84756100Y-46818900D02*
X67643900Y-46818900D01*
D34*
X305582367Y-85982135D02*
X305582367Y-47326117D01*
D33*
X218106100Y-46818900D02*
X200993900Y-46818900D01*
X65706100Y-46818900D02*
X48593900Y-46818900D01*
X103806100Y-46818900D02*
X86693900Y-46818900D01*
X294306100Y-46818900D02*
X277193900Y-46818900D01*
D34*
X23393750Y-115693750D02*
X23393750Y-90245961D01*
D33*
X275256100Y-46818900D02*
X258143900Y-46818900D01*
X66675000Y-45850000D02*
G75*
G03*
X67643900Y-46818900I968900J0D01*
G01*
X238125000Y-45850000D02*
G75*
G03*
X239093900Y-46818900I968900J0D01*
G01*
X85725000Y-45850000D02*
G75*
G03*
X86693900Y-46818900I968900J0D01*
G01*
X84756100Y-46818900D02*
G75*
G03*
X85725000Y-45850000I0J968900D01*
G01*
X256206100Y-46818900D02*
G75*
G03*
X257175000Y-45850000I0J968900D01*
G01*
X65706100Y-46818900D02*
G75*
G03*
X66675000Y-45850000I0J968900D01*
G01*
X200025000Y-45850000D02*
G75*
G03*
X200993900Y-46818900I968900J0D01*
G01*
X46656100Y-46818900D02*
G75*
G03*
X47625000Y-45850000I0J968900D01*
G01*
X276225000Y-45850000D02*
G75*
G03*
X277193900Y-46818900I968900J0D01*
G01*
D34*
X248966662Y-88232840D02*
G75*
G03*
X250380876Y-87647067I38J1999940D01*
G01*
D33*
X141906100Y-46818900D02*
G75*
G03*
X142875000Y-45850000I0J968900D01*
G01*
X219075000Y-45850000D02*
G75*
G03*
X220043900Y-46818900I968900J0D01*
G01*
X237156100Y-46818900D02*
G75*
G03*
X238125000Y-45850000I0J968900D01*
G01*
X104775000Y-45850000D02*
G75*
G03*
X105743900Y-46818900I968900J0D01*
G01*
X103806100Y-46818900D02*
G75*
G03*
X104775000Y-45850000I0J968900D01*
G01*
D34*
X252395269Y-86461079D02*
G75*
G03*
X250981056Y-87046887I31J-2000021D01*
G01*
D33*
X123825000Y-45850000D02*
G75*
G03*
X124793900Y-46818900I968900J0D01*
G01*
D34*
X305103402Y-86461067D02*
G75*
G03*
X305582367Y-85982135I-2J478967D01*
G01*
D33*
X294306100Y-46818900D02*
G75*
G03*
X295275000Y-45850000I0J968900D01*
G01*
D34*
X25406857Y-88232850D02*
G75*
G03*
X23393750Y-90245961I3J-2013110D01*
G01*
D33*
X142875000Y-45850000D02*
G75*
G03*
X143843900Y-46818900I968900J0D01*
G01*
X218106100Y-46818900D02*
G75*
G03*
X219075000Y-45850000I0J968900D01*
G01*
X257175000Y-45850000D02*
G75*
G03*
X258143900Y-46818900I968900J0D01*
G01*
X47625000Y-45850000D02*
G75*
G03*
X48593900Y-46818900I968900J0D01*
G01*
X199056100Y-46818900D02*
G75*
G03*
X200025000Y-45850000I0J968900D01*
G01*
X160956100Y-46818900D02*
G75*
G03*
X161925000Y-45850000I0J968900D01*
G01*
X28575000Y-45850000D02*
G75*
G03*
X29543900Y-46818900I968900J0D01*
G01*
X180006100Y-46818900D02*
G75*
G03*
X180975000Y-45850000I0J968900D01*
G01*
X161925000Y-45850000D02*
G75*
G03*
X162893900Y-46818900I968900J0D01*
G01*
X180975000Y-45850000D02*
G75*
G03*
X181943900Y-46818900I968900J0D01*
G01*
X122856100Y-46818900D02*
G75*
G03*
X123825000Y-45850000I0J968900D01*
G01*
D34*
X295274950Y-45850000D02*
G75*
G03*
X296256250Y-46831250I981250J0D01*
G01*
X305582350Y-47326117D02*
G75*
G03*
X305087500Y-46831250I-494850J17D01*
G01*
D33*
X275256100Y-46818900D02*
G75*
G03*
X276225000Y-45850000I0J968900D01*
G01*
%TO.N,Net-(D9-A)*%
X23971250Y-39370000D02*
X26670000Y-39370000D01*
X28575000Y-41275000D02*
X28575000Y-43050000D01*
X28575000Y-41275000D02*
G75*
G03*
X26670000Y-39370000I-1905000J0D01*
G01*
%TO.N,Net-(D10-A)*%
X43021250Y-39370000D02*
X45720000Y-39370000D01*
X47625000Y-41275000D02*
X47625000Y-43050000D01*
X47625000Y-41275000D02*
G75*
G03*
X45720000Y-39370000I-1905000J0D01*
G01*
%TO.N,Net-(D11-A)*%
X62071250Y-39370000D02*
X64770000Y-39370000D01*
X66675000Y-41275000D02*
X66675000Y-43050000D01*
X66675000Y-41275000D02*
G75*
G03*
X64770000Y-39370000I-1905000J0D01*
G01*
%TO.N,Net-(D12-A)*%
X81121250Y-39370000D02*
X83820000Y-39370000D01*
X85725000Y-41275000D02*
X85725000Y-43050000D01*
X85725000Y-41275000D02*
G75*
G03*
X83820000Y-39370000I-1905000J0D01*
G01*
%TO.N,Net-(D13-A)*%
X100171250Y-39370000D02*
X102870000Y-39370000D01*
X104775000Y-41275000D02*
X104775000Y-43050000D01*
X104775000Y-41275000D02*
G75*
G03*
X102870000Y-39370000I-1905000J0D01*
G01*
%TO.N,Net-(D14-A)*%
X123825000Y-41275000D02*
X123825000Y-43050000D01*
X119221250Y-39370000D02*
X121920000Y-39370000D01*
X123825000Y-41275000D02*
G75*
G03*
X121920000Y-39370000I-1905000J0D01*
G01*
%TO.N,Net-(D15-A)*%
X142875000Y-41275000D02*
X142875000Y-43050000D01*
X138271250Y-39370000D02*
X140970000Y-39370000D01*
X142875000Y-41275000D02*
G75*
G03*
X140970000Y-39370000I-1905000J0D01*
G01*
%TO.N,Net-(D16-A)*%
X161925000Y-41275000D02*
X161925000Y-43050000D01*
X157321250Y-39370000D02*
X160020000Y-39370000D01*
X161925000Y-41275000D02*
G75*
G03*
X160020000Y-39370000I-1905000J0D01*
G01*
%TO.N,Net-(D17-A)*%
X176371250Y-39370000D02*
X179070000Y-39370000D01*
X180975000Y-41275000D02*
X180975000Y-43050000D01*
X180975000Y-41275000D02*
G75*
G03*
X179070000Y-39370000I-1905000J0D01*
G01*
%TO.N,Net-(D18-A)*%
X200025000Y-41275000D02*
X200025000Y-43050000D01*
X195421250Y-39370000D02*
X198120000Y-39370000D01*
X200025000Y-41275000D02*
G75*
G03*
X198120000Y-39370000I-1905000J0D01*
G01*
%TO.N,Net-(D19-A)*%
X219075000Y-41275000D02*
X219075000Y-43050000D01*
X214471250Y-39370000D02*
X217170000Y-39370000D01*
X219075000Y-41275000D02*
G75*
G03*
X217170000Y-39370000I-1905000J0D01*
G01*
%TO.N,Net-(D20-A)*%
X233521250Y-39370000D02*
X236220000Y-39370000D01*
X238125000Y-41275000D02*
X238125000Y-43050000D01*
X238125000Y-41275000D02*
G75*
G03*
X236220000Y-39370000I-1905000J0D01*
G01*
%TO.N,Net-(D21-A)*%
X257175000Y-41275000D02*
X257175000Y-43050000D01*
X252571250Y-39370000D02*
X255270000Y-39370000D01*
X257175000Y-41275000D02*
G75*
G03*
X255270000Y-39370000I-1905000J0D01*
G01*
%TO.N,Net-(D22-A)*%
X276225000Y-41275000D02*
X276225000Y-43050000D01*
X271621250Y-39370000D02*
X274320000Y-39370000D01*
X276225000Y-41275000D02*
G75*
G03*
X274320000Y-39370000I-1905000J0D01*
G01*
%TO.N,Net-(D23-A)*%
X295275000Y-41275000D02*
X295275000Y-43050000D01*
X290671250Y-39370000D02*
X293370000Y-39370000D01*
X295275000Y-41275000D02*
G75*
G03*
X293370000Y-39370000I-1905000J0D01*
G01*
%TO.N,ROW2*%
X248631250Y-65881250D02*
X265718750Y-65881250D01*
D34*
X304006250Y-65102474D02*
X301639974Y-65102474D01*
X252229583Y-86061101D02*
X304739234Y-86061100D01*
D33*
X134331250Y-65881250D02*
X151418750Y-65881250D01*
X290530622Y-65863128D02*
X286543750Y-65863128D01*
X301018750Y-65087500D02*
X301625000Y-65087500D01*
X301625000Y-65087500D02*
X303212500Y-65087500D01*
X303212500Y-56945000D02*
X292305000Y-56945000D01*
X267681250Y-65881250D02*
X284768750Y-65881250D01*
D34*
X250215190Y-87247067D02*
X250815370Y-86646887D01*
X25177766Y-87832854D02*
X248800976Y-87832854D01*
X305182367Y-85617967D02*
X305182367Y-65881250D01*
D33*
X96231250Y-65881250D02*
X113318750Y-65881250D01*
X172431250Y-65881250D02*
X189518750Y-65881250D01*
X304006250Y-64293750D02*
X304006250Y-57738750D01*
X115281250Y-65881250D02*
X132368750Y-65881250D01*
X153381250Y-65881250D02*
X170468750Y-65881250D01*
X210531250Y-65881250D02*
X227618750Y-65881250D01*
X58131250Y-65881250D02*
X75406250Y-65881250D01*
X291306250Y-57943750D02*
X291306250Y-65087500D01*
X56181100Y-65868900D02*
X34306400Y-65868900D01*
X229581250Y-65881250D02*
X246668750Y-65881250D01*
D34*
X304388617Y-65087500D02*
X303212500Y-65087500D01*
X22893750Y-115693750D02*
X22893750Y-90116870D01*
D33*
X76993750Y-65881250D02*
X94268750Y-65881250D01*
X191481250Y-65881250D02*
X208568750Y-65881250D01*
X152399950Y-64900000D02*
G75*
G03*
X153381250Y-65881250I981250J0D01*
G01*
X171449950Y-64900000D02*
G75*
G03*
X172431250Y-65881250I981250J0D01*
G01*
D34*
X305182400Y-65881250D02*
G75*
G03*
X304388617Y-65087500I-793800J-50D01*
G01*
D33*
X75406250Y-65881300D02*
G75*
G03*
X76200000Y-65087500I-50J793800D01*
G01*
X113318750Y-65881200D02*
G75*
G03*
X114300000Y-64900000I50J981200D01*
G01*
X33337500Y-64900000D02*
G75*
G03*
X34306400Y-65868900I968900J0D01*
G01*
X94268750Y-65881200D02*
G75*
G03*
X95250000Y-64900000I50J981200D01*
G01*
X227618750Y-65881200D02*
G75*
G03*
X228600000Y-64900000I50J981200D01*
G01*
X303212500Y-65087450D02*
G75*
G03*
X304006250Y-64293750I0J793750D01*
G01*
D34*
X304739234Y-86061167D02*
G75*
G03*
X305182367Y-85617967I-34J443167D01*
G01*
D33*
X247649950Y-64900000D02*
G75*
G03*
X248631250Y-65881250I981250J0D01*
G01*
X56181100Y-65868900D02*
G75*
G03*
X57150000Y-64900000I0J968900D01*
G01*
X246668750Y-65881200D02*
G75*
G03*
X247650000Y-64900000I50J981200D01*
G01*
X151418750Y-65881200D02*
G75*
G03*
X152400000Y-64900000I50J981200D01*
G01*
X114299950Y-64900000D02*
G75*
G03*
X115281250Y-65881250I981250J0D01*
G01*
X132368750Y-65881200D02*
G75*
G03*
X133350000Y-64900000I50J981200D01*
G01*
D34*
X300831200Y-64900000D02*
G75*
G03*
X301018750Y-65087500I187500J0D01*
G01*
D33*
X76200050Y-65087500D02*
G75*
G03*
X76993750Y-65881250I793750J0D01*
G01*
X284768750Y-65881200D02*
G75*
G03*
X285750000Y-64900000I50J981200D01*
G01*
D34*
X252229583Y-86061089D02*
G75*
G03*
X250815370Y-86646887I17J-2000011D01*
G01*
D33*
X57149950Y-64900000D02*
G75*
G03*
X58131250Y-65881250I981250J0D01*
G01*
X95249950Y-64900000D02*
G75*
G03*
X96231250Y-65881250I981250J0D01*
G01*
X208568750Y-65881200D02*
G75*
G03*
X209550000Y-64900000I50J981200D01*
G01*
X189518750Y-65881200D02*
G75*
G03*
X190500000Y-64900000I50J981200D01*
G01*
X170468750Y-65881200D02*
G75*
G03*
X171450000Y-64900000I50J981200D01*
G01*
X228599950Y-64900000D02*
G75*
G03*
X229581250Y-65881250I981250J0D01*
G01*
X190499950Y-64900000D02*
G75*
G03*
X191481250Y-65881250I981250J0D01*
G01*
X292305000Y-56944950D02*
G75*
G03*
X291306250Y-57943750I0J-998750D01*
G01*
X304006300Y-57738750D02*
G75*
G03*
X303212500Y-56945000I-793800J-50D01*
G01*
D34*
X301625026Y-65087500D02*
G75*
G03*
X301639974Y-65102474I14974J0D01*
G01*
D33*
X290530622Y-65863150D02*
G75*
G03*
X291306250Y-65087500I-22J775650D01*
G01*
X266699950Y-64900000D02*
G75*
G03*
X267681250Y-65881250I981250J0D01*
G01*
X265718750Y-65881200D02*
G75*
G03*
X266700000Y-64900000I50J981200D01*
G01*
D34*
X25177766Y-87832850D02*
G75*
G03*
X22893750Y-90116870I4J-2284020D01*
G01*
D33*
X133349950Y-64900000D02*
G75*
G03*
X134331250Y-65881250I981250J0D01*
G01*
D34*
X248800976Y-87832850D02*
G75*
G03*
X250215190Y-87247067I24J1999950D01*
G01*
D33*
X285749950Y-64900000D02*
G75*
G03*
X286731250Y-65881250I981250J0D01*
G01*
X209549950Y-64900000D02*
G75*
G03*
X210531250Y-65881250I981250J0D01*
G01*
%TO.N,Net-(D24-A)*%
X28733750Y-58420000D02*
X31432500Y-58420000D01*
X33337500Y-60325000D02*
X33337500Y-62100000D01*
X33337500Y-60325000D02*
G75*
G03*
X31432500Y-58420000I-1905000J0D01*
G01*
%TO.N,Net-(D25-A)*%
X57150000Y-60325000D02*
X57150000Y-62100000D01*
X52546250Y-58420000D02*
X55245000Y-58420000D01*
X57150000Y-60325000D02*
G75*
G03*
X55245000Y-58420000I-1905000J0D01*
G01*
%TO.N,Net-(D26-A)*%
X71596250Y-58420000D02*
X74295000Y-58420000D01*
X76200000Y-60325000D02*
X76200000Y-62287500D01*
X76200000Y-60325000D02*
G75*
G03*
X74295000Y-58420000I-1905000J0D01*
G01*
%TO.N,Net-(D27-A)*%
X90646250Y-58420000D02*
X93345000Y-58420000D01*
X95250000Y-60325000D02*
X95250000Y-62100000D01*
X95250000Y-60325000D02*
G75*
G03*
X93345000Y-58420000I-1905000J0D01*
G01*
%TO.N,Net-(D28-A)*%
X114300000Y-60325000D02*
X114300000Y-62100000D01*
X109696250Y-58420000D02*
X112395000Y-58420000D01*
X114300000Y-60325000D02*
G75*
G03*
X112395000Y-58420000I-1905000J0D01*
G01*
%TO.N,Net-(D29-A)*%
X128746250Y-58420000D02*
X131445000Y-58420000D01*
X133350000Y-60325000D02*
X133350000Y-62100000D01*
X133350000Y-60325000D02*
G75*
G03*
X131445000Y-58420000I-1905000J0D01*
G01*
%TO.N,Net-(D30-A)*%
X147796250Y-58420000D02*
X150495000Y-58420000D01*
X152400000Y-60325000D02*
X152400000Y-62100000D01*
X152400000Y-60325000D02*
G75*
G03*
X150495000Y-58420000I-1905000J0D01*
G01*
%TO.N,Net-(D31-A)*%
X171450000Y-60325000D02*
X171450000Y-62100000D01*
X166846250Y-58420000D02*
X169545000Y-58420000D01*
X171450000Y-60325000D02*
G75*
G03*
X169545000Y-58420000I-1905000J0D01*
G01*
%TO.N,Net-(D32-A)*%
X190500000Y-60325000D02*
X190500000Y-62100000D01*
X185896250Y-58420000D02*
X188595000Y-58420000D01*
X190500000Y-60325000D02*
G75*
G03*
X188595000Y-58420000I-1905000J0D01*
G01*
%TO.N,Net-(D33-A)*%
X204946250Y-58420000D02*
X207645000Y-58420000D01*
X209550000Y-60325000D02*
X209550000Y-62100000D01*
X209550000Y-60325000D02*
G75*
G03*
X207645000Y-58420000I-1905000J0D01*
G01*
%TO.N,Net-(D34-A)*%
X228600000Y-60325000D02*
X228600000Y-62100000D01*
X223996250Y-58420000D02*
X226695000Y-58420000D01*
X228600000Y-60325000D02*
G75*
G03*
X226695000Y-58420000I-1905000J0D01*
G01*
%TO.N,Net-(D35-A)*%
X247650000Y-60325000D02*
X247650000Y-62100000D01*
X243046250Y-58420000D02*
X245745000Y-58420000D01*
X247650000Y-60325000D02*
G75*
G03*
X245745000Y-58420000I-1905000J0D01*
G01*
%TO.N,Net-(D36-A)*%
X262096250Y-58420000D02*
X264795000Y-58420000D01*
X266700000Y-60325000D02*
X266700000Y-62100000D01*
X266700000Y-60325000D02*
G75*
G03*
X264795000Y-58420000I-1905000J0D01*
G01*
%TO.N,Net-(D37-A)*%
X281146250Y-58420000D02*
X283845000Y-58420000D01*
X285750000Y-60325000D02*
X285750000Y-62100000D01*
X285750000Y-60325000D02*
G75*
G03*
X283845000Y-58420000I-1905000J0D01*
G01*
%TO.N,Net-(D38-A)*%
X300196250Y-58420000D02*
X300196250Y-60566975D01*
X300196276Y-60566975D02*
G75*
G03*
X300831251Y-62099999I2168024J-25D01*
G01*
%TO.N,ROW3*%
X43843750Y-84931250D02*
X60931250Y-84931250D01*
D34*
X21893750Y-115693750D02*
X21893750Y-85868750D01*
D33*
X100993750Y-84931250D02*
X118081250Y-84931250D01*
X24793750Y-84931250D02*
X41881250Y-84931250D01*
X158143750Y-84931250D02*
X175231250Y-84931250D01*
X234343750Y-84931250D02*
X251431250Y-84931250D01*
X81943750Y-84931250D02*
X99031250Y-84931250D01*
X120043750Y-84931250D02*
X137131250Y-84931250D01*
X139093750Y-84931250D02*
X156181250Y-84931250D01*
X253393750Y-84931250D02*
X280006250Y-84931250D01*
X62893750Y-84931250D02*
X79981250Y-84931250D01*
X215293750Y-84931250D02*
X232381250Y-84931250D01*
X177193750Y-84931250D02*
X194281250Y-84931250D01*
X196243750Y-84931250D02*
X213331250Y-84931250D01*
X232381250Y-84931200D02*
G75*
G03*
X233362500Y-83950000I50J981200D01*
G01*
X280006250Y-84931200D02*
G75*
G03*
X280987500Y-83950000I50J981200D01*
G01*
X118081250Y-84931200D02*
G75*
G03*
X119062500Y-83950000I50J981200D01*
G01*
X42862450Y-83950000D02*
G75*
G03*
X43843750Y-84931250I981250J0D01*
G01*
X156181250Y-84931200D02*
G75*
G03*
X157162500Y-83950000I50J981200D01*
G01*
X79981250Y-84931200D02*
G75*
G03*
X80962500Y-83950000I50J981200D01*
G01*
X119062450Y-83950000D02*
G75*
G03*
X120043750Y-84931250I981250J0D01*
G01*
X137131250Y-84931200D02*
G75*
G03*
X138112500Y-83950000I50J981200D01*
G01*
X157162450Y-83950000D02*
G75*
G03*
X158143750Y-84931250I981250J0D01*
G01*
X99031250Y-84931200D02*
G75*
G03*
X100012500Y-83950000I50J981200D01*
G01*
X60931250Y-84931200D02*
G75*
G03*
X61912500Y-83950000I50J981200D01*
G01*
X194281250Y-84931200D02*
G75*
G03*
X195262500Y-83950000I50J981200D01*
G01*
X80962450Y-83950000D02*
G75*
G03*
X81943750Y-84931250I981250J0D01*
G01*
X214312450Y-83950000D02*
G75*
G03*
X215293750Y-84931250I981250J0D01*
G01*
X41881250Y-84931200D02*
G75*
G03*
X42862500Y-83950000I50J981200D01*
G01*
X175231250Y-84931200D02*
G75*
G03*
X176212500Y-83950000I50J981200D01*
G01*
D34*
X22831250Y-84931250D02*
G75*
G03*
X21893750Y-85868750I0J-937500D01*
G01*
D33*
X213331250Y-84931200D02*
G75*
G03*
X214312500Y-83950000I50J981200D01*
G01*
X138112450Y-83950000D02*
G75*
G03*
X139093750Y-84931250I981250J0D01*
G01*
X61912450Y-83950000D02*
G75*
G03*
X62893750Y-84931250I981250J0D01*
G01*
X251431250Y-84931200D02*
G75*
G03*
X252412500Y-83950000I50J981200D01*
G01*
X252412450Y-83950000D02*
G75*
G03*
X253393750Y-84931250I981250J0D01*
G01*
X195262450Y-83950000D02*
G75*
G03*
X196243750Y-84931250I981250J0D01*
G01*
X233362450Y-83950000D02*
G75*
G03*
X234343750Y-84931250I981250J0D01*
G01*
X176212450Y-83950000D02*
G75*
G03*
X177193750Y-84931250I981250J0D01*
G01*
X100012450Y-83950000D02*
G75*
G03*
X100993750Y-84931250I981250J0D01*
G01*
D34*
X22831250Y-84931200D02*
G75*
G03*
X23812500Y-83950000I50J981200D01*
G01*
D33*
X23812450Y-83950000D02*
G75*
G03*
X24793750Y-84931250I981250J0D01*
G01*
%TO.N,Net-(D39-A)*%
X19208750Y-77470000D02*
X21907500Y-77470000D01*
X23812500Y-79375000D02*
X23812500Y-81150000D01*
X23812500Y-79375000D02*
G75*
G03*
X21907500Y-77470000I-1905000J0D01*
G01*
%TO.N,Net-(D40-A)*%
X38258750Y-77470000D02*
X40957500Y-77470000D01*
X42862500Y-79375000D02*
X42862500Y-81150000D01*
X42862500Y-79375000D02*
G75*
G03*
X40957500Y-77470000I-1905000J0D01*
G01*
%TO.N,Net-(D41-A)*%
X57308750Y-77470000D02*
X60007500Y-77470000D01*
X61912500Y-79375000D02*
X61912500Y-81150000D01*
X61912500Y-79375000D02*
G75*
G03*
X60007500Y-77470000I-1905000J0D01*
G01*
%TO.N,Net-(D42-A)*%
X80962500Y-79375000D02*
X80962500Y-81150000D01*
X76358750Y-77470000D02*
X79057500Y-77470000D01*
X80962500Y-79375000D02*
G75*
G03*
X79057500Y-77470000I-1905000J0D01*
G01*
%TO.N,Net-(D43-A)*%
X95408750Y-77470000D02*
X98107500Y-77470000D01*
X100012500Y-79375000D02*
X100012500Y-81150000D01*
X100012500Y-79375000D02*
G75*
G03*
X98107500Y-77470000I-1905000J0D01*
G01*
%TO.N,Net-(D44-A)*%
X119062500Y-79375000D02*
X119062500Y-81150000D01*
X114458750Y-77470000D02*
X117157500Y-77470000D01*
X119062500Y-79375000D02*
G75*
G03*
X117157500Y-77470000I-1905000J0D01*
G01*
%TO.N,Net-(D45-A)*%
X138112500Y-79375000D02*
X138112500Y-81150000D01*
X133508750Y-77470000D02*
X136207500Y-77470000D01*
X138112500Y-79375000D02*
G75*
G03*
X136207500Y-77470000I-1905000J0D01*
G01*
%TO.N,Net-(D46-A)*%
X152558750Y-77470000D02*
X155257500Y-77470000D01*
X157162500Y-79375000D02*
X157162500Y-81150000D01*
X157162500Y-79375000D02*
G75*
G03*
X155257500Y-77470000I-1905000J0D01*
G01*
%TO.N,Net-(D47-A)*%
X176212500Y-79375000D02*
X176212500Y-81150000D01*
X171608750Y-77470000D02*
X174307500Y-77470000D01*
X176212500Y-79375000D02*
G75*
G03*
X174307500Y-77470000I-1905000J0D01*
G01*
%TO.N,Net-(D48-A)*%
X190658750Y-77470000D02*
X193357500Y-77470000D01*
X195262500Y-79375000D02*
X195262500Y-81150000D01*
X195262500Y-79375000D02*
G75*
G03*
X193357500Y-77470000I-1905000J0D01*
G01*
%TO.N,Net-(D49-A)*%
X214312500Y-79375000D02*
X214312500Y-81150000D01*
X209708750Y-77470000D02*
X212407500Y-77470000D01*
X214312500Y-79375000D02*
G75*
G03*
X212407500Y-77470000I-1905000J0D01*
G01*
%TO.N,Net-(D50-A)*%
X233362500Y-79375000D02*
X233362500Y-81150000D01*
X228758750Y-77470000D02*
X231457500Y-77470000D01*
X233362500Y-79375000D02*
G75*
G03*
X231457500Y-77470000I-1905000J0D01*
G01*
%TO.N,Net-(D51-A)*%
X247808750Y-77470000D02*
X250507500Y-77470000D01*
X252412500Y-79375000D02*
X252412500Y-81150000D01*
X252412500Y-79375000D02*
G75*
G03*
X250507500Y-77470000I-1905000J0D01*
G01*
%TO.N,Net-(D52-A)*%
X280987500Y-79375000D02*
X280987500Y-81150000D01*
X276383750Y-77470000D02*
X279082500Y-77470000D01*
X280987500Y-79375000D02*
G75*
G03*
X279082500Y-77470000I-1905000J0D01*
G01*
%TO.N,ROW4*%
X205768750Y-103981250D02*
X222856250Y-103981250D01*
X110518750Y-103981250D02*
X127606250Y-103981250D01*
D34*
X23393750Y-126895909D02*
X23393750Y-124018750D01*
D33*
X186718750Y-103981250D02*
X203806250Y-103981250D01*
D34*
X42862500Y-115227145D02*
X42862500Y-126213210D01*
D33*
X72418750Y-103981250D02*
X89506250Y-103981250D01*
D34*
X34925000Y-103981250D02*
X46643750Y-103981250D01*
X34717036Y-106253253D02*
X42276714Y-113812932D01*
D33*
X48606250Y-103981250D02*
X70456250Y-103981250D01*
D34*
X39990323Y-127456250D02*
X40024699Y-127456250D01*
X40024699Y-127456250D02*
X41619460Y-127456250D01*
X39990323Y-127456250D02*
X23954091Y-127456250D01*
D33*
X267681250Y-103981250D02*
X290325000Y-103981250D01*
X129568750Y-103981250D02*
X146656250Y-103981250D01*
X167668750Y-103981250D02*
X184756250Y-103981250D01*
D34*
X34131250Y-104839040D02*
X34131250Y-104775000D01*
D33*
X148618750Y-103981250D02*
X165706250Y-103981250D01*
X91468750Y-103981250D02*
X108556250Y-103981250D01*
X224818750Y-103981250D02*
X241906250Y-103981250D01*
X243868750Y-103981250D02*
X265718750Y-103981250D01*
X47624950Y-103000000D02*
G75*
G03*
X48606250Y-103981250I981250J0D01*
G01*
X184756250Y-103981200D02*
G75*
G03*
X185737500Y-103000000I50J981200D01*
G01*
X185737450Y-103000000D02*
G75*
G03*
X186718750Y-103981250I981250J0D01*
G01*
X266699950Y-103000000D02*
G75*
G03*
X267681250Y-103981250I981250J0D01*
G01*
X222856250Y-103981200D02*
G75*
G03*
X223837500Y-103000000I50J981200D01*
G01*
X90487450Y-103000000D02*
G75*
G03*
X91468750Y-103981250I981250J0D01*
G01*
X241906250Y-103981200D02*
G75*
G03*
X242887500Y-103000000I50J981200D01*
G01*
D34*
X42862468Y-115227145D02*
G75*
G03*
X42276714Y-113812932I-1999968J45D01*
G01*
D33*
X109537450Y-103000000D02*
G75*
G03*
X110518750Y-103981250I981250J0D01*
G01*
D34*
X34925000Y-103981250D02*
G75*
G03*
X34131250Y-104775000I0J-793750D01*
G01*
X41619460Y-127456200D02*
G75*
G03*
X42862500Y-126213210I40J1243000D01*
G01*
D33*
X128587450Y-103000000D02*
G75*
G03*
X129568750Y-103981250I981250J0D01*
G01*
X147637450Y-103000000D02*
G75*
G03*
X148618750Y-103981250I981250J0D01*
G01*
X127606250Y-103981200D02*
G75*
G03*
X128587500Y-103000000I50J981200D01*
G01*
X290325000Y-103981250D02*
G75*
G03*
X291306250Y-103000000I0J981250D01*
G01*
D34*
X23393728Y-126895909D02*
G75*
G03*
X23949313Y-127451472I555572J9D01*
G01*
D33*
X70456250Y-103981200D02*
G75*
G03*
X71437500Y-103000000I50J981200D01*
G01*
X242887450Y-103000000D02*
G75*
G03*
X243868750Y-103981250I981250J0D01*
G01*
X108556250Y-103981200D02*
G75*
G03*
X109537500Y-103000000I50J981200D01*
G01*
X89506250Y-103981200D02*
G75*
G03*
X90487500Y-103000000I50J981200D01*
G01*
X71437450Y-103000000D02*
G75*
G03*
X72418750Y-103981250I981250J0D01*
G01*
X203806250Y-103981200D02*
G75*
G03*
X204787500Y-103000000I50J981200D01*
G01*
D34*
X23949350Y-127451472D02*
G75*
G03*
X23954091Y-127456250I4750J-28D01*
G01*
D33*
X165706250Y-103981200D02*
G75*
G03*
X166687500Y-103000000I50J981200D01*
G01*
X146656250Y-103981200D02*
G75*
G03*
X147637500Y-103000000I50J981200D01*
G01*
D34*
X46643750Y-103981200D02*
G75*
G03*
X47625000Y-103000000I50J981200D01*
G01*
D33*
X265718750Y-103981200D02*
G75*
G03*
X266700000Y-103000000I50J981200D01*
G01*
X223837450Y-103000000D02*
G75*
G03*
X224818750Y-103981250I981250J0D01*
G01*
X204787450Y-103000000D02*
G75*
G03*
X205768750Y-103981250I981250J0D01*
G01*
X166687450Y-103000000D02*
G75*
G03*
X167668750Y-103981250I981250J0D01*
G01*
D34*
X34131208Y-104839040D02*
G75*
G03*
X34717037Y-106253252I1999992J40D01*
G01*
D33*
%TO.N,Net-(D53-A)*%
X43021250Y-96520000D02*
X45720000Y-96520000D01*
X47625000Y-98425000D02*
X47625000Y-100200000D01*
X47625000Y-98425000D02*
G75*
G03*
X45720000Y-96520000I-1905000J0D01*
G01*
%TO.N,Net-(D54-A)*%
X71437500Y-98425000D02*
X71437500Y-100200000D01*
X66833750Y-96520000D02*
X69532500Y-96520000D01*
X71437500Y-98425000D02*
G75*
G03*
X69532500Y-96520000I-1905000J0D01*
G01*
%TO.N,Net-(D55-A)*%
X85883750Y-96520000D02*
X88582500Y-96520000D01*
X90487500Y-98425000D02*
X90487500Y-100200000D01*
X90487500Y-98425000D02*
G75*
G03*
X88582500Y-96520000I-1905000J0D01*
G01*
%TO.N,Net-(D56-A)*%
X109537500Y-98425000D02*
X109537500Y-100200000D01*
X104933750Y-96520000D02*
X107632500Y-96520000D01*
X109537500Y-98425000D02*
G75*
G03*
X107632500Y-96520000I-1905000J0D01*
G01*
%TO.N,Net-(D57-A)*%
X123983750Y-96520000D02*
X126682500Y-96520000D01*
X128587500Y-98425000D02*
X128587500Y-100200000D01*
X128587500Y-98425000D02*
G75*
G03*
X126682500Y-96520000I-1905000J0D01*
G01*
%TO.N,Net-(D58-A)*%
X143033750Y-96520000D02*
X145732500Y-96520000D01*
X147637500Y-98425000D02*
X147637500Y-100200000D01*
X147637500Y-98425000D02*
G75*
G03*
X145732500Y-96520000I-1905000J0D01*
G01*
%TO.N,Net-(D59-A)*%
X162083750Y-96520000D02*
X164782500Y-96520000D01*
X166687500Y-98425000D02*
X166687500Y-100200000D01*
X166687500Y-98425000D02*
G75*
G03*
X164782500Y-96520000I-1905000J0D01*
G01*
%TO.N,Net-(D60-A)*%
X181133750Y-96520000D02*
X183832500Y-96520000D01*
X185737500Y-98425000D02*
X185737500Y-100200000D01*
X185737500Y-98425000D02*
G75*
G03*
X183832500Y-96520000I-1905000J0D01*
G01*
%TO.N,Net-(D61-A)*%
X204787500Y-98425000D02*
X204787500Y-100200000D01*
X200183750Y-96520000D02*
X202882500Y-96520000D01*
X204787500Y-98425000D02*
G75*
G03*
X202882500Y-96520000I-1905000J0D01*
G01*
%TO.N,Net-(D62-A)*%
X223837500Y-98425000D02*
X223837500Y-100200000D01*
X219233750Y-96520000D02*
X221932500Y-96520000D01*
X223837500Y-98425000D02*
G75*
G03*
X221932500Y-96520000I-1905000J0D01*
G01*
%TO.N,Net-(D63-A)*%
X238283750Y-96520000D02*
X240982500Y-96520000D01*
X242887500Y-98425000D02*
X242887500Y-100200000D01*
X242887500Y-98425000D02*
G75*
G03*
X240982500Y-96520000I-1905000J0D01*
G01*
%TO.N,Net-(D64-A)*%
X262096250Y-96520000D02*
X264795000Y-96520000D01*
X266700000Y-98425000D02*
X266700000Y-100200000D01*
X266700000Y-98425000D02*
G75*
G03*
X264795000Y-96520000I-1905000J0D01*
G01*
%TO.N,row_3*%
X285908750Y-96520000D02*
X289401250Y-96520000D01*
X285868750Y-94600000D02*
X285868750Y-97100000D01*
X291306250Y-98425000D02*
X291306250Y-100200000D01*
X291306200Y-98425000D02*
G75*
G03*
X289401250Y-96520000I-1905000J0D01*
G01*
%TO.N,ROW5*%
X100806250Y-109537500D02*
X130968750Y-109537500D01*
X166687500Y-114487500D02*
X166687500Y-111918750D01*
X219075000Y-109537500D02*
X238125000Y-109537500D01*
X85725000Y-109537500D02*
X100806250Y-109537500D01*
X133350000Y-114487500D02*
X133350000Y-111918750D01*
X76200000Y-109537500D02*
X85725000Y-109537500D01*
X147637500Y-109537500D02*
X164306250Y-109537500D01*
X193675000Y-109537500D02*
X219075000Y-109537500D01*
X195262500Y-114487500D02*
X195262500Y-111918750D01*
X88106250Y-114487500D02*
X88106250Y-111918750D01*
X240506250Y-111918750D02*
X240506250Y-114487500D01*
X195262500Y-111426119D02*
X195262500Y-111125000D01*
X104775000Y-114487500D02*
X104775000Y-111426119D01*
X164306250Y-109537500D02*
X193675000Y-109537500D01*
X195262500Y-111918750D02*
X195262500Y-111426119D01*
X150018750Y-114487500D02*
X150018750Y-111918750D01*
X130968750Y-109537500D02*
X147637500Y-109537500D01*
X195262500Y-111918750D02*
X195262500Y-111125000D01*
D34*
X23597615Y-127856250D02*
X74550000Y-127856250D01*
D33*
X73818750Y-114487500D02*
X73818750Y-111918750D01*
D34*
X22893750Y-124018750D02*
X22893750Y-127152385D01*
D33*
X221456250Y-114487500D02*
X221456250Y-111918750D01*
D34*
X75406250Y-127000000D02*
X75406250Y-115887500D01*
X74006250Y-114487500D02*
X73818750Y-114487500D01*
D33*
X102886381Y-109537500D02*
X100806250Y-109537500D01*
X88106250Y-111918750D02*
G75*
G03*
X85725000Y-109537500I-2381250J0D01*
G01*
D34*
X74550000Y-127856250D02*
G75*
G03*
X75406250Y-127000000I0J856250D01*
G01*
D33*
X150018800Y-111918750D02*
G75*
G03*
X147637500Y-109537500I-2381300J-50D01*
G01*
X195262500Y-111125000D02*
G75*
G03*
X193675000Y-109537500I-1587500J0D01*
G01*
X104775000Y-111426119D02*
G75*
G03*
X102886381Y-109537500I-1888600J19D01*
G01*
X221456300Y-111918750D02*
G75*
G03*
X219075000Y-109537500I-2381300J-50D01*
G01*
X240506300Y-111918750D02*
G75*
G03*
X238125000Y-109537500I-2381300J-50D01*
G01*
X133350000Y-111918750D02*
G75*
G03*
X130968750Y-109537500I-2381300J-50D01*
G01*
D34*
X75406200Y-115887500D02*
G75*
G03*
X74006250Y-114487500I-1400000J0D01*
G01*
D33*
X166687500Y-111918750D02*
G75*
G03*
X164306250Y-109537500I-2381300J-50D01*
G01*
D34*
X22893750Y-127152385D02*
G75*
G03*
X23597615Y-127856250I703850J-15D01*
G01*
D33*
X76200000Y-109537500D02*
G75*
G03*
X73818750Y-111918750I0J-2381250D01*
G01*
%TO.N,Net-(D66-A)*%
X65919769Y-116483981D02*
X66833750Y-115570000D01*
X68306888Y-117663138D02*
X73443112Y-117663138D01*
X65919767Y-116483979D02*
G75*
G03*
X65246250Y-118110000I1626033J-1626021D01*
G01*
X66793762Y-116150000D02*
G75*
G03*
X68306888Y-117663138I1513138J0D01*
G01*
X73443112Y-117663150D02*
G75*
G03*
X73818750Y-117287500I-12J375650D01*
G01*
%TO.N,Net-(D67-A)*%
X90300000Y-115093750D02*
X97313750Y-115093750D01*
X88106250Y-117287500D02*
X86981250Y-117287500D01*
X90300000Y-115093750D02*
G75*
G03*
X88106250Y-117287500I0J-2193750D01*
G01*
X97790050Y-115570000D02*
G75*
G03*
X97313750Y-115093750I-476250J0D01*
G01*
X85843700Y-116150000D02*
G75*
G03*
X86981250Y-117287500I1137500J0D01*
G01*
%TO.N,Net-(D68-A)*%
X104775000Y-117287500D02*
X106137500Y-117287500D01*
X106137500Y-117287500D02*
G75*
G03*
X107275000Y-116150000I0J1137500D01*
G01*
%TO.N,Net-(D69-A)*%
X131762500Y-115093750D02*
X126841250Y-115093750D01*
X133350000Y-117287500D02*
X133350000Y-116681250D01*
X133350000Y-117287500D02*
X134712500Y-117287500D01*
X126365000Y-115570000D02*
X124523750Y-115570000D01*
X124523750Y-115570050D02*
G75*
G03*
X123943750Y-116150000I-50J-579950D01*
G01*
X126841250Y-115093800D02*
G75*
G03*
X126365000Y-115570000I-50J-476200D01*
G01*
X133350050Y-116681250D02*
G75*
G03*
X131762500Y-115093750I-1587550J-50D01*
G01*
X134712500Y-117287500D02*
G75*
G03*
X135850000Y-116150000I0J1137500D01*
G01*
%TO.N,row_4*%
X150018750Y-117287500D02*
X151381250Y-117287500D01*
X152518750Y-113650000D02*
X152518750Y-116150000D01*
X151381250Y-117287450D02*
G75*
G03*
X152518750Y-116150000I50J1137450D01*
G01*
%TO.N,Net-(D71-A)*%
X166687500Y-117287500D02*
X168050000Y-117287500D01*
X170243750Y-115093750D02*
X180657500Y-115093750D01*
X170243750Y-115093800D02*
G75*
G03*
X169187500Y-116150000I-50J-1056200D01*
G01*
X168050000Y-117287500D02*
G75*
G03*
X169187500Y-116150000I0J1137500D01*
G01*
X181133750Y-115570000D02*
G75*
G03*
X180657500Y-115093750I-476250J0D01*
G01*
%TO.N,Net-(D72-A)*%
X186749104Y-114082146D02*
X192839011Y-114082146D01*
X195262500Y-117287500D02*
X196625000Y-117287500D01*
X185737500Y-116531250D02*
X185737500Y-115093750D01*
X194255538Y-115498673D02*
X194255538Y-116280538D01*
X196625000Y-117287500D02*
G75*
G03*
X197762500Y-116150000I0J1137500D01*
G01*
X194255500Y-116280538D02*
G75*
G03*
X195262500Y-117287500I1007000J38D01*
G01*
X185618750Y-116650000D02*
G75*
G03*
X185737500Y-116531250I50J118700D01*
G01*
X186749104Y-114082200D02*
G75*
G03*
X185737500Y-115093750I-4J-1011600D01*
G01*
X194255554Y-115498673D02*
G75*
G03*
X192839011Y-114082146I-1416554J-27D01*
G01*
%TO.N,Net-(D73-A)*%
X219738750Y-115570000D02*
X219233750Y-115570000D01*
X218807868Y-115144118D02*
X207753382Y-115144118D01*
X219233782Y-115570000D02*
G75*
G03*
X218807868Y-115144118I-425882J0D01*
G01*
X207753382Y-115144100D02*
G75*
G03*
X207327500Y-115570000I18J-425900D01*
G01*
X221456300Y-117287500D02*
G75*
G03*
X219738750Y-115570000I-1717500J0D01*
G01*
%TO.N,Net-(D74-A)*%
X240506250Y-117287500D02*
X239381250Y-117287500D01*
X231041954Y-114089296D02*
X236803046Y-114089296D01*
X231041954Y-114089250D02*
G75*
G03*
X228481250Y-116650000I46J-2560750D01*
G01*
X238243700Y-116150000D02*
G75*
G03*
X239381250Y-117287500I1137500J0D01*
G01*
X238283704Y-115570000D02*
G75*
G03*
X236803046Y-114089296I-1480704J0D01*
G01*
D34*
%TO.N,COL0*%
X14168750Y-83364775D02*
X14168750Y-78550000D01*
X21393750Y-115693750D02*
X21393750Y-85650150D01*
X20637500Y-84893900D02*
X15697875Y-84893900D01*
X14168800Y-83364775D02*
G75*
G03*
X15697875Y-84893900I1529100J-25D01*
G01*
X21393750Y-85650150D02*
G75*
G03*
X20637500Y-84893900I-756250J0D01*
G01*
%TO.N,COL1*%
X41482964Y-114002771D02*
X33923287Y-106443094D01*
X23893750Y-124018750D02*
X23893750Y-126722631D01*
X24227369Y-127056250D02*
X41114528Y-127056250D01*
X42068750Y-126102028D02*
X42068750Y-115416984D01*
X34290000Y-99060000D02*
X36671250Y-99060000D01*
X33337500Y-105028880D02*
X33337500Y-100012500D01*
X23893750Y-126722631D02*
G75*
G03*
X24227369Y-127056250I333650J31D01*
G01*
X34290000Y-99060000D02*
G75*
G03*
X33337500Y-100012500I0J-952500D01*
G01*
X33337515Y-105028880D02*
G75*
G03*
X33923288Y-106443093I1999985J-20D01*
G01*
X42068775Y-115416984D02*
G75*
G03*
X41482963Y-114002772I-1999975J-16D01*
G01*
X41114528Y-127056250D02*
G75*
G03*
X42068750Y-126102028I-28J954250D01*
G01*
%TO.N,COL2*%
X41275000Y-125890262D02*
X41275000Y-115467609D01*
X59812390Y-95618640D02*
X61793750Y-97600000D01*
X33778875Y-95032854D02*
X58398177Y-95032854D01*
X33353766Y-106717947D02*
X40689214Y-114053396D01*
X32767979Y-105303733D02*
X32767979Y-96043750D01*
X24592155Y-126656250D02*
X40509012Y-126656250D01*
X24393750Y-124018750D02*
X24393750Y-126457845D01*
X24393750Y-126457845D02*
G75*
G03*
X24592155Y-126656250I198450J45D01*
G01*
X33778875Y-95032849D02*
G75*
G03*
X32767979Y-96043750I5J-1010901D01*
G01*
X32767962Y-105303733D02*
G75*
G03*
X33353766Y-106717947I2000038J33D01*
G01*
X40509012Y-126656300D02*
G75*
G03*
X41275000Y-125890262I-12J766000D01*
G01*
X41274993Y-115467609D02*
G75*
G03*
X40689214Y-114053396I-1999993J9D01*
G01*
X59812411Y-95618619D02*
G75*
G03*
X58398177Y-95032854I-1414211J-1414281D01*
G01*
%TO.N,COL3*%
X32681950Y-106922145D02*
X39895464Y-114135660D01*
X24893750Y-124018750D02*
X24893750Y-126002779D01*
X32096163Y-105507931D02*
X32096163Y-95496236D01*
X78462390Y-95218640D02*
X80843750Y-97600000D01*
X40481250Y-125536421D02*
X40481250Y-115549873D01*
X25147221Y-126256250D02*
X39761421Y-126256250D01*
X32959545Y-94632854D02*
X77048177Y-94632854D01*
X24893750Y-126002779D02*
G75*
G03*
X25147221Y-126256250I253450J-21D01*
G01*
X78462411Y-95218619D02*
G75*
G03*
X77048177Y-94632854I-1414211J-1414281D01*
G01*
X32096153Y-105507931D02*
G75*
G03*
X32681951Y-106922144I2000047J31D01*
G01*
X32959545Y-94632863D02*
G75*
G03*
X32096163Y-95496236I-45J-863337D01*
G01*
X40481283Y-115549873D02*
G75*
G03*
X39895464Y-114135660I-1999983J-27D01*
G01*
X39761421Y-126256250D02*
G75*
G03*
X40481250Y-125536421I-21J719850D01*
G01*
%TO.N,COL11*%
X28132071Y-109044776D02*
X33663657Y-114576361D01*
X27546284Y-107630562D02*
X27546284Y-92530531D01*
X34249443Y-118522262D02*
X34249443Y-115990574D01*
X28306250Y-119106250D02*
X33665455Y-119106250D01*
X28643961Y-91432854D02*
X226248177Y-91432854D01*
X227662391Y-92018641D02*
X233243750Y-97600000D01*
X33665455Y-119106243D02*
G75*
G03*
X34249443Y-118522262I45J583943D01*
G01*
X227662412Y-92018620D02*
G75*
G03*
X226248177Y-91432854I-1414212J-1414280D01*
G01*
X34249448Y-115990574D02*
G75*
G03*
X33663657Y-114576361I-2000048J-26D01*
G01*
X27546316Y-107630562D02*
G75*
G03*
X28132071Y-109044776I1999984J-38D01*
G01*
X28643961Y-91432784D02*
G75*
G03*
X27546284Y-92530531I39J-1097716D01*
G01*
%TO.N,COL12*%
X28168513Y-91032854D02*
X249660677Y-91032854D01*
X32968842Y-114725092D02*
X27573286Y-109329536D01*
X33554628Y-118248893D02*
X33554628Y-116139305D01*
X28306250Y-118606250D02*
X31655059Y-118606250D01*
X26987500Y-107915323D02*
X26987500Y-92213867D01*
X31659313Y-118601996D02*
X33201525Y-118601996D01*
X31655059Y-118606250D02*
X31659313Y-118601996D01*
X251074891Y-91618641D02*
X257056250Y-97600000D01*
X26987484Y-107915323D02*
G75*
G03*
X27573286Y-109329536I2000016J23D01*
G01*
X33554616Y-116139305D02*
G75*
G03*
X32968842Y-114725092I-2000016J5D01*
G01*
X28168513Y-91032860D02*
G75*
G03*
X26987500Y-92213867I-3J-1181010D01*
G01*
X33201525Y-118602028D02*
G75*
G03*
X33554628Y-118248893I-25J353128D01*
G01*
X251074912Y-91618620D02*
G75*
G03*
X249660677Y-91032854I-1414212J-1414280D01*
G01*
%TO.N,COL13*%
X28306250Y-118106250D02*
X32330422Y-118106250D01*
X278924537Y-95655787D02*
X280868750Y-97600000D01*
X32205684Y-114755684D02*
X27102700Y-109652700D01*
X27612839Y-90632854D02*
X249826362Y-90632854D01*
X32791470Y-117645202D02*
X32791470Y-116169897D01*
X26516914Y-108238487D02*
X26516914Y-91728779D01*
X255920363Y-95070000D02*
X277510323Y-95070000D01*
X251240575Y-91218640D02*
X254506150Y-94484214D01*
X32330422Y-118106270D02*
G75*
G03*
X32791470Y-117645202I-22J461070D01*
G01*
X27612839Y-90632914D02*
G75*
G03*
X26516914Y-91728779I-39J-1095886D01*
G01*
X251240604Y-91218611D02*
G75*
G03*
X249826362Y-90632854I-1414204J-1414289D01*
G01*
X278924526Y-95655798D02*
G75*
G03*
X277510323Y-95070000I-1414226J-1414202D01*
G01*
X32791480Y-116169897D02*
G75*
G03*
X32205683Y-114755685I-1999980J-3D01*
G01*
X26516920Y-108238487D02*
G75*
G03*
X27102701Y-109652699I1999980J-13D01*
G01*
X254506168Y-94484196D02*
G75*
G03*
X255920363Y-95070000I1414232J1414196D01*
G01*
%TO.N,COL14*%
X293846250Y-83185000D02*
X293846250Y-60960000D01*
X24981617Y-87430610D02*
X25397756Y-87430610D01*
X25400000Y-87432854D02*
X248635290Y-87432854D01*
X250049504Y-86847067D02*
X250649684Y-86246887D01*
X25397756Y-87430610D02*
X25400000Y-87432854D01*
X22393750Y-115693750D02*
X22393750Y-90018477D01*
X252063897Y-85661101D02*
X291370150Y-85661100D01*
X252063897Y-85661099D02*
G75*
G03*
X250649684Y-86246887I3J-2000001D01*
G01*
X248635290Y-87432860D02*
G75*
G03*
X250049504Y-86847067I10J1999960D01*
G01*
X291370150Y-85661150D02*
G75*
G03*
X293846250Y-83185000I-50J2476150D01*
G01*
X24981617Y-87430610D02*
G75*
G03*
X22393750Y-90018477I3J-2587870D01*
G01*
%TO.N,COL4*%
X97112390Y-94818640D02*
X99893750Y-97600000D01*
X32119369Y-107324170D02*
X39101714Y-114306514D01*
X25397908Y-125414050D02*
X25394278Y-125411967D01*
X31533582Y-105909956D02*
X31533582Y-95055648D01*
X25392167Y-125408355D02*
X25393750Y-125406250D01*
X25394278Y-125411967D02*
X25392167Y-125408355D01*
X25489674Y-125684180D02*
X25431418Y-125583286D01*
X25401262Y-125470752D02*
X25400000Y-125412500D01*
X25393750Y-125406250D02*
X25393750Y-124018750D01*
X25785498Y-125854944D02*
X25672960Y-125824801D01*
X25400000Y-125412500D02*
X25397908Y-125414050D01*
X39687500Y-115720727D02*
X39687500Y-125299658D01*
X25672960Y-125824801D02*
X25572060Y-125766557D01*
X25431418Y-125583286D02*
X25401262Y-125470752D01*
X39130908Y-125856250D02*
X25866167Y-125856250D01*
X32356376Y-94232854D02*
X95698177Y-94232854D01*
X25821339Y-125855748D02*
X25785498Y-125854944D01*
X25572060Y-125766557D02*
X25489674Y-125684180D01*
X32356376Y-94232782D02*
G75*
G03*
X31533582Y-95055648I24J-822818D01*
G01*
X25821339Y-125855748D02*
G75*
G03*
X25866167Y-125856250I44761J1993348D01*
G01*
X97112411Y-94818619D02*
G75*
G03*
X95698177Y-94232854I-1414211J-1414281D01*
G01*
X39130908Y-125856300D02*
G75*
G03*
X39687500Y-125299658I-8J556600D01*
G01*
X31533619Y-105909956D02*
G75*
G03*
X32119369Y-107324170I1999981J-44D01*
G01*
X39687480Y-115720727D02*
G75*
G03*
X39101713Y-114306515I-1999980J27D01*
G01*
%TO.N,COL5*%
X26497735Y-125456250D02*
X38396087Y-125456250D01*
X30956250Y-105968685D02*
X30956250Y-94869214D01*
X25893750Y-124018750D02*
X25893750Y-124852265D01*
X38307964Y-114469868D02*
X31769048Y-107930952D01*
X115762390Y-94418640D02*
X118943750Y-97600000D01*
X31992610Y-93832854D02*
X114348177Y-93832854D01*
X38893750Y-124958587D02*
X38893750Y-115884081D01*
X25893750Y-124852265D02*
G75*
G03*
X26497735Y-125456250I603950J-35D01*
G01*
X30956257Y-105968685D02*
G75*
G03*
X31769048Y-107930952I2775043J-15D01*
G01*
X38893777Y-115884081D02*
G75*
G03*
X38307963Y-114469869I-1999977J-19D01*
G01*
X115762411Y-94418619D02*
G75*
G03*
X114348177Y-93832854I-1414211J-1414281D01*
G01*
X31992610Y-93832850D02*
G75*
G03*
X30956250Y-94869214I-10J-1036350D01*
G01*
X38396087Y-125456250D02*
G75*
G03*
X38893750Y-124958587I13J497650D01*
G01*
%TO.N,COL6*%
X31474696Y-93432854D02*
X132998177Y-93432854D01*
X37514214Y-114507964D02*
X30916218Y-107909968D01*
X134412390Y-94018640D02*
X137993750Y-97600000D01*
X38100000Y-124472355D02*
X38100000Y-115922177D01*
X30330431Y-106495754D02*
X30330431Y-94577119D01*
X26393750Y-124018750D02*
X26393750Y-124786580D01*
X26663420Y-125056250D02*
X37516105Y-125056250D01*
X38100016Y-115922177D02*
G75*
G03*
X37514214Y-114507964I-2000016J-23D01*
G01*
X30330455Y-106495754D02*
G75*
G03*
X30916218Y-107909968I1999945J-46D01*
G01*
X37516105Y-125056300D02*
G75*
G03*
X38100000Y-124472355I-5J583900D01*
G01*
X31474696Y-93432831D02*
G75*
G03*
X30330431Y-94577119I4J-1144269D01*
G01*
X134412411Y-94018619D02*
G75*
G03*
X132998177Y-93432854I-1414211J-1414281D01*
G01*
X26393750Y-124786580D02*
G75*
G03*
X26663420Y-125056250I269650J-20D01*
G01*
%TO.N,COL7*%
X30990669Y-93032854D02*
X151648177Y-93032854D01*
X37306250Y-123366951D02*
X37306250Y-115922177D01*
X36720464Y-114507964D02*
X30334653Y-108122153D01*
X26893750Y-124018750D02*
X36654451Y-124018750D01*
X153062390Y-93618640D02*
X157043750Y-97600000D01*
X29748866Y-106707939D02*
X29748866Y-94274657D01*
X153062411Y-93618619D02*
G75*
G03*
X151648177Y-93032854I-1414211J-1414281D01*
G01*
X36654451Y-124018750D02*
G75*
G03*
X37306250Y-123366951I-51J651850D01*
G01*
X30990669Y-93032856D02*
G75*
G03*
X29748866Y-94274657I1J-1241804D01*
G01*
X29748849Y-106707939D02*
G75*
G03*
X30334653Y-108122153I2000051J39D01*
G01*
X37306280Y-115922177D02*
G75*
G03*
X36720463Y-114507965I-1999980J-23D01*
G01*
%TO.N,COL8*%
X176093750Y-97600000D02*
X171712390Y-93218640D01*
X29780101Y-108315135D02*
X35926714Y-114461748D01*
X170298177Y-92632854D02*
X30374807Y-92632854D01*
X28306250Y-122606250D02*
X35896760Y-122606250D01*
X36512500Y-121990510D02*
X36512500Y-115875961D01*
X29194315Y-93813346D02*
X29194315Y-106900922D01*
X171712411Y-93218619D02*
G75*
G03*
X170298177Y-92632854I-1414211J-1414281D01*
G01*
X35896760Y-122606200D02*
G75*
G03*
X36512500Y-121990510I40J615700D01*
G01*
X30374807Y-92632815D02*
G75*
G03*
X29194315Y-93813346I-7J-1180485D01*
G01*
X36512527Y-115875961D02*
G75*
G03*
X35926714Y-114461748I-2000027J-39D01*
G01*
X29194296Y-106900922D02*
G75*
G03*
X29780102Y-108315134I2000004J22D01*
G01*
%TO.N,COL9*%
X190362390Y-92818640D02*
X195143750Y-97600000D01*
X29664130Y-92232854D02*
X188948177Y-92232854D01*
X35718750Y-121598032D02*
X35718750Y-115922177D01*
X35132964Y-114507964D02*
X29296009Y-108671009D01*
X28306250Y-122106250D02*
X35210532Y-122106250D01*
X28710222Y-107256795D02*
X28710222Y-93186762D01*
X35718780Y-115922177D02*
G75*
G03*
X35132963Y-114507965I-1999980J-23D01*
G01*
X29664130Y-92232922D02*
G75*
G03*
X28710222Y-93186762I-30J-953878D01*
G01*
X190362411Y-92818619D02*
G75*
G03*
X188948177Y-92232854I-1414211J-1414281D01*
G01*
X28710220Y-107256795D02*
G75*
G03*
X29296010Y-108671008I1999980J-5D01*
G01*
X35210532Y-122106250D02*
G75*
G03*
X35718750Y-121598032I-32J508250D01*
G01*
%TO.N,COL10*%
X28123398Y-92844254D02*
X28123398Y-107463721D01*
X34925000Y-115922177D02*
X34925000Y-119062500D01*
X214193750Y-97600000D02*
X209012391Y-92418641D01*
X34381250Y-119606250D02*
X28306250Y-119606250D01*
X207598177Y-91832854D02*
X29134798Y-91832854D01*
X28709184Y-108877934D02*
X34339214Y-114507964D01*
X29134798Y-91832898D02*
G75*
G03*
X28123398Y-92844254I2J-1011402D01*
G01*
X34925016Y-115922177D02*
G75*
G03*
X34339214Y-114507964I-2000016J-23D01*
G01*
X34381250Y-119606300D02*
G75*
G03*
X34925000Y-119062500I-50J543800D01*
G01*
X28123384Y-107463721D02*
G75*
G03*
X28709184Y-108877934I2000016J21D01*
G01*
X209012412Y-92418620D02*
G75*
G03*
X207598177Y-91832854I-1414212J-1414280D01*
G01*
D33*
%TO.N,ENC_a*%
X9244854Y-33775000D02*
X32343750Y-33775000D01*
X19981250Y-120606250D02*
X8868130Y-120606250D01*
X7957750Y-119695870D02*
X7957750Y-35062104D01*
X7957750Y-119695870D02*
G75*
G03*
X8868130Y-120606250I910350J-30D01*
G01*
X9244854Y-33775000D02*
G75*
G03*
X7957750Y-35062104I-4J-1287100D01*
G01*
X32343750Y-33775050D02*
G75*
G03*
X33218750Y-32900000I-50J875050D01*
G01*
%TO.N,ENC_b*%
X9431250Y-34225000D02*
X36893750Y-34225000D01*
X8407750Y-119532750D02*
X8407750Y-35248500D01*
X19981250Y-120106250D02*
X8981250Y-120106250D01*
X36893750Y-34225050D02*
G75*
G03*
X38218750Y-32900000I-50J1325050D01*
G01*
X8407750Y-119532750D02*
G75*
G03*
X8981250Y-120106250I573450J-50D01*
G01*
X9431250Y-34225000D02*
G75*
G03*
X8407750Y-35248500I0J-1023500D01*
G01*
%TO.N,GND*%
X182562500Y-36168750D02*
X129259961Y-36168750D01*
X283368750Y-109100000D02*
X283368750Y-127793750D01*
X187505181Y-31575000D02*
X277281250Y-31575000D01*
X86162500Y-56131250D02*
X87625000Y-56131250D01*
X7507750Y-32973500D02*
X7507750Y-127329323D01*
X182564600Y-36170850D02*
X182562500Y-36168750D01*
X31767500Y-120313728D02*
X31767500Y-121284653D01*
X10338750Y-55255702D02*
X10338750Y-113915422D01*
X28306250Y-120606250D02*
X25722177Y-120606250D01*
X8906250Y-31575000D02*
X34393750Y-31575000D01*
X9712427Y-129534000D02*
X18256250Y-129534000D01*
X18587500Y-113525000D02*
X18587500Y-112404740D01*
X18256250Y-129534000D02*
X148634750Y-129534000D01*
X18587500Y-124618750D02*
X18587500Y-123825000D01*
X82137500Y-54681250D02*
X78680082Y-54681250D01*
X86162500Y-50231250D02*
X87625000Y-50231250D01*
X32875000Y-120650000D02*
X32103772Y-120650000D01*
X17462500Y-128740216D02*
X17462500Y-122713976D01*
X30180000Y-115887500D02*
X30180000Y-114867544D01*
D34*
X76312250Y-54772029D02*
X78148171Y-54772029D01*
D33*
X185033867Y-36170850D02*
X182564600Y-36170850D01*
X21893750Y-123031250D02*
X21893750Y-122106250D01*
X82137500Y-54681250D02*
X83550000Y-54681250D01*
X17943346Y-114331691D02*
X18472569Y-113802468D01*
X73116767Y-55470733D02*
X72323017Y-54676983D01*
X84850000Y-55981250D02*
X86012500Y-55981250D01*
X86012500Y-50381250D02*
X84247530Y-50381250D01*
X18644250Y-121940897D02*
X18235579Y-121940897D01*
X127432764Y-31575000D02*
X37043750Y-31575000D01*
X16385000Y-110331250D02*
X17770018Y-110331250D01*
X24307963Y-120020463D02*
X24143750Y-119856250D01*
X18899067Y-114133750D02*
X20175000Y-114133750D01*
X281628500Y-129534000D02*
X151402750Y-129534000D01*
X10982828Y-114559500D02*
X17393367Y-114559500D01*
X186201744Y-32878437D02*
X186201744Y-35002973D01*
X21065323Y-117606250D02*
X19981250Y-117606250D01*
D34*
X75406250Y-55562500D02*
X76115029Y-54853721D01*
D33*
X18594581Y-111155813D02*
X18594581Y-112397659D01*
X27318750Y-112930483D02*
X27318750Y-111918750D01*
X74579987Y-55952595D02*
X74280084Y-55952595D01*
X71804606Y-54462250D02*
X11132202Y-54462250D01*
D34*
X18587500Y-123825000D02*
X18701713Y-123710787D01*
X20115927Y-123125000D02*
X20637500Y-123125000D01*
D33*
X30180000Y-114867544D02*
X30178397Y-114865941D01*
X128133187Y-35041976D02*
X128133187Y-32275423D01*
X26393750Y-115693750D02*
X26393750Y-117606250D01*
X31767500Y-121284653D02*
X31772236Y-121289389D01*
X8093537Y-128743537D02*
X8298214Y-128948214D01*
D34*
X21042938Y-122957062D02*
X21893750Y-122106250D01*
D33*
X18587500Y-113525000D02*
X18587500Y-113822183D01*
X84247530Y-50381250D02*
X84146716Y-50482064D01*
X24143750Y-119856250D02*
X22479536Y-118192036D01*
X21893750Y-123031250D02*
X21893750Y-124018750D01*
X22479514Y-118192058D02*
G75*
G03*
X21065323Y-117606250I-1414214J-1414142D01*
G01*
X75050005Y-56422595D02*
G75*
G03*
X74579987Y-55952595I-470005J-5D01*
G01*
X7507720Y-127329323D02*
G75*
G03*
X8093538Y-128743536I1999980J23D01*
G01*
X17393367Y-114559472D02*
G75*
G03*
X17943345Y-114331690I33J777772D01*
G01*
D34*
X78368771Y-54992595D02*
G75*
G03*
X78148171Y-54772029I-220571J-5D01*
G01*
D33*
X18587550Y-113822183D02*
G75*
G03*
X18899067Y-114133750I311550J-17D01*
G01*
X83850050Y-54981250D02*
G75*
G03*
X84850000Y-55981250I999950J-50D01*
G01*
X281628500Y-129534050D02*
G75*
G03*
X283368750Y-127793750I0J1740250D01*
G01*
X185033867Y-36170844D02*
G75*
G03*
X186201744Y-35002973I33J1167844D01*
G01*
X24143750Y-119856250D02*
G75*
G03*
X26393750Y-117606250I0J2250000D01*
G01*
X86162500Y-50231300D02*
G75*
G03*
X86012500Y-50381250I0J-150000D01*
G01*
X128133250Y-35041976D02*
G75*
G03*
X129259961Y-36168750I1126750J-24D01*
G01*
X17462500Y-128740216D02*
G75*
G03*
X18256250Y-129534000I793800J16D01*
G01*
X18594550Y-111155813D02*
G75*
G03*
X17770018Y-110331250I-824550J13D01*
G01*
D34*
X75406262Y-55562512D02*
G75*
G03*
X75049987Y-56422595I860038J-860088D01*
G01*
D33*
X73116771Y-55470729D02*
G75*
G03*
X74280084Y-55952595I1163329J1163329D01*
G01*
X83850050Y-54981250D02*
G75*
G03*
X83550000Y-54681250I-300050J-50D01*
G01*
X86012450Y-55981250D02*
G75*
G03*
X86162500Y-56131250I150050J50D01*
G01*
X31767500Y-120313728D02*
G75*
G03*
X32103772Y-120650000I336300J28D01*
G01*
X10338700Y-113915422D02*
G75*
G03*
X10982828Y-114559500I644100J22D01*
G01*
D34*
X20115927Y-123125020D02*
G75*
G03*
X18701714Y-123710788I-27J-1999980D01*
G01*
D33*
X18587500Y-112404781D02*
G75*
G03*
X18594581Y-112397659I0J7081D01*
G01*
X11132202Y-54462250D02*
G75*
G03*
X10338750Y-55255702I-2J-793450D01*
G01*
X148634750Y-129533950D02*
G75*
G03*
X150018750Y-128150000I50J1383950D01*
G01*
X18472569Y-113802468D02*
G75*
G03*
X18587500Y-113525000I-277469J277468D01*
G01*
X24307985Y-120020441D02*
G75*
G03*
X25722177Y-120606250I1414215J1414141D01*
G01*
X18235579Y-121940900D02*
G75*
G03*
X17462500Y-122713976I21J-773100D01*
G01*
D34*
X76312250Y-54772053D02*
G75*
G03*
X76115029Y-54853721I-50J-278847D01*
G01*
D33*
X150018700Y-128150000D02*
G75*
G03*
X151402750Y-129534000I1384000J0D01*
G01*
X8298200Y-128948228D02*
G75*
G03*
X9712427Y-129534000I1414200J1414228D01*
G01*
X187505181Y-31574944D02*
G75*
G03*
X186201744Y-32878437I19J-1303456D01*
G01*
X278606200Y-32900000D02*
G75*
G03*
X277281250Y-31575000I-1325000J0D01*
G01*
X78680082Y-54681237D02*
G75*
G03*
X78368737Y-54992595I18J-311363D01*
G01*
X37043750Y-31574950D02*
G75*
G03*
X35718750Y-32900000I50J-1325050D01*
G01*
X72323015Y-54676985D02*
G75*
G03*
X71804606Y-54462250I-518415J-518415D01*
G01*
D34*
X20637500Y-123124992D02*
G75*
G03*
X21042937Y-122957061I0J573392D01*
G01*
D33*
X35718700Y-32900000D02*
G75*
G03*
X34393750Y-31575000I-1325000J0D01*
G01*
X128133200Y-32275423D02*
G75*
G03*
X127432764Y-31575000I-700400J23D01*
G01*
X8906250Y-31575000D02*
G75*
G03*
X7507750Y-32973500I0J-1398500D01*
G01*
X24143750Y-119856250D02*
G75*
G03*
X21893750Y-122106250I0J-2250000D01*
G01*
D34*
%TO.N,ENC_c*%
X305982367Y-34689274D02*
X305982367Y-86305940D01*
X252560955Y-86861101D02*
X305427207Y-86861100D01*
X23893750Y-90466176D02*
X23893750Y-115693750D01*
X277406250Y-34200000D02*
X305493093Y-34200000D01*
X249132348Y-88632854D02*
X25727072Y-88632854D01*
X251146741Y-87446888D02*
X250546561Y-88047068D01*
X252560955Y-86861069D02*
G75*
G03*
X251146741Y-87446888I45J-2000031D01*
G01*
X276106200Y-32900000D02*
G75*
G03*
X277406250Y-34200000I1300000J0D01*
G01*
X25727072Y-88632850D02*
G75*
G03*
X23893750Y-90466176I28J-1833350D01*
G01*
X249132348Y-88632901D02*
G75*
G03*
X250546561Y-88047068I-48J2000001D01*
G01*
X305427207Y-86861067D02*
G75*
G03*
X305982367Y-86305940I-7J555167D01*
G01*
X305982400Y-34689274D02*
G75*
G03*
X305493093Y-34200000I-489300J-26D01*
G01*
%TO.N,ENC_d*%
X24393750Y-90724358D02*
X24393750Y-115693750D01*
X282006250Y-33800000D02*
X305492300Y-33800000D01*
X306382367Y-34690067D02*
X306382367Y-86769793D01*
X305891060Y-87261100D02*
X252726640Y-87261101D01*
X249298033Y-89032854D02*
X26085254Y-89032854D01*
X251312427Y-87846887D02*
X250712247Y-88447067D01*
X249298033Y-89032890D02*
G75*
G03*
X250712246Y-88447066I-33J1999990D01*
G01*
X305891060Y-87261067D02*
G75*
G03*
X306382367Y-86769793I40J491267D01*
G01*
X306382400Y-34690067D02*
G75*
G03*
X305492300Y-33800000I-890100J-33D01*
G01*
X26085254Y-89032850D02*
G75*
G03*
X24393750Y-90724358I46J-1691550D01*
G01*
X252726640Y-87261130D02*
G75*
G03*
X251312428Y-87846888I-40J-1999970D01*
G01*
X281106300Y-32900000D02*
G75*
G03*
X282006250Y-33800000I900000J0D01*
G01*
%TO.N,ENC_e*%
X32028313Y-117349050D02*
X32028313Y-116200490D01*
X251232378Y-89647068D02*
X251832559Y-89046887D01*
X31442527Y-114786277D02*
X26578088Y-109921838D01*
X253246773Y-88461100D02*
X305948600Y-88461100D01*
X305743750Y-107800000D02*
X282168750Y-107800000D01*
X306387500Y-88900000D02*
X306387500Y-107156250D01*
X27003215Y-90232854D02*
X249818165Y-90232854D01*
X25992301Y-108507624D02*
X25992301Y-91243768D01*
X28306250Y-117606250D02*
X31771113Y-117606250D01*
X249818165Y-90232842D02*
G75*
G03*
X251232378Y-89647068I35J1999942D01*
G01*
X306387500Y-88900000D02*
G75*
G03*
X305948600Y-88461100I-438900J0D01*
G01*
X305743750Y-107800000D02*
G75*
G03*
X306387500Y-107156250I50J643700D01*
G01*
X32028316Y-116200490D02*
G75*
G03*
X31442527Y-114786277I-2000016J-10D01*
G01*
X253246773Y-88461081D02*
G75*
G03*
X251832559Y-89046887I27J-2000019D01*
G01*
X25992284Y-108507624D02*
G75*
G03*
X26578088Y-109921838I2000016J24D01*
G01*
X27003215Y-90232901D02*
G75*
G03*
X25992301Y-91243768I-15J-1010899D01*
G01*
X31771113Y-117606313D02*
G75*
G03*
X32028313Y-117349050I-13J257213D01*
G01*
X282168750Y-107800050D02*
G75*
G03*
X280868750Y-109100000I-50J-1299950D01*
G01*
%TO.N,ENC_f*%
X306037934Y-88061100D02*
X253081088Y-88061100D01*
X25893750Y-114853489D02*
X25893750Y-115693750D01*
X249652480Y-89832854D02*
X26587884Y-89832854D01*
X25546408Y-114356088D02*
X25787642Y-114597322D01*
X306787500Y-107172261D02*
X306787500Y-88810666D01*
X286768750Y-108200000D02*
X305759761Y-108200000D01*
X25400000Y-91020738D02*
X25400000Y-114002628D01*
X251666874Y-88646887D02*
X251066694Y-89247067D01*
X25399990Y-114002628D02*
G75*
G03*
X25546408Y-114356088I499910J28D01*
G01*
X306787500Y-88810666D02*
G75*
G03*
X306037934Y-88061100I-749600J-34D01*
G01*
X253081088Y-88061092D02*
G75*
G03*
X251666874Y-88646887I12J-2000008D01*
G01*
X26587884Y-89832800D02*
G75*
G03*
X25400000Y-91020738I16J-1187900D01*
G01*
X25893764Y-114853489D02*
G75*
G03*
X25787641Y-114597323I-362264J-11D01*
G01*
X286768750Y-108199950D02*
G75*
G03*
X285868750Y-109100000I50J-900050D01*
G01*
X305759761Y-108200000D02*
G75*
G03*
X306787500Y-107172261I39J1027700D01*
G01*
X249652480Y-89832853D02*
G75*
G03*
X251066694Y-89247067I20J1999953D01*
G01*
%TO.N,ENC_g*%
X19843750Y-128656249D02*
X76096573Y-128656250D01*
X19840489Y-128652988D02*
X18641315Y-128652988D01*
X18510175Y-122640397D02*
X19947103Y-122640397D01*
X147518750Y-128150000D02*
X147518750Y-126818441D01*
X79234463Y-126346787D02*
X77510786Y-128070464D01*
X146461309Y-125761000D02*
X80648677Y-125761000D01*
X17887500Y-127899173D02*
X17887500Y-123263072D01*
X147518700Y-126818441D02*
G75*
G03*
X146461309Y-125761000I-1057400J41D01*
G01*
X76096573Y-128656245D02*
G75*
G03*
X77510786Y-128070464I27J1999945D01*
G01*
X19947103Y-122640450D02*
G75*
G03*
X19981250Y-122606250I-3J34150D01*
G01*
X19843712Y-128656248D02*
G75*
G03*
X19840489Y-128652988I-3212J48D01*
G01*
X17887512Y-127899173D02*
G75*
G03*
X18641315Y-128652988I753788J-27D01*
G01*
X18510175Y-122640400D02*
G75*
G03*
X17887500Y-123263072I25J-622700D01*
G01*
X80648677Y-125760984D02*
G75*
G03*
X79234463Y-126346787I23J-2000016D01*
G01*
%TO.N,ENC_h*%
X22393750Y-124018750D02*
X22393750Y-127404152D01*
X80482991Y-125361000D02*
X150812500Y-125361000D01*
X77345102Y-127670463D02*
X79068777Y-125946787D01*
X152518750Y-128150000D02*
X152518750Y-127067250D01*
X23245848Y-128256250D02*
X75930888Y-128256250D01*
X75930888Y-128256256D02*
G75*
G03*
X77345102Y-127670463I12J1999956D01*
G01*
X152518700Y-127067250D02*
G75*
G03*
X150812500Y-125361000I-1706200J50D01*
G01*
X22393750Y-127404152D02*
G75*
G03*
X23245848Y-128256250I852100J2D01*
G01*
X80482991Y-125360994D02*
G75*
G03*
X79068777Y-125946787I9J-2000006D01*
G01*
D35*
%TO.N,+3V3*%
X10318750Y-115075000D02*
X18587500Y-115075000D01*
D33*
X17725000Y-107875000D02*
X17725000Y-109526630D01*
X29220000Y-115887500D02*
X28112500Y-115887500D01*
X28306250Y-121106250D02*
X29717750Y-121106250D01*
D35*
X73606237Y-54992595D02*
X73203696Y-54590054D01*
X73203696Y-54590054D02*
X73455967Y-54842325D01*
X73203696Y-54590054D02*
X72793131Y-54179489D01*
D33*
X30812236Y-121289389D02*
X30248771Y-121289389D01*
X19547500Y-124618750D02*
X19547500Y-124452500D01*
X27318750Y-113890483D02*
X27318750Y-115093750D01*
D35*
X18587500Y-115075000D02*
X20156250Y-115075000D01*
X20156250Y-115075000D02*
X20175000Y-115093750D01*
X9823250Y-55042174D02*
X9823250Y-114579500D01*
X19989044Y-116145812D02*
X19981250Y-116153606D01*
X73606237Y-54992595D02*
X73818750Y-54992595D01*
X73818750Y-54992595D02*
X74579987Y-54992595D01*
D33*
X28112500Y-115887500D02*
X28112500Y-116912500D01*
X17725000Y-107875000D02*
X17725000Y-101675000D01*
D35*
X19981250Y-116153606D02*
X19981250Y-117065750D01*
D33*
X20175000Y-123825000D02*
X21200000Y-123825000D01*
X28112500Y-115887500D02*
X27087500Y-115887500D01*
D35*
X72231250Y-53946750D02*
X10918674Y-53946750D01*
X20175000Y-115093750D02*
X20175000Y-115959856D01*
D33*
X17725000Y-109526630D02*
X17728276Y-109529906D01*
D35*
X18587500Y-115075000D02*
X18918232Y-115075000D01*
D33*
X27318750Y-115093750D02*
G75*
G03*
X28112500Y-115887500I793750J0D01*
G01*
D35*
X19989044Y-116145900D02*
G75*
G03*
X20175000Y-115959856I-44J186000D01*
G01*
D33*
X28112450Y-116912500D02*
G75*
G03*
X28306250Y-117106250I193750J0D01*
G01*
D35*
X10918674Y-53946750D02*
G75*
G03*
X9823250Y-55042174I26J-1095450D01*
G01*
X9823300Y-114579500D02*
G75*
G03*
X10318750Y-115075000I495500J0D01*
G01*
D33*
X20175000Y-123825000D02*
G75*
G03*
X19547500Y-124452500I0J-627500D01*
G01*
D35*
X74579987Y-54992587D02*
G75*
G03*
X75049987Y-54522595I13J469987D01*
G01*
D33*
X21393700Y-124018750D02*
G75*
G03*
X21200000Y-123825000I-193700J50D01*
G01*
D35*
X72793162Y-54179458D02*
G75*
G03*
X72231250Y-53946750I-561862J-561942D01*
G01*
D33*
X29891711Y-120932309D02*
G75*
G03*
X30248771Y-121289389I357089J9D01*
G01*
D35*
X73455983Y-54842309D02*
G75*
G03*
X73818750Y-54992595I362817J362809D01*
G01*
D33*
X29717750Y-121106191D02*
G75*
G03*
X29891691Y-120932309I50J173891D01*
G01*
X26893800Y-115693750D02*
G75*
G03*
X27087500Y-115887500I193700J-50D01*
G01*
D35*
X19989000Y-116145812D02*
G75*
G03*
X18918232Y-115075000I-1070800J12D01*
G01*
D33*
%TO.N,NRST*%
X28306250Y-120106250D02*
X30600022Y-120106250D01*
X30807450Y-120313728D02*
G75*
G03*
X30600022Y-120106250I-207450J28D01*
G01*
D35*
%TO.N,+5V*%
X77788497Y-55472595D02*
X78268497Y-55952595D01*
X78368737Y-55952595D02*
X78980355Y-56564213D01*
X82137500Y-51681250D02*
X83550000Y-51681250D01*
X76924987Y-55472595D02*
X77788497Y-55472595D01*
X88106250Y-51381250D02*
X83850000Y-51381250D01*
X78268497Y-55952595D02*
X78368737Y-55952595D01*
X88900000Y-56055988D02*
X88900000Y-52175000D01*
X80394569Y-57150000D02*
X87805988Y-57150000D01*
X78980370Y-56564198D02*
G75*
G03*
X80394569Y-57150000I1414230J1414198D01*
G01*
X87805988Y-57150000D02*
G75*
G03*
X88900000Y-56055988I12J1094000D01*
G01*
X88899950Y-52175000D02*
G75*
G03*
X88106250Y-51381250I-793750J0D01*
G01*
X83550000Y-51681200D02*
G75*
G03*
X83850000Y-51381250I0J300000D01*
G01*
D33*
%TO.N,D_N*%
X8857750Y-117601500D02*
X8857750Y-54642250D01*
X19981250Y-119106250D02*
X10362500Y-119106250D01*
X10568750Y-52931250D02*
X81887500Y-52931250D01*
X83750000Y-52681250D02*
X82137500Y-52681250D01*
X8857750Y-117601500D02*
G75*
G03*
X10362500Y-119106250I1504750J0D01*
G01*
X10568750Y-52931250D02*
G75*
G03*
X8857750Y-54642250I0J-1711000D01*
G01*
X83750000Y-52681300D02*
G75*
G03*
X83850000Y-52581250I0J100000D01*
G01*
X82137500Y-52681200D02*
G75*
G03*
X81887500Y-52931250I0J-250000D01*
G01*
%TO.N,D_P*%
X81887500Y-53431250D02*
X81887500Y-53565976D01*
X9307750Y-117600758D02*
X9307750Y-54828646D01*
X83750000Y-53681250D02*
X82137500Y-53681250D01*
X82002774Y-53681250D02*
X82137500Y-53681250D01*
X19981250Y-118606250D02*
X10313242Y-118606250D01*
X10705146Y-53431250D02*
X81887500Y-53431250D01*
X81887550Y-53565976D02*
G75*
G03*
X82002774Y-53681250I115250J-24D01*
G01*
X10705146Y-53431250D02*
G75*
G03*
X9307750Y-54828646I4J-1397400D01*
G01*
X9307750Y-117600758D02*
G75*
G03*
X10313242Y-118606250I1005490J-2D01*
G01*
X83849950Y-53781250D02*
G75*
G03*
X83750000Y-53681250I-99950J50D01*
G01*
%TO.N,BOOT0*%
X15365000Y-110331250D02*
X15365000Y-111437565D01*
D34*
X24893750Y-117187500D02*
X24893750Y-115693750D01*
D33*
X14025000Y-107875000D02*
X14025000Y-108991250D01*
X15365000Y-111437565D02*
X15362213Y-111440352D01*
X14025000Y-101675000D02*
X14025000Y-107875000D01*
X14025000Y-108991250D02*
G75*
G03*
X15365000Y-110331250I1340000J0D01*
G01*
D34*
X24606250Y-117475050D02*
G75*
G03*
X24893750Y-117187500I-50J287550D01*
G01*
%TD*%
%TA.AperFunction,Conductor*%
%TO.N,GND*%
G36*
X20949641Y-114746854D02*
G01*
X21008048Y-114761542D01*
X21052647Y-114802016D01*
X21072915Y-114858730D01*
X21064413Y-114916005D01*
X21059235Y-114923755D01*
X21056852Y-114935730D01*
X21056851Y-114935735D01*
X21044439Y-114998136D01*
X21044438Y-114998142D01*
X21043250Y-115004117D01*
X21043250Y-115010211D01*
X21043250Y-115010212D01*
X21043250Y-116377292D01*
X21043250Y-116377302D01*
X21043251Y-116383382D01*
X21044437Y-116389346D01*
X21044438Y-116389353D01*
X21056852Y-116451768D01*
X21056853Y-116451771D01*
X21059235Y-116463745D01*
X21120126Y-116554874D01*
X21211255Y-116615765D01*
X21291617Y-116631750D01*
X21495882Y-116631749D01*
X21576245Y-116615765D01*
X21586401Y-116608978D01*
X21596297Y-116604880D01*
X21643750Y-116595441D01*
X21691202Y-116604880D01*
X21701100Y-116608979D01*
X21711255Y-116615765D01*
X21791617Y-116631750D01*
X21995882Y-116631749D01*
X22076245Y-116615765D01*
X22086401Y-116608978D01*
X22096297Y-116604880D01*
X22143750Y-116595441D01*
X22191202Y-116604880D01*
X22201100Y-116608979D01*
X22211255Y-116615765D01*
X22291617Y-116631750D01*
X22495882Y-116631749D01*
X22576245Y-116615765D01*
X22586401Y-116608978D01*
X22596297Y-116604880D01*
X22643750Y-116595441D01*
X22691202Y-116604880D01*
X22701100Y-116608979D01*
X22711255Y-116615765D01*
X22791617Y-116631750D01*
X22995882Y-116631749D01*
X23076245Y-116615765D01*
X23086401Y-116608978D01*
X23096297Y-116604880D01*
X23143750Y-116595441D01*
X23191202Y-116604880D01*
X23201100Y-116608979D01*
X23211255Y-116615765D01*
X23291617Y-116631750D01*
X23495882Y-116631749D01*
X23576245Y-116615765D01*
X23586401Y-116608978D01*
X23596297Y-116604880D01*
X23643750Y-116595441D01*
X23691202Y-116604880D01*
X23701100Y-116608979D01*
X23711255Y-116615765D01*
X23791617Y-116631750D01*
X23995882Y-116631749D01*
X24076245Y-116615765D01*
X24086401Y-116608978D01*
X24096297Y-116604880D01*
X24143750Y-116595441D01*
X24191202Y-116604880D01*
X24201100Y-116608979D01*
X24211255Y-116615765D01*
X24291617Y-116631750D01*
X24469249Y-116631749D01*
X24531250Y-116648362D01*
X24576637Y-116693749D01*
X24593250Y-116755749D01*
X24593250Y-116762284D01*
X24579240Y-116819540D01*
X24540374Y-116863858D01*
X24485436Y-116885223D01*
X24457548Y-116888894D01*
X24457541Y-116888895D01*
X24449488Y-116889956D01*
X24441978Y-116893066D01*
X24441977Y-116893067D01*
X24310916Y-116947354D01*
X24310912Y-116947355D01*
X24303409Y-116950464D01*
X24296964Y-116955408D01*
X24296961Y-116955411D01*
X24184414Y-117041771D01*
X24184410Y-117041774D01*
X24177968Y-117046718D01*
X24173024Y-117053160D01*
X24173021Y-117053164D01*
X24086661Y-117165711D01*
X24086658Y-117165714D01*
X24081714Y-117172159D01*
X24078605Y-117179662D01*
X24078604Y-117179666D01*
X24024316Y-117310728D01*
X24024314Y-117310733D01*
X24021206Y-117318238D01*
X24020146Y-117326289D01*
X24020144Y-117326297D01*
X24007314Y-117423755D01*
X24000568Y-117475000D01*
X24001629Y-117483059D01*
X24020144Y-117623702D01*
X24020145Y-117623708D01*
X24021206Y-117631762D01*
X24024315Y-117639268D01*
X24024316Y-117639271D01*
X24072564Y-117755751D01*
X24081714Y-117777841D01*
X24177968Y-117903282D01*
X24303409Y-117999536D01*
X24449488Y-118060044D01*
X24606250Y-118080682D01*
X24763012Y-118060044D01*
X24909091Y-117999536D01*
X25034532Y-117903282D01*
X25130786Y-117777841D01*
X25191294Y-117631762D01*
X25211932Y-117475000D01*
X25191294Y-117318238D01*
X25192240Y-117318113D01*
X25191280Y-117266766D01*
X25194251Y-117253750D01*
X25194250Y-117187500D01*
X25194250Y-117139905D01*
X25194250Y-116755749D01*
X25210863Y-116693750D01*
X25256250Y-116648363D01*
X25318249Y-116631750D01*
X25457860Y-116631749D01*
X25495882Y-116631749D01*
X25576245Y-116615765D01*
X25586401Y-116608978D01*
X25596297Y-116604880D01*
X25643750Y-116595441D01*
X25691202Y-116604880D01*
X25701100Y-116608979D01*
X25711255Y-116615765D01*
X25762084Y-116625875D01*
X25803368Y-116642189D01*
X25836264Y-116672004D01*
X25903711Y-116759902D01*
X25915097Y-116771288D01*
X26022321Y-116853565D01*
X26036279Y-116861623D01*
X26161130Y-116913337D01*
X26176707Y-116917511D01*
X26226197Y-116924027D01*
X26239876Y-116921921D01*
X26243750Y-116908634D01*
X26243750Y-116388460D01*
X26243916Y-116385058D01*
X26244250Y-116383383D01*
X26244249Y-115667748D01*
X26260862Y-115605750D01*
X26306249Y-115560363D01*
X26368249Y-115543750D01*
X26419250Y-115543750D01*
X26481250Y-115560363D01*
X26526637Y-115605750D01*
X26543250Y-115667750D01*
X26543250Y-116378290D01*
X26543250Y-116378310D01*
X26543251Y-116383382D01*
X26543582Y-116385049D01*
X26543750Y-116388449D01*
X26543750Y-116908634D01*
X26547623Y-116921921D01*
X26561302Y-116924027D01*
X26610792Y-116917511D01*
X26626369Y-116913337D01*
X26751220Y-116861623D01*
X26765178Y-116853565D01*
X26872402Y-116771288D01*
X26883791Y-116759899D01*
X26951235Y-116672005D01*
X26984132Y-116642189D01*
X27025421Y-116625873D01*
X27076245Y-116615765D01*
X27167374Y-116554874D01*
X27228265Y-116463745D01*
X27244250Y-116383383D01*
X27244250Y-116337000D01*
X27260863Y-116275000D01*
X27306250Y-116229613D01*
X27368250Y-116213000D01*
X27544201Y-116213000D01*
X27599045Y-116225788D01*
X27642576Y-116261513D01*
X27684218Y-116315782D01*
X27690664Y-116320728D01*
X27738486Y-116357423D01*
X27774212Y-116400955D01*
X27787000Y-116455799D01*
X27787000Y-116631751D01*
X27770387Y-116693751D01*
X27725000Y-116739138D01*
X27663000Y-116755751D01*
X27616618Y-116755751D01*
X27610654Y-116756937D01*
X27610646Y-116756938D01*
X27548231Y-116769352D01*
X27548226Y-116769353D01*
X27536255Y-116771735D01*
X27526103Y-116778517D01*
X27526101Y-116778519D01*
X27455279Y-116825841D01*
X27455276Y-116825843D01*
X27445126Y-116832626D01*
X27438343Y-116842776D01*
X27438341Y-116842779D01*
X27391019Y-116913601D01*
X27391017Y-116913603D01*
X27384235Y-116923755D01*
X27381852Y-116935731D01*
X27381852Y-116935733D01*
X27369439Y-116998136D01*
X27369438Y-116998142D01*
X27368250Y-117004117D01*
X27368250Y-117010212D01*
X27368250Y-117010213D01*
X27368250Y-117202291D01*
X27368250Y-117202300D01*
X27368251Y-117208382D01*
X27369437Y-117214345D01*
X27369438Y-117214354D01*
X27378624Y-117260537D01*
X27384235Y-117288745D01*
X27391019Y-117298899D01*
X27395120Y-117308798D01*
X27404558Y-117356248D01*
X27395121Y-117403698D01*
X27391018Y-117413602D01*
X27384235Y-117423755D01*
X27381852Y-117435730D01*
X27381851Y-117435735D01*
X27369439Y-117498136D01*
X27369438Y-117498142D01*
X27368250Y-117504117D01*
X27368250Y-117510212D01*
X27368250Y-117510213D01*
X27368250Y-117702291D01*
X27368250Y-117702300D01*
X27368251Y-117708382D01*
X27369437Y-117714345D01*
X27369438Y-117714354D01*
X27381852Y-117776768D01*
X27381853Y-117776771D01*
X27384235Y-117788745D01*
X27391017Y-117798896D01*
X27395120Y-117808800D01*
X27404558Y-117856250D01*
X27395120Y-117903700D01*
X27391017Y-117913603D01*
X27384235Y-117923755D01*
X27381853Y-117935729D01*
X27381852Y-117935732D01*
X27369439Y-117998136D01*
X27369438Y-117998142D01*
X27368250Y-118004117D01*
X27368250Y-118010212D01*
X27368250Y-118010213D01*
X27368250Y-118202291D01*
X27368250Y-118202300D01*
X27368251Y-118208382D01*
X27369437Y-118214345D01*
X27369438Y-118214354D01*
X27381852Y-118276768D01*
X27381853Y-118276771D01*
X27384235Y-118288745D01*
X27391017Y-118298896D01*
X27395120Y-118308800D01*
X27404558Y-118356250D01*
X27395120Y-118403700D01*
X27391017Y-118413603D01*
X27384235Y-118423755D01*
X27381853Y-118435729D01*
X27381852Y-118435732D01*
X27369439Y-118498136D01*
X27369438Y-118498142D01*
X27368250Y-118504117D01*
X27368250Y-118510208D01*
X27368250Y-118510213D01*
X27368250Y-118702291D01*
X27368250Y-118702300D01*
X27368251Y-118708382D01*
X27369437Y-118714345D01*
X27369438Y-118714354D01*
X27381852Y-118776768D01*
X27381853Y-118776771D01*
X27384235Y-118788745D01*
X27391017Y-118798896D01*
X27395120Y-118808800D01*
X27404558Y-118856250D01*
X27395120Y-118903700D01*
X27391017Y-118913603D01*
X27384235Y-118923755D01*
X27381853Y-118935729D01*
X27381852Y-118935732D01*
X27369439Y-118998136D01*
X27369438Y-118998142D01*
X27368250Y-119004117D01*
X27368250Y-119010208D01*
X27368250Y-119010213D01*
X27368250Y-119202291D01*
X27368250Y-119202300D01*
X27368251Y-119208382D01*
X27369437Y-119214345D01*
X27369438Y-119214354D01*
X27381852Y-119276768D01*
X27381853Y-119276771D01*
X27384235Y-119288745D01*
X27391017Y-119298896D01*
X27395120Y-119308800D01*
X27404558Y-119356250D01*
X27395120Y-119403700D01*
X27391017Y-119413603D01*
X27384235Y-119423755D01*
X27381853Y-119435729D01*
X27381852Y-119435732D01*
X27369439Y-119498136D01*
X27369438Y-119498142D01*
X27368250Y-119504117D01*
X27368250Y-119510208D01*
X27368250Y-119510213D01*
X27368250Y-119702291D01*
X27368250Y-119702300D01*
X27368251Y-119708382D01*
X27369437Y-119714345D01*
X27369438Y-119714354D01*
X27381852Y-119776768D01*
X27381853Y-119776771D01*
X27384235Y-119788745D01*
X27391017Y-119798896D01*
X27395120Y-119808800D01*
X27404558Y-119856250D01*
X27395120Y-119903700D01*
X27391017Y-119913603D01*
X27384235Y-119923755D01*
X27381853Y-119935729D01*
X27381852Y-119935732D01*
X27374125Y-119974580D01*
X27357809Y-120015868D01*
X27327995Y-120048763D01*
X27240102Y-120116206D01*
X27228711Y-120127597D01*
X27146434Y-120234821D01*
X27138376Y-120248779D01*
X27086662Y-120373630D01*
X27082488Y-120389207D01*
X27075972Y-120438697D01*
X27078078Y-120452376D01*
X27091366Y-120456250D01*
X27611540Y-120456250D01*
X27614941Y-120456416D01*
X27616617Y-120456750D01*
X28332251Y-120456749D01*
X28394250Y-120473362D01*
X28439637Y-120518749D01*
X28456250Y-120580749D01*
X28456250Y-120631750D01*
X28439637Y-120693750D01*
X28394250Y-120739137D01*
X28332250Y-120755750D01*
X27621709Y-120755750D01*
X27621688Y-120755750D01*
X27616618Y-120755751D01*
X27614950Y-120756082D01*
X27611551Y-120756250D01*
X27091366Y-120756250D01*
X27078078Y-120760123D01*
X27075972Y-120773802D01*
X27082488Y-120823292D01*
X27086662Y-120838869D01*
X27138376Y-120963720D01*
X27146434Y-120977678D01*
X27228711Y-121084902D01*
X27240097Y-121096288D01*
X27327995Y-121163735D01*
X27357809Y-121196631D01*
X27374126Y-121237921D01*
X27384235Y-121288745D01*
X27391018Y-121298897D01*
X27395120Y-121308800D01*
X27404558Y-121356250D01*
X27395120Y-121403700D01*
X27391017Y-121413603D01*
X27384235Y-121423755D01*
X27381853Y-121435729D01*
X27381852Y-121435732D01*
X27369439Y-121498136D01*
X27369438Y-121498142D01*
X27368250Y-121504117D01*
X27368250Y-121510208D01*
X27368250Y-121510213D01*
X27368250Y-121702291D01*
X27368250Y-121702300D01*
X27368251Y-121708382D01*
X27369437Y-121714345D01*
X27369438Y-121714354D01*
X27381852Y-121776768D01*
X27381853Y-121776771D01*
X27384235Y-121788745D01*
X27391017Y-121798896D01*
X27395120Y-121808800D01*
X27404558Y-121856250D01*
X27395120Y-121903700D01*
X27391017Y-121913603D01*
X27384235Y-121923755D01*
X27381853Y-121935729D01*
X27381852Y-121935732D01*
X27369439Y-121998136D01*
X27369438Y-121998142D01*
X27368250Y-122004117D01*
X27368250Y-122010208D01*
X27368250Y-122010213D01*
X27368250Y-122202291D01*
X27368250Y-122202300D01*
X27368251Y-122208382D01*
X27369437Y-122214345D01*
X27369438Y-122214354D01*
X27381852Y-122276768D01*
X27381853Y-122276771D01*
X27384235Y-122288745D01*
X27391017Y-122298896D01*
X27395120Y-122308800D01*
X27404558Y-122356250D01*
X27395120Y-122403700D01*
X27391017Y-122413603D01*
X27384235Y-122423755D01*
X27381853Y-122435729D01*
X27381852Y-122435732D01*
X27369439Y-122498136D01*
X27369438Y-122498142D01*
X27368250Y-122504117D01*
X27368250Y-122510208D01*
X27368250Y-122510213D01*
X27368250Y-122702291D01*
X27368250Y-122702300D01*
X27368251Y-122708382D01*
X27369437Y-122714345D01*
X27369438Y-122714354D01*
X27381852Y-122776768D01*
X27381853Y-122776771D01*
X27384235Y-122788745D01*
X27445126Y-122879874D01*
X27536255Y-122940765D01*
X27616617Y-122956750D01*
X28995882Y-122956749D01*
X29076245Y-122940765D01*
X29079037Y-122938899D01*
X29131608Y-122931101D01*
X29188345Y-122951401D01*
X29228813Y-122996051D01*
X29243455Y-123054504D01*
X29243455Y-123594250D01*
X29226842Y-123656250D01*
X29181455Y-123701637D01*
X29119455Y-123718250D01*
X27368249Y-123718250D01*
X27306249Y-123701637D01*
X27260862Y-123656250D01*
X27244249Y-123594250D01*
X27244249Y-123335208D01*
X27244249Y-123329118D01*
X27228265Y-123248755D01*
X27167374Y-123157626D01*
X27092535Y-123107620D01*
X27086398Y-123103519D01*
X27086397Y-123103518D01*
X27076245Y-123096735D01*
X27064267Y-123094352D01*
X27064266Y-123094352D01*
X27001863Y-123081939D01*
X27001858Y-123081938D01*
X26995883Y-123080750D01*
X26989786Y-123080750D01*
X26797708Y-123080750D01*
X26797698Y-123080750D01*
X26791618Y-123080751D01*
X26785655Y-123081937D01*
X26785645Y-123081938D01*
X26723229Y-123094353D01*
X26723227Y-123094353D01*
X26711255Y-123096735D01*
X26701106Y-123103516D01*
X26691198Y-123107620D01*
X26643748Y-123117058D01*
X26596298Y-123107620D01*
X26586399Y-123103519D01*
X26576245Y-123096735D01*
X26564267Y-123094352D01*
X26564264Y-123094351D01*
X26501863Y-123081939D01*
X26501858Y-123081938D01*
X26495883Y-123080750D01*
X26489786Y-123080750D01*
X26297708Y-123080750D01*
X26297698Y-123080750D01*
X26291618Y-123080751D01*
X26285655Y-123081937D01*
X26285645Y-123081938D01*
X26223229Y-123094353D01*
X26223227Y-123094353D01*
X26211255Y-123096735D01*
X26201106Y-123103516D01*
X26191198Y-123107620D01*
X26143748Y-123117058D01*
X26096298Y-123107620D01*
X26086399Y-123103519D01*
X26076245Y-123096735D01*
X26064267Y-123094352D01*
X26064264Y-123094351D01*
X26001863Y-123081939D01*
X26001858Y-123081938D01*
X25995883Y-123080750D01*
X25989786Y-123080750D01*
X25797708Y-123080750D01*
X25797698Y-123080750D01*
X25791618Y-123080751D01*
X25785655Y-123081937D01*
X25785645Y-123081938D01*
X25723229Y-123094353D01*
X25723227Y-123094353D01*
X25711255Y-123096735D01*
X25701106Y-123103516D01*
X25691198Y-123107620D01*
X25643748Y-123117058D01*
X25596298Y-123107620D01*
X25586399Y-123103519D01*
X25576245Y-123096735D01*
X25564267Y-123094352D01*
X25564264Y-123094351D01*
X25501863Y-123081939D01*
X25501858Y-123081938D01*
X25495883Y-123080750D01*
X25489786Y-123080750D01*
X25297708Y-123080750D01*
X25297698Y-123080750D01*
X25291618Y-123080751D01*
X25285655Y-123081937D01*
X25285645Y-123081938D01*
X25223229Y-123094353D01*
X25223227Y-123094353D01*
X25211255Y-123096735D01*
X25201106Y-123103516D01*
X25191198Y-123107620D01*
X25143748Y-123117058D01*
X25096298Y-123107620D01*
X25086399Y-123103519D01*
X25076245Y-123096735D01*
X25064267Y-123094352D01*
X25064264Y-123094351D01*
X25001863Y-123081939D01*
X25001858Y-123081938D01*
X24995883Y-123080750D01*
X24989786Y-123080750D01*
X24797708Y-123080750D01*
X24797698Y-123080750D01*
X24791618Y-123080751D01*
X24785655Y-123081937D01*
X24785645Y-123081938D01*
X24723229Y-123094353D01*
X24723227Y-123094353D01*
X24711255Y-123096735D01*
X24701106Y-123103516D01*
X24691198Y-123107620D01*
X24643748Y-123117058D01*
X24596298Y-123107620D01*
X24586399Y-123103519D01*
X24576245Y-123096735D01*
X24564267Y-123094352D01*
X24564264Y-123094351D01*
X24501863Y-123081939D01*
X24501858Y-123081938D01*
X24495883Y-123080750D01*
X24489786Y-123080750D01*
X24297708Y-123080750D01*
X24297698Y-123080750D01*
X24291618Y-123080751D01*
X24285655Y-123081937D01*
X24285645Y-123081938D01*
X24223229Y-123094353D01*
X24223227Y-123094353D01*
X24211255Y-123096735D01*
X24201106Y-123103516D01*
X24191198Y-123107620D01*
X24143748Y-123117058D01*
X24096298Y-123107620D01*
X24086399Y-123103519D01*
X24076245Y-123096735D01*
X24064267Y-123094352D01*
X24064264Y-123094351D01*
X24001863Y-123081939D01*
X24001858Y-123081938D01*
X23995883Y-123080750D01*
X23989786Y-123080750D01*
X23797708Y-123080750D01*
X23797698Y-123080750D01*
X23791618Y-123080751D01*
X23785655Y-123081937D01*
X23785645Y-123081938D01*
X23723229Y-123094353D01*
X23723227Y-123094353D01*
X23711255Y-123096735D01*
X23701106Y-123103516D01*
X23691198Y-123107620D01*
X23643748Y-123117058D01*
X23596298Y-123107620D01*
X23586399Y-123103519D01*
X23576245Y-123096735D01*
X23564267Y-123094352D01*
X23564264Y-123094351D01*
X23501863Y-123081939D01*
X23501858Y-123081938D01*
X23495883Y-123080750D01*
X23489786Y-123080750D01*
X23297708Y-123080750D01*
X23297698Y-123080750D01*
X23291618Y-123080751D01*
X23285655Y-123081937D01*
X23285645Y-123081938D01*
X23223229Y-123094353D01*
X23223227Y-123094353D01*
X23211255Y-123096735D01*
X23201106Y-123103516D01*
X23191198Y-123107620D01*
X23143748Y-123117058D01*
X23096298Y-123107620D01*
X23086399Y-123103519D01*
X23076245Y-123096735D01*
X23064267Y-123094352D01*
X23064264Y-123094351D01*
X23001863Y-123081939D01*
X23001858Y-123081938D01*
X22995883Y-123080750D01*
X22989786Y-123080750D01*
X22797708Y-123080750D01*
X22797698Y-123080750D01*
X22791618Y-123080751D01*
X22785655Y-123081937D01*
X22785645Y-123081938D01*
X22723229Y-123094353D01*
X22723227Y-123094353D01*
X22711255Y-123096735D01*
X22701106Y-123103516D01*
X22691198Y-123107620D01*
X22643748Y-123117058D01*
X22596298Y-123107620D01*
X22586399Y-123103520D01*
X22576245Y-123096735D01*
X22525419Y-123086625D01*
X22484130Y-123070309D01*
X22451235Y-123040495D01*
X22383788Y-122952597D01*
X22372402Y-122941211D01*
X22265178Y-122858934D01*
X22251220Y-122850876D01*
X22126369Y-122799162D01*
X22110792Y-122794988D01*
X22061302Y-122788472D01*
X22047623Y-122790578D01*
X22043750Y-122803866D01*
X22043750Y-123324040D01*
X22043582Y-123327444D01*
X22043250Y-123329117D01*
X22043250Y-124017337D01*
X22043251Y-124044750D01*
X22026638Y-124106750D01*
X21981251Y-124152137D01*
X21919251Y-124168750D01*
X21868250Y-124168750D01*
X21806250Y-124152137D01*
X21760863Y-124106750D01*
X21744250Y-124044750D01*
X21744249Y-123334209D01*
X21744249Y-123329118D01*
X21743916Y-123327448D01*
X21743750Y-123324051D01*
X21743750Y-122803866D01*
X21739876Y-122790578D01*
X21726197Y-122788472D01*
X21676707Y-122794988D01*
X21661130Y-122799162D01*
X21536279Y-122850876D01*
X21522321Y-122858934D01*
X21415097Y-122941211D01*
X21403706Y-122952602D01*
X21336263Y-123040495D01*
X21303368Y-123070309D01*
X21262079Y-123086625D01*
X21223235Y-123094351D01*
X21223229Y-123094353D01*
X21211255Y-123096735D01*
X21201103Y-123103517D01*
X21201101Y-123103519D01*
X21130279Y-123150841D01*
X21130276Y-123150843D01*
X21120126Y-123157626D01*
X21113343Y-123167776D01*
X21113341Y-123167779D01*
X21066019Y-123238601D01*
X21066017Y-123238603D01*
X21059235Y-123248755D01*
X21056852Y-123260731D01*
X21056852Y-123260733D01*
X21044439Y-123323136D01*
X21044438Y-123323142D01*
X21043250Y-123329117D01*
X21043250Y-123335208D01*
X21043250Y-123335213D01*
X21043250Y-123375500D01*
X21026637Y-123437500D01*
X20981250Y-123482887D01*
X20919250Y-123499500D01*
X20743299Y-123499500D01*
X20688455Y-123486712D01*
X20644923Y-123450986D01*
X20608228Y-123403164D01*
X20603282Y-123396718D01*
X20477841Y-123300464D01*
X20470333Y-123297354D01*
X20339271Y-123243066D01*
X20339268Y-123243065D01*
X20331762Y-123239956D01*
X20323708Y-123238895D01*
X20323702Y-123238894D01*
X20183059Y-123220379D01*
X20175000Y-123219318D01*
X20166941Y-123220379D01*
X20026297Y-123238894D01*
X20026289Y-123238896D01*
X20018238Y-123239956D01*
X20010733Y-123243064D01*
X20010728Y-123243066D01*
X19879666Y-123297354D01*
X19879662Y-123297355D01*
X19872159Y-123300464D01*
X19865714Y-123305408D01*
X19865711Y-123305411D01*
X19753164Y-123391771D01*
X19753160Y-123391774D01*
X19746718Y-123396718D01*
X19741774Y-123403160D01*
X19741771Y-123403164D01*
X19655411Y-123515711D01*
X19655408Y-123515714D01*
X19650464Y-123522159D01*
X19647355Y-123529662D01*
X19647354Y-123529666D01*
X19593065Y-123660729D01*
X19593062Y-123660738D01*
X19589956Y-123668238D01*
X19589399Y-123672464D01*
X19575540Y-123703961D01*
X19550667Y-123732323D01*
X19498553Y-123776053D01*
X19495079Y-123780192D01*
X19495074Y-123780198D01*
X19394845Y-123899647D01*
X19394841Y-123899652D01*
X19391366Y-123903794D01*
X19388664Y-123908473D01*
X19388659Y-123908481D01*
X19360993Y-123956400D01*
X19322497Y-123997501D01*
X19269791Y-124017337D01*
X19213748Y-124011817D01*
X19165926Y-123982079D01*
X19128393Y-123944546D01*
X19116160Y-123935057D01*
X19109120Y-123930893D01*
X19064425Y-123885406D01*
X19048247Y-123823724D01*
X19050952Y-123064452D01*
X19067711Y-123002642D01*
X19113079Y-122957436D01*
X19174951Y-122940897D01*
X19199708Y-122940897D01*
X19223899Y-122943280D01*
X19291617Y-122956750D01*
X20670882Y-122956749D01*
X20751245Y-122940765D01*
X20842374Y-122879874D01*
X20903265Y-122788745D01*
X20919250Y-122708383D01*
X20919249Y-122504118D01*
X20903265Y-122423755D01*
X20896478Y-122413598D01*
X20892379Y-122403701D01*
X20882941Y-122356248D01*
X20892380Y-122308796D01*
X20896478Y-122298902D01*
X20903265Y-122288745D01*
X20919250Y-122208383D01*
X20919249Y-122004118D01*
X20903265Y-121923755D01*
X20896478Y-121913598D01*
X20892379Y-121903701D01*
X20882941Y-121856248D01*
X20892380Y-121808796D01*
X20896478Y-121798902D01*
X20903265Y-121788745D01*
X20919250Y-121708383D01*
X20919249Y-121504118D01*
X20903265Y-121423755D01*
X20896478Y-121413598D01*
X20892379Y-121403701D01*
X20882941Y-121356248D01*
X20892380Y-121308796D01*
X20896478Y-121298902D01*
X20903265Y-121288745D01*
X20919250Y-121208383D01*
X20919249Y-121004118D01*
X20903265Y-120923755D01*
X20896478Y-120913598D01*
X20892379Y-120903701D01*
X20882941Y-120856248D01*
X20892380Y-120808796D01*
X20896478Y-120798902D01*
X20903265Y-120788745D01*
X20919250Y-120708383D01*
X20919249Y-120504118D01*
X20903265Y-120423755D01*
X20896476Y-120413595D01*
X20892379Y-120403703D01*
X20882940Y-120356248D01*
X20892380Y-120308794D01*
X20896476Y-120298904D01*
X20903265Y-120288745D01*
X20919250Y-120208383D01*
X20919249Y-120004118D01*
X20903265Y-119923755D01*
X20896478Y-119913598D01*
X20892379Y-119903701D01*
X20882941Y-119856248D01*
X20892380Y-119808796D01*
X20896478Y-119798902D01*
X20903265Y-119788745D01*
X20919250Y-119708383D01*
X20919249Y-119504118D01*
X20903265Y-119423755D01*
X20896478Y-119413598D01*
X20892379Y-119403701D01*
X20882941Y-119356248D01*
X20892380Y-119308796D01*
X20896478Y-119298902D01*
X20903265Y-119288745D01*
X20919250Y-119208383D01*
X20919249Y-119004118D01*
X20903265Y-118923755D01*
X20896478Y-118913598D01*
X20892379Y-118903701D01*
X20882941Y-118856248D01*
X20892380Y-118808796D01*
X20896478Y-118798902D01*
X20903265Y-118788745D01*
X20919250Y-118708383D01*
X20919249Y-118504118D01*
X20903265Y-118423755D01*
X20896478Y-118413598D01*
X20892379Y-118403701D01*
X20882941Y-118356248D01*
X20892380Y-118308796D01*
X20896477Y-118298902D01*
X20903265Y-118288745D01*
X20913376Y-118237913D01*
X20929690Y-118196631D01*
X20959505Y-118163735D01*
X21047399Y-118096291D01*
X21058788Y-118084902D01*
X21141065Y-117977678D01*
X21149123Y-117963720D01*
X21200837Y-117838869D01*
X21205011Y-117823292D01*
X21211527Y-117773802D01*
X21209421Y-117760123D01*
X21196134Y-117756250D01*
X20675960Y-117756250D01*
X20672556Y-117756082D01*
X20670883Y-117755750D01*
X20665781Y-117755750D01*
X20660360Y-117755750D01*
X19955248Y-117755750D01*
X19893250Y-117739138D01*
X19847863Y-117693751D01*
X19831250Y-117631751D01*
X19831250Y-117583051D01*
X19842641Y-117531135D01*
X19874722Y-117488758D01*
X19921598Y-117463705D01*
X19961851Y-117461333D01*
X19961851Y-117460097D01*
X19971609Y-117460097D01*
X19981250Y-117461624D01*
X20002386Y-117458276D01*
X20021786Y-117456749D01*
X20665791Y-117456749D01*
X20670882Y-117456749D01*
X20672551Y-117456416D01*
X20675949Y-117456250D01*
X21196134Y-117456250D01*
X21209421Y-117452376D01*
X21211527Y-117438697D01*
X21205011Y-117389207D01*
X21200837Y-117373630D01*
X21149123Y-117248779D01*
X21141065Y-117234821D01*
X21058788Y-117127597D01*
X21047402Y-117116211D01*
X20959504Y-117048764D01*
X20929689Y-117015867D01*
X20913373Y-116974577D01*
X20908577Y-116950464D01*
X20903265Y-116923755D01*
X20842374Y-116832626D01*
X20751245Y-116771735D01*
X20739267Y-116769352D01*
X20739266Y-116769352D01*
X20676863Y-116756939D01*
X20676858Y-116756938D01*
X20670883Y-116755750D01*
X20664787Y-116755750D01*
X20529383Y-116755750D01*
X20463903Y-116737051D01*
X20418171Y-116686594D01*
X20405980Y-116619596D01*
X20431005Y-116556266D01*
X20513580Y-116448653D01*
X20574088Y-116302574D01*
X20594726Y-116145812D01*
X20574088Y-115989050D01*
X20570977Y-115981541D01*
X20570225Y-115978732D01*
X20566000Y-115946639D01*
X20566000Y-115545652D01*
X20575439Y-115498199D01*
X20602319Y-115457971D01*
X20606019Y-115454271D01*
X20628224Y-115432066D01*
X20678972Y-115323237D01*
X20685500Y-115273651D01*
X20685499Y-114913850D01*
X20681950Y-114886885D01*
X20692526Y-114818256D01*
X20738338Y-114766073D01*
X20805017Y-114746701D01*
X20949641Y-114746854D01*
G37*
%TD.AperFunction*%
%TD*%
M02*
