%TF.GenerationSoftware,KiCad,Pcbnew,(7.0.0)*%
%TF.CreationDate,2024-01-29T21:47:07+01:00*%
%TF.ProjectId,HP2621,48503236-3231-42e6-9b69-6361645f7063,rev?*%
%TF.SameCoordinates,Original*%
%TF.FileFunction,Legend,Top*%
%TF.FilePolarity,Positive*%
%FSLAX46Y46*%
G04 Gerber Fmt 4.6, Leading zero omitted, Abs format (unit mm)*
G04 Created by KiCad (PCBNEW (7.0.0)) date 2024-01-29 21:47:07*
%MOMM*%
%LPD*%
G01*
G04 APERTURE LIST*
%ADD10C,0.600000*%
%ADD11C,0.120000*%
G04 APERTURE END LIST*
D10*
X254525892Y-122060535D02*
X254525892Y-116060535D01*
X254525892Y-118917678D02*
X257954463Y-118917678D01*
X257954463Y-122060535D02*
X257954463Y-116060535D01*
X260811606Y-122060535D02*
X260811606Y-116060535D01*
X260811606Y-116060535D02*
X263097320Y-116060535D01*
X263097320Y-116060535D02*
X263668749Y-116346250D01*
X263668749Y-116346250D02*
X263954463Y-116631964D01*
X263954463Y-116631964D02*
X264240177Y-117203392D01*
X264240177Y-117203392D02*
X264240177Y-118060535D01*
X264240177Y-118060535D02*
X263954463Y-118631964D01*
X263954463Y-118631964D02*
X263668749Y-118917678D01*
X263668749Y-118917678D02*
X263097320Y-119203392D01*
X263097320Y-119203392D02*
X260811606Y-119203392D01*
X266525892Y-116631964D02*
X266811606Y-116346250D01*
X266811606Y-116346250D02*
X267383035Y-116060535D01*
X267383035Y-116060535D02*
X268811606Y-116060535D01*
X268811606Y-116060535D02*
X269383035Y-116346250D01*
X269383035Y-116346250D02*
X269668749Y-116631964D01*
X269668749Y-116631964D02*
X269954463Y-117203392D01*
X269954463Y-117203392D02*
X269954463Y-117774821D01*
X269954463Y-117774821D02*
X269668749Y-118631964D01*
X269668749Y-118631964D02*
X266240177Y-122060535D01*
X266240177Y-122060535D02*
X269954463Y-122060535D01*
X275097321Y-116060535D02*
X273954463Y-116060535D01*
X273954463Y-116060535D02*
X273383035Y-116346250D01*
X273383035Y-116346250D02*
X273097321Y-116631964D01*
X273097321Y-116631964D02*
X272525892Y-117489107D01*
X272525892Y-117489107D02*
X272240178Y-118631964D01*
X272240178Y-118631964D02*
X272240178Y-120917678D01*
X272240178Y-120917678D02*
X272525892Y-121489107D01*
X272525892Y-121489107D02*
X272811606Y-121774821D01*
X272811606Y-121774821D02*
X273383035Y-122060535D01*
X273383035Y-122060535D02*
X274525892Y-122060535D01*
X274525892Y-122060535D02*
X275097321Y-121774821D01*
X275097321Y-121774821D02*
X275383035Y-121489107D01*
X275383035Y-121489107D02*
X275668749Y-120917678D01*
X275668749Y-120917678D02*
X275668749Y-119489107D01*
X275668749Y-119489107D02*
X275383035Y-118917678D01*
X275383035Y-118917678D02*
X275097321Y-118631964D01*
X275097321Y-118631964D02*
X274525892Y-118346250D01*
X274525892Y-118346250D02*
X273383035Y-118346250D01*
X273383035Y-118346250D02*
X272811606Y-118631964D01*
X272811606Y-118631964D02*
X272525892Y-118917678D01*
X272525892Y-118917678D02*
X272240178Y-119489107D01*
X277954464Y-116631964D02*
X278240178Y-116346250D01*
X278240178Y-116346250D02*
X278811607Y-116060535D01*
X278811607Y-116060535D02*
X280240178Y-116060535D01*
X280240178Y-116060535D02*
X280811607Y-116346250D01*
X280811607Y-116346250D02*
X281097321Y-116631964D01*
X281097321Y-116631964D02*
X281383035Y-117203392D01*
X281383035Y-117203392D02*
X281383035Y-117774821D01*
X281383035Y-117774821D02*
X281097321Y-118631964D01*
X281097321Y-118631964D02*
X277668749Y-122060535D01*
X277668749Y-122060535D02*
X281383035Y-122060535D01*
X287097321Y-122060535D02*
X283668750Y-122060535D01*
X285383035Y-122060535D02*
X285383035Y-116060535D01*
X285383035Y-116060535D02*
X284811607Y-116917678D01*
X284811607Y-116917678D02*
X284240178Y-117489107D01*
X284240178Y-117489107D02*
X283668750Y-117774821D01*
D11*
%TO.C,SW4*%
X144118750Y-114550000D02*
X146518750Y-114550000D01*
X144118750Y-118650000D02*
X144118750Y-114550000D01*
X144118750Y-122650000D02*
X144118750Y-126750000D01*
X144118750Y-126750000D02*
X155918750Y-126750000D01*
X148718750Y-114550000D02*
X151318750Y-114550000D01*
X149718750Y-126150000D02*
X150318750Y-126150000D01*
X150018750Y-126450000D02*
X149718750Y-126150000D01*
X150318750Y-126150000D02*
X150018750Y-126450000D01*
X153518750Y-114550000D02*
X155918750Y-114550000D01*
X155918750Y-114550000D02*
X155918750Y-118650000D01*
X155918750Y-122650000D02*
X155918750Y-126750000D01*
X152018750Y-120650000D02*
G75*
G03*
X152018750Y-120650000I-2000000J0D01*
G01*
%TO.C,SW3*%
X277468750Y-95500000D02*
X279868750Y-95500000D01*
X277468750Y-99600000D02*
X277468750Y-95500000D01*
X277468750Y-103600000D02*
X277468750Y-107700000D01*
X277468750Y-107700000D02*
X289268750Y-107700000D01*
X282068750Y-95500000D02*
X284668750Y-95500000D01*
X283068750Y-107100000D02*
X283668750Y-107100000D01*
X283368750Y-107400000D02*
X283068750Y-107100000D01*
X283668750Y-107100000D02*
X283368750Y-107400000D01*
X286868750Y-95500000D02*
X289268750Y-95500000D01*
X289268750Y-95500000D02*
X289268750Y-99600000D01*
X289268750Y-103600000D02*
X289268750Y-107700000D01*
X285368750Y-101600000D02*
G75*
G03*
X285368750Y-101600000I-2000000J0D01*
G01*
%TO.C,SW2*%
X272706250Y-19300000D02*
X275106250Y-19300000D01*
X272706250Y-23400000D02*
X272706250Y-19300000D01*
X272706250Y-27400000D02*
X272706250Y-31500000D01*
X272706250Y-31500000D02*
X284506250Y-31500000D01*
X277306250Y-19300000D02*
X279906250Y-19300000D01*
X278306250Y-30900000D02*
X278906250Y-30900000D01*
X278606250Y-31200000D02*
X278306250Y-30900000D01*
X278906250Y-30900000D02*
X278606250Y-31200000D01*
X282106250Y-19300000D02*
X284506250Y-19300000D01*
X284506250Y-19300000D02*
X284506250Y-23400000D01*
X284506250Y-27400000D02*
X284506250Y-31500000D01*
X280606250Y-25400000D02*
G75*
G03*
X280606250Y-25400000I-2000000J0D01*
G01*
%TO.C,SW1*%
X29818750Y-19300000D02*
X32218750Y-19300000D01*
X29818750Y-23400000D02*
X29818750Y-19300000D01*
X29818750Y-27400000D02*
X29818750Y-31500000D01*
X29818750Y-31500000D02*
X41618750Y-31500000D01*
X34418750Y-19300000D02*
X37018750Y-19300000D01*
X35418750Y-30900000D02*
X36018750Y-30900000D01*
X35718750Y-31200000D02*
X35418750Y-30900000D01*
X36018750Y-30900000D02*
X35718750Y-31200000D01*
X39218750Y-19300000D02*
X41618750Y-19300000D01*
X41618750Y-19300000D02*
X41618750Y-23400000D01*
X41618750Y-27400000D02*
X41618750Y-31500000D01*
X37718750Y-25400000D02*
G75*
G03*
X37718750Y-25400000I-2000000J0D01*
G01*
%TD*%
M02*
