%TF.GenerationSoftware,KiCad,Pcbnew,(7.0.0)*%
%TF.CreationDate,2024-01-04T19:34:22+01:00*%
%TF.ProjectId,HP2621,48503236-3231-42e6-9b69-6361645f7063,rev?*%
%TF.SameCoordinates,Original*%
%TF.FileFunction,Soldermask,Top*%
%TF.FilePolarity,Negative*%
%FSLAX46Y46*%
G04 Gerber Fmt 4.6, Leading zero omitted, Abs format (unit mm)*
G04 Created by KiCad (PCBNEW (7.0.0)) date 2024-01-04 19:34:22*
%MOMM*%
%LPD*%
G01*
G04 APERTURE LIST*
%ADD10C,1.750000*%
%ADD11C,3.987800*%
%ADD12C,3.048000*%
G04 APERTURE END LIST*
D10*
%TO.C,MX66*%
X59213750Y-120650000D03*
D11*
X64293750Y-120650000D03*
D10*
X69373750Y-120650000D03*
%TD*%
%TO.C,MX6*%
X216376250Y-25400000D03*
D11*
X221456250Y-25400000D03*
D10*
X226536250Y-25400000D03*
%TD*%
%TO.C,MX35*%
X235426250Y-63500000D03*
D11*
X240506250Y-63500000D03*
D10*
X245586250Y-63500000D03*
%TD*%
%TO.C,MX19*%
X206851250Y-44450000D03*
D11*
X211931250Y-44450000D03*
D10*
X217011250Y-44450000D03*
%TD*%
%TO.C,MX81*%
X116363750Y-120650000D03*
D11*
X121443750Y-120650000D03*
D10*
X126523750Y-120650000D03*
%TD*%
%TO.C,MX47*%
X163988750Y-82550000D03*
D11*
X169068750Y-82550000D03*
D10*
X174148750Y-82550000D03*
%TD*%
%TO.C,MX37*%
X273526250Y-63500000D03*
D11*
X278606250Y-63500000D03*
D10*
X283686250Y-63500000D03*
%TD*%
%TO.C,MX73*%
X211613750Y-120650000D03*
D11*
X216693750Y-120650000D03*
D10*
X221773750Y-120650000D03*
%TD*%
%TO.C,MX5*%
X187801250Y-25400000D03*
D11*
X192881250Y-25400000D03*
D10*
X197961250Y-25400000D03*
%TD*%
%TO.C,MX28*%
X102076250Y-63500000D03*
D11*
X107156250Y-63500000D03*
D10*
X112236250Y-63500000D03*
%TD*%
%TO.C,MX75*%
X63976250Y-120650000D03*
D11*
X69056250Y-120650000D03*
D10*
X74136250Y-120650000D03*
%TD*%
%TO.C,MX33*%
X197326250Y-63500000D03*
D11*
X202406250Y-63500000D03*
D10*
X207486250Y-63500000D03*
%TD*%
%TO.C,MX49*%
X202088750Y-82550000D03*
D11*
X207168750Y-82550000D03*
D10*
X212248750Y-82550000D03*
%TD*%
%TO.C,MX34*%
X216376250Y-63500000D03*
D11*
X221456250Y-63500000D03*
D10*
X226536250Y-63500000D03*
%TD*%
D12*
%TO.C,S5*%
X140493750Y-127635000D03*
D11*
X140493750Y-112395000D03*
D12*
X102393750Y-127635000D03*
D11*
X102393750Y-112395000D03*
%TD*%
D10*
%TO.C,MX65*%
X278288750Y-101600000D03*
D11*
X283368750Y-101600000D03*
D10*
X288448750Y-101600000D03*
%TD*%
D12*
%TO.C,S6*%
X197643750Y-127635000D03*
D11*
X197643750Y-112395000D03*
D12*
X159543750Y-127635000D03*
D11*
X159543750Y-112395000D03*
%TD*%
D10*
%TO.C,MX50*%
X221138750Y-82550000D03*
D11*
X226218750Y-82550000D03*
D10*
X231298750Y-82550000D03*
%TD*%
%TO.C,MX56*%
X97313750Y-101600000D03*
D11*
X102393750Y-101600000D03*
D10*
X107473750Y-101600000D03*
%TD*%
%TO.C,MX38*%
X292576250Y-63500000D03*
D11*
X297656250Y-63500000D03*
D10*
X302736250Y-63500000D03*
%TD*%
%TO.C,MX4*%
X116363750Y-25400000D03*
D11*
X121443750Y-25400000D03*
D10*
X126523750Y-25400000D03*
%TD*%
%TO.C,MX72*%
X190182500Y-120650000D03*
D11*
X195262500Y-120650000D03*
D10*
X200342500Y-120650000D03*
%TD*%
%TO.C,MX63*%
X230663750Y-101600000D03*
D11*
X235743750Y-101600000D03*
D10*
X240823750Y-101600000D03*
%TD*%
%TO.C,MX64*%
X254476250Y-101600000D03*
D11*
X259556250Y-101600000D03*
D10*
X264636250Y-101600000D03*
%TD*%
%TO.C,MX57*%
X116363750Y-101600000D03*
D11*
X121443750Y-101600000D03*
D10*
X126523750Y-101600000D03*
%TD*%
%TO.C,MX44*%
X106838750Y-82550000D03*
D11*
X111918750Y-82550000D03*
D10*
X116998750Y-82550000D03*
%TD*%
%TO.C,MX12*%
X73501250Y-44450000D03*
D11*
X78581250Y-44450000D03*
D10*
X83661250Y-44450000D03*
%TD*%
%TO.C,MX24*%
X21113750Y-63500000D03*
D11*
X26193750Y-63500000D03*
D10*
X31273750Y-63500000D03*
%TD*%
%TO.C,MX62*%
X211613750Y-101600000D03*
D11*
X216693750Y-101600000D03*
D10*
X221773750Y-101600000D03*
%TD*%
%TO.C,MX9*%
X16351250Y-44450000D03*
D11*
X21431250Y-44450000D03*
D10*
X26511250Y-44450000D03*
%TD*%
%TO.C,MX22*%
X264001250Y-44450000D03*
D11*
X269081250Y-44450000D03*
D10*
X274161250Y-44450000D03*
%TD*%
%TO.C,MX26*%
X63976250Y-63500000D03*
D11*
X69056250Y-63500000D03*
D10*
X74136250Y-63500000D03*
%TD*%
%TO.C,MX61*%
X192563750Y-101600000D03*
D11*
X197643750Y-101600000D03*
D10*
X202723750Y-101600000D03*
%TD*%
%TO.C,MX53*%
X35401250Y-101600000D03*
D11*
X40481250Y-101600000D03*
D10*
X45561250Y-101600000D03*
%TD*%
%TO.C,MX16*%
X149701250Y-44450000D03*
D11*
X154781250Y-44450000D03*
D10*
X159861250Y-44450000D03*
%TD*%
D12*
%TO.C,S1*%
X216693750Y-127635000D03*
D11*
X216693750Y-112395000D03*
D12*
X207168750Y-127635000D03*
D11*
X207168750Y-112395000D03*
D12*
X92868750Y-127635000D03*
D11*
X92868750Y-112395000D03*
D12*
X83343750Y-127635000D03*
D11*
X83343750Y-112395000D03*
%TD*%
D10*
%TO.C,MX41*%
X49688750Y-82550000D03*
D11*
X54768750Y-82550000D03*
D10*
X59848750Y-82550000D03*
%TD*%
%TO.C,MX74*%
X230663750Y-120650000D03*
D11*
X235743750Y-120650000D03*
D10*
X240823750Y-120650000D03*
%TD*%
%TO.C,MX21*%
X244951250Y-44450000D03*
D11*
X250031250Y-44450000D03*
D10*
X255111250Y-44450000D03*
%TD*%
%TO.C,MX77*%
X90170000Y-120650000D03*
D11*
X95250000Y-120650000D03*
D10*
X100330000Y-120650000D03*
%TD*%
%TO.C,MX54*%
X59213750Y-101600000D03*
D11*
X64293750Y-101600000D03*
D10*
X69373750Y-101600000D03*
%TD*%
%TO.C,MX69*%
X128270000Y-120650000D03*
D11*
X133350000Y-120650000D03*
D10*
X138430000Y-120650000D03*
%TD*%
%TO.C,MX80*%
X171132500Y-120650000D03*
D11*
X176212500Y-120650000D03*
D10*
X181292500Y-120650000D03*
%TD*%
%TO.C,MX48*%
X183038750Y-82550000D03*
D11*
X188118750Y-82550000D03*
D10*
X193198750Y-82550000D03*
%TD*%
%TO.C,MX67*%
X78263750Y-120650000D03*
D11*
X83343750Y-120650000D03*
D10*
X88423750Y-120650000D03*
%TD*%
%TO.C,MX15*%
X130651250Y-44450000D03*
D11*
X135731250Y-44450000D03*
D10*
X140811250Y-44450000D03*
%TD*%
%TO.C,MX29*%
X121126250Y-63500000D03*
D11*
X126206250Y-63500000D03*
D10*
X131286250Y-63500000D03*
%TD*%
D12*
%TO.C,S8*%
X207168750Y-127635000D03*
D11*
X207168750Y-112395000D03*
D12*
X169068750Y-127635000D03*
D11*
X169068750Y-112395000D03*
%TD*%
D10*
%TO.C,MX13*%
X92551250Y-44450000D03*
D11*
X97631250Y-44450000D03*
D10*
X102711250Y-44450000D03*
%TD*%
D12*
%TO.C,S3*%
X197643750Y-127635000D03*
D11*
X197643750Y-112395000D03*
D12*
X102393750Y-127635000D03*
D11*
X102393750Y-112395000D03*
%TD*%
D10*
%TO.C,MX36*%
X254476250Y-63500000D03*
D11*
X259556250Y-63500000D03*
D10*
X264636250Y-63500000D03*
%TD*%
%TO.C,MX18*%
X187801250Y-44450000D03*
D11*
X192881250Y-44450000D03*
D10*
X197961250Y-44450000D03*
%TD*%
%TO.C,MX43*%
X87788750Y-82550000D03*
D11*
X92868750Y-82550000D03*
D10*
X97948750Y-82550000D03*
%TD*%
%TO.C,MX42*%
X68738750Y-82550000D03*
D11*
X73818750Y-82550000D03*
D10*
X78898750Y-82550000D03*
%TD*%
%TO.C,MX40*%
X30638750Y-82550000D03*
D11*
X35718750Y-82550000D03*
D10*
X40798750Y-82550000D03*
%TD*%
%TO.C,MX70*%
X144938750Y-120650000D03*
D11*
X150018750Y-120650000D03*
D10*
X155098750Y-120650000D03*
%TD*%
%TO.C,MX46*%
X144938750Y-82550000D03*
D11*
X150018750Y-82550000D03*
D10*
X155098750Y-82550000D03*
%TD*%
%TO.C,MX79*%
X118745000Y-120650000D03*
D11*
X123825000Y-120650000D03*
D10*
X128905000Y-120650000D03*
%TD*%
%TO.C,MX14*%
X111601250Y-44450000D03*
D11*
X116681250Y-44450000D03*
D10*
X121761250Y-44450000D03*
%TD*%
%TO.C,MX83*%
X173513750Y-120650000D03*
D11*
X178593750Y-120650000D03*
D10*
X183673750Y-120650000D03*
%TD*%
%TO.C,MX30*%
X140176250Y-63500000D03*
D11*
X145256250Y-63500000D03*
D10*
X150336250Y-63500000D03*
%TD*%
%TO.C,MX58*%
X135413750Y-101600000D03*
D11*
X140493750Y-101600000D03*
D10*
X145573750Y-101600000D03*
%TD*%
%TO.C,MX84*%
X183038750Y-120650000D03*
D11*
X188118750Y-120650000D03*
D10*
X193198750Y-120650000D03*
%TD*%
%TO.C,MX82*%
X106838750Y-120650000D03*
D11*
X111918750Y-120650000D03*
D10*
X116998750Y-120650000D03*
%TD*%
%TO.C,MX71*%
X161607500Y-120650000D03*
D11*
X166687500Y-120650000D03*
D10*
X171767500Y-120650000D03*
%TD*%
%TO.C,MX27*%
X83026250Y-63500000D03*
D11*
X88106250Y-63500000D03*
D10*
X93186250Y-63500000D03*
%TD*%
%TO.C,MX78*%
X199707500Y-120650000D03*
D11*
X204787500Y-120650000D03*
D10*
X209867500Y-120650000D03*
%TD*%
%TO.C,MX11*%
X54451250Y-44450000D03*
D11*
X59531250Y-44450000D03*
D10*
X64611250Y-44450000D03*
%TD*%
%TO.C,MX52*%
X268763750Y-82550000D03*
D11*
X273843750Y-82550000D03*
D10*
X278923750Y-82550000D03*
%TD*%
%TO.C,MX17*%
X168751250Y-44450000D03*
D11*
X173831250Y-44450000D03*
D10*
X178911250Y-44450000D03*
%TD*%
%TO.C,MX3*%
X87788750Y-25400000D03*
D11*
X92868750Y-25400000D03*
D10*
X97948750Y-25400000D03*
%TD*%
%TO.C,MX10*%
X35401250Y-44450000D03*
D11*
X40481250Y-44450000D03*
D10*
X45561250Y-44450000D03*
%TD*%
%TO.C,MX20*%
X225901250Y-44450000D03*
D11*
X230981250Y-44450000D03*
D10*
X236061250Y-44450000D03*
%TD*%
%TO.C,MX7*%
X244951250Y-25400000D03*
D11*
X250031250Y-25400000D03*
D10*
X255111250Y-25400000D03*
%TD*%
%TO.C,MX45*%
X125888750Y-82550000D03*
D11*
X130968750Y-82550000D03*
D10*
X136048750Y-82550000D03*
%TD*%
%TO.C,MX25*%
X44926250Y-63500000D03*
D11*
X50006250Y-63500000D03*
D10*
X55086250Y-63500000D03*
%TD*%
%TO.C,MX60*%
X173513750Y-101600000D03*
D11*
X178593750Y-101600000D03*
D10*
X183673750Y-101600000D03*
%TD*%
%TO.C,MX8*%
X273526250Y-25400000D03*
D11*
X278606250Y-25400000D03*
D10*
X283686250Y-25400000D03*
%TD*%
%TO.C,MX39*%
X11588750Y-82550000D03*
D11*
X16668750Y-82550000D03*
D10*
X21748750Y-82550000D03*
%TD*%
%TO.C,MX23*%
X283051250Y-44450000D03*
D11*
X288131250Y-44450000D03*
D10*
X293211250Y-44450000D03*
%TD*%
%TO.C,MX59*%
X154463750Y-101600000D03*
D11*
X159543750Y-101600000D03*
D10*
X164623750Y-101600000D03*
%TD*%
%TO.C,MX1*%
X30638750Y-25400000D03*
D11*
X35718750Y-25400000D03*
D10*
X40798750Y-25400000D03*
%TD*%
%TO.C,MX76*%
X225901250Y-120650000D03*
D11*
X230981250Y-120650000D03*
D10*
X236061250Y-120650000D03*
%TD*%
D12*
%TO.C,S7*%
X130968750Y-127635000D03*
D11*
X130968750Y-112395000D03*
D12*
X92868750Y-127635000D03*
D11*
X92868750Y-112395000D03*
%TD*%
D10*
%TO.C,MX32*%
X178276250Y-63500000D03*
D11*
X183356250Y-63500000D03*
D10*
X188436250Y-63500000D03*
%TD*%
D12*
%TO.C,S9*%
X261937500Y-75565000D03*
D11*
X261937500Y-90805000D03*
D12*
X285750000Y-75565000D03*
D11*
X285750000Y-90805000D03*
%TD*%
D10*
%TO.C,MX68*%
X99695000Y-120650000D03*
D11*
X104775000Y-120650000D03*
D10*
X109855000Y-120650000D03*
%TD*%
%TO.C,MX31*%
X159226250Y-63500000D03*
D11*
X164306250Y-63500000D03*
D10*
X169386250Y-63500000D03*
%TD*%
%TO.C,MX51*%
X240188750Y-82550000D03*
D11*
X245268750Y-82550000D03*
D10*
X250348750Y-82550000D03*
%TD*%
%TO.C,MX55*%
X78263750Y-101600000D03*
D11*
X83343750Y-101600000D03*
D10*
X88423750Y-101600000D03*
%TD*%
%TO.C,MX2*%
X59213750Y-25400000D03*
D11*
X64293750Y-25400000D03*
D10*
X69373750Y-25400000D03*
%TD*%
M02*
