%TF.GenerationSoftware,KiCad,Pcbnew,(7.0.0)*%
%TF.CreationDate,2024-01-04T19:42:07+01:00*%
%TF.ProjectId,HP2621,48503236-3231-42e6-9b69-6361645f7063,rev?*%
%TF.SameCoordinates,Original*%
%TF.FileFunction,Copper,L1,Top*%
%TF.FilePolarity,Positive*%
%FSLAX46Y46*%
G04 Gerber Fmt 4.6, Leading zero omitted, Abs format (unit mm)*
G04 Created by KiCad (PCBNEW (7.0.0)) date 2024-01-04 19:42:07*
%MOMM*%
%LPD*%
G01*
G04 APERTURE LIST*
G04 Aperture macros list*
%AMRoundRect*
0 Rectangle with rounded corners*
0 $1 Rounding radius*
0 $2 $3 $4 $5 $6 $7 $8 $9 X,Y pos of 4 corners*
0 Add a 4 corners polygon primitive as box body*
4,1,4,$2,$3,$4,$5,$6,$7,$8,$9,$2,$3,0*
0 Add four circle primitives for the rounded corners*
1,1,$1+$1,$2,$3*
1,1,$1+$1,$4,$5*
1,1,$1+$1,$6,$7*
1,1,$1+$1,$8,$9*
0 Add four rect primitives between the rounded corners*
20,1,$1+$1,$2,$3,$4,$5,0*
20,1,$1+$1,$4,$5,$6,$7,0*
20,1,$1+$1,$6,$7,$8,$9,0*
20,1,$1+$1,$8,$9,$2,$3,0*%
%AMHorizOval*
0 Thick line with rounded ends*
0 $1 width*
0 $2 $3 position (X,Y) of the first rounded end (center of the circle)*
0 $4 $5 position (X,Y) of the second rounded end (center of the circle)*
0 Add line between two ends*
20,1,$1,$2,$3,$4,$5,0*
0 Add two circle primitives to create the rounded ends*
1,1,$1,$2,$3*
1,1,$1,$4,$5*%
G04 Aperture macros list end*
%TA.AperFunction,ComponentPad*%
%ADD10C,2.300000*%
%TD*%
%TA.AperFunction,ComponentPad*%
%ADD11HorizOval,2.300000X-0.655144X-0.730170X0.655144X0.730170X0*%
%TD*%
%TA.AperFunction,ComponentPad*%
%ADD12HorizOval,2.300000X0.019758X0.289827X-0.019758X-0.289827X0*%
%TD*%
%TA.AperFunction,ComponentPad*%
%ADD13C,2.000000*%
%TD*%
%TA.AperFunction,ComponentPad*%
%ADD14RoundRect,0.500000X0.500000X-0.500000X0.500000X0.500000X-0.500000X0.500000X-0.500000X-0.500000X0*%
%TD*%
%TA.AperFunction,ComponentPad*%
%ADD15RoundRect,0.550000X0.550000X-1.150000X0.550000X1.150000X-0.550000X1.150000X-0.550000X-1.150000X0*%
%TD*%
%TA.AperFunction,ViaPad*%
%ADD16C,0.800000*%
%TD*%
%TA.AperFunction,Conductor*%
%ADD17C,0.250000*%
%TD*%
%TA.AperFunction,Conductor*%
%ADD18C,0.200000*%
%TD*%
%TA.AperFunction,Conductor*%
%ADD19C,0.381000*%
%TD*%
G04 APERTURE END LIST*
D10*
%TO.P,MX66,1,1*%
%TO.N,COL2*%
X60483750Y-118110000D03*
D11*
X61138605Y-117380169D03*
D12*
%TO.P,MX66,2,2*%
%TO.N,Net-(D66-A)*%
X66813507Y-115860172D03*
D10*
X66833750Y-115570000D03*
%TD*%
%TO.P,MX6,1,1*%
%TO.N,COL10*%
X217646250Y-22860000D03*
D11*
X218301105Y-22130169D03*
D12*
%TO.P,MX6,2,2*%
%TO.N,Net-(D6-A)*%
X223976007Y-20610172D03*
D10*
X223996250Y-20320000D03*
%TD*%
%TO.P,MX35,1,1*%
%TO.N,COL11*%
X236696250Y-60960000D03*
D11*
X237351105Y-60230169D03*
D12*
%TO.P,MX35,2,2*%
%TO.N,Net-(D35-A)*%
X243026007Y-58710172D03*
D10*
X243046250Y-58420000D03*
%TD*%
%TO.P,MX19,1,1*%
%TO.N,COL10*%
X208121250Y-41910000D03*
D11*
X208776105Y-41180169D03*
D12*
%TO.P,MX19,2,2*%
%TO.N,Net-(D19-A)*%
X214451007Y-39660172D03*
D10*
X214471250Y-39370000D03*
%TD*%
%TO.P,MX81,1,1*%
%TO.N,COL5*%
X117633750Y-118110000D03*
D11*
X118288605Y-117380169D03*
D12*
%TO.P,MX81,2,2*%
%TO.N,Net-(D69-A)*%
X123963507Y-115860172D03*
D10*
X123983750Y-115570000D03*
%TD*%
%TO.P,MX47,1,1*%
%TO.N,COL8*%
X165258750Y-80010000D03*
D11*
X165913605Y-79280169D03*
D12*
%TO.P,MX47,2,2*%
%TO.N,Net-(D47-A)*%
X171588507Y-77760172D03*
D10*
X171608750Y-77470000D03*
%TD*%
%TO.P,MX37,1,1*%
%TO.N,COL13*%
X274796250Y-60960000D03*
D11*
X275451105Y-60230169D03*
D12*
%TO.P,MX37,2,2*%
%TO.N,Net-(D37-A)*%
X281126007Y-58710172D03*
D10*
X281146250Y-58420000D03*
%TD*%
%TO.P,MX73,1,1*%
%TO.N,COL10*%
X212883750Y-118110000D03*
D11*
X213538605Y-117380169D03*
D12*
%TO.P,MX73,2,2*%
%TO.N,Net-(D73-A)*%
X219213507Y-115860172D03*
D10*
X219233750Y-115570000D03*
%TD*%
%TO.P,MX5,1,1*%
%TO.N,COL9*%
X189071250Y-22860000D03*
D11*
X189726105Y-22130169D03*
D12*
%TO.P,MX5,2,2*%
%TO.N,Net-(D5-A)*%
X195401007Y-20610172D03*
D10*
X195421250Y-20320000D03*
%TD*%
%TO.P,MX28,1,1*%
%TO.N,COL4*%
X103346250Y-60960000D03*
D11*
X104001105Y-60230169D03*
D12*
%TO.P,MX28,2,2*%
%TO.N,Net-(D28-A)*%
X109676007Y-58710172D03*
D10*
X109696250Y-58420000D03*
%TD*%
%TO.P,MX75,1,1*%
%TO.N,Net-(D66-A)*%
X65246250Y-118110000D03*
D11*
X65901105Y-117380169D03*
D12*
%TO.P,MX75,2,2*%
%TO.N,COL2*%
X71576007Y-115860172D03*
D10*
X71596250Y-115570000D03*
%TD*%
%TO.P,MX33,1,1*%
%TO.N,COL9*%
X198596250Y-60960000D03*
D11*
X199251105Y-60230169D03*
D12*
%TO.P,MX33,2,2*%
%TO.N,Net-(D33-A)*%
X204926007Y-58710172D03*
D10*
X204946250Y-58420000D03*
%TD*%
%TO.P,MX49,1,1*%
%TO.N,COL10*%
X203358750Y-80010000D03*
D11*
X204013605Y-79280169D03*
D12*
%TO.P,MX49,2,2*%
%TO.N,Net-(D49-A)*%
X209688507Y-77760172D03*
D10*
X209708750Y-77470000D03*
%TD*%
%TO.P,MX34,1,1*%
%TO.N,COL10*%
X217646250Y-60960000D03*
D11*
X218301105Y-60230169D03*
D12*
%TO.P,MX34,2,2*%
%TO.N,Net-(D34-A)*%
X223976007Y-58710172D03*
D10*
X223996250Y-58420000D03*
%TD*%
%TO.P,MX65,1,1*%
%TO.N,COL13*%
X279558750Y-99060000D03*
D11*
X280213605Y-98330169D03*
D12*
%TO.P,MX65,2,2*%
%TO.N,row_3*%
X285888507Y-96810172D03*
D10*
X285908750Y-96520000D03*
%TD*%
%TO.P,MX50,1,1*%
%TO.N,COL11*%
X222408750Y-80010000D03*
D11*
X223063605Y-79280169D03*
D12*
%TO.P,MX50,2,2*%
%TO.N,Net-(D50-A)*%
X228738507Y-77760172D03*
D10*
X228758750Y-77470000D03*
%TD*%
%TO.P,MX56,1,1*%
%TO.N,COL4*%
X98583750Y-99060000D03*
D11*
X99238605Y-98330169D03*
D12*
%TO.P,MX56,2,2*%
%TO.N,Net-(D56-A)*%
X104913507Y-96810172D03*
D10*
X104933750Y-96520000D03*
%TD*%
%TO.P,MX38,1,1*%
%TO.N,COL14*%
X293846250Y-60960000D03*
D11*
X294501105Y-60230169D03*
D12*
%TO.P,MX38,2,2*%
%TO.N,Net-(D38-A)*%
X300176007Y-58710172D03*
D10*
X300196250Y-58420000D03*
%TD*%
%TO.P,MX4,1,1*%
%TO.N,COL5*%
X117633750Y-22860000D03*
D11*
X118288605Y-22130169D03*
D12*
%TO.P,MX4,2,2*%
%TO.N,Net-(D4-A)*%
X123963507Y-20610172D03*
D10*
X123983750Y-20320000D03*
%TD*%
%TO.P,MX72,1,1*%
%TO.N,COL9*%
X191452500Y-118110000D03*
D11*
X192107355Y-117380169D03*
D12*
%TO.P,MX72,2,2*%
%TO.N,Net-(D72-A)*%
X197782257Y-115860172D03*
D10*
X197802500Y-115570000D03*
%TD*%
%TO.P,MX63,1,1*%
%TO.N,COL11*%
X231933750Y-99060000D03*
D11*
X232588605Y-98330169D03*
D12*
%TO.P,MX63,2,2*%
%TO.N,Net-(D63-A)*%
X238263507Y-96810172D03*
D10*
X238283750Y-96520000D03*
%TD*%
%TO.P,MX64,1,1*%
%TO.N,COL12*%
X255746250Y-99060000D03*
D11*
X256401105Y-98330169D03*
D12*
%TO.P,MX64,2,2*%
%TO.N,Net-(D64-A)*%
X262076007Y-96810172D03*
D10*
X262096250Y-96520000D03*
%TD*%
%TO.P,MX57,1,1*%
%TO.N,COL5*%
X117633750Y-99060000D03*
D11*
X118288605Y-98330169D03*
D12*
%TO.P,MX57,2,2*%
%TO.N,Net-(D57-A)*%
X123963507Y-96810172D03*
D10*
X123983750Y-96520000D03*
%TD*%
%TO.P,MX44,1,1*%
%TO.N,COL5*%
X108108750Y-80010000D03*
D11*
X108763605Y-79280169D03*
D12*
%TO.P,MX44,2,2*%
%TO.N,Net-(D44-A)*%
X114438507Y-77760172D03*
D10*
X114458750Y-77470000D03*
%TD*%
%TO.P,MX12,1,1*%
%TO.N,COL3*%
X74771250Y-41910000D03*
D11*
X75426105Y-41180169D03*
D12*
%TO.P,MX12,2,2*%
%TO.N,Net-(D12-A)*%
X81101007Y-39660172D03*
D10*
X81121250Y-39370000D03*
%TD*%
%TO.P,MX24,1,1*%
%TO.N,COL0*%
X22383750Y-60960000D03*
D11*
X23038605Y-60230169D03*
D12*
%TO.P,MX24,2,2*%
%TO.N,Net-(D24-A)*%
X28713507Y-58710172D03*
D10*
X28733750Y-58420000D03*
%TD*%
%TO.P,MX62,1,1*%
%TO.N,COL10*%
X212883750Y-99060000D03*
D11*
X213538605Y-98330169D03*
D12*
%TO.P,MX62,2,2*%
%TO.N,Net-(D62-A)*%
X219213507Y-96810172D03*
D10*
X219233750Y-96520000D03*
%TD*%
%TO.P,MX9,1,1*%
%TO.N,COL0*%
X17621250Y-41910000D03*
D11*
X18276105Y-41180169D03*
D12*
%TO.P,MX9,2,2*%
%TO.N,Net-(D9-A)*%
X23951007Y-39660172D03*
D10*
X23971250Y-39370000D03*
%TD*%
%TO.P,MX22,1,1*%
%TO.N,COL13*%
X265271250Y-41910000D03*
D11*
X265926105Y-41180169D03*
D12*
%TO.P,MX22,2,2*%
%TO.N,Net-(D22-A)*%
X271601007Y-39660172D03*
D10*
X271621250Y-39370000D03*
%TD*%
%TO.P,MX26,1,1*%
%TO.N,COL2*%
X65246250Y-60960000D03*
D11*
X65901105Y-60230169D03*
D12*
%TO.P,MX26,2,2*%
%TO.N,Net-(D26-A)*%
X71576007Y-58710172D03*
D10*
X71596250Y-58420000D03*
%TD*%
%TO.P,MX61,1,1*%
%TO.N,COL9*%
X193833750Y-99060000D03*
D11*
X194488605Y-98330169D03*
D12*
%TO.P,MX61,2,2*%
%TO.N,Net-(D61-A)*%
X200163507Y-96810172D03*
D10*
X200183750Y-96520000D03*
%TD*%
%TO.P,MX53,1,1*%
%TO.N,COL1*%
X36671250Y-99060000D03*
D11*
X37326105Y-98330169D03*
D12*
%TO.P,MX53,2,2*%
%TO.N,Net-(D53-A)*%
X43001007Y-96810172D03*
D10*
X43021250Y-96520000D03*
%TD*%
%TO.P,MX16,1,1*%
%TO.N,COL7*%
X150971250Y-41910000D03*
D11*
X151626105Y-41180169D03*
D12*
%TO.P,MX16,2,2*%
%TO.N,Net-(D16-A)*%
X157301007Y-39660172D03*
D10*
X157321250Y-39370000D03*
%TD*%
D13*
%TO.P,SW4,A,A*%
%TO.N,ENC_g*%
X147518750Y-128150000D03*
%TO.P,SW4,B,B*%
%TO.N,ENC_h*%
X152518750Y-128150000D03*
D14*
%TO.P,SW4,C,C*%
%TO.N,GND*%
X150018750Y-128150000D03*
D15*
%TO.P,SW4,MP*%
%TO.N,N/C*%
X144418750Y-120650000D03*
X155618750Y-120650000D03*
D13*
%TO.P,SW4,S1,S1*%
%TO.N,row_4*%
X152518750Y-113650000D03*
%TO.P,SW4,S2,S2*%
%TO.N,COL7*%
X147518750Y-113650000D03*
%TD*%
D10*
%TO.P,MX41,1,1*%
%TO.N,COL2*%
X50958750Y-80010000D03*
D11*
X51613605Y-79280169D03*
D12*
%TO.P,MX41,2,2*%
%TO.N,Net-(D41-A)*%
X57288507Y-77760172D03*
D10*
X57308750Y-77470000D03*
%TD*%
%TO.P,MX74,1,1*%
%TO.N,COL11*%
X231933750Y-118110000D03*
D11*
X232588605Y-117380169D03*
D12*
%TO.P,MX74,2,2*%
%TO.N,Net-(D74-A)*%
X238263507Y-115860172D03*
D10*
X238283750Y-115570000D03*
%TD*%
%TO.P,MX21,1,1*%
%TO.N,COL12*%
X246221250Y-41910000D03*
D11*
X246876105Y-41180169D03*
D12*
%TO.P,MX21,2,2*%
%TO.N,Net-(D21-A)*%
X252551007Y-39660172D03*
D10*
X252571250Y-39370000D03*
%TD*%
%TO.P,MX77,1,1*%
%TO.N,COL3*%
X91440000Y-118110000D03*
D11*
X92094855Y-117380169D03*
D12*
%TO.P,MX77,2,2*%
%TO.N,Net-(D67-A)*%
X97769757Y-115860172D03*
D10*
X97790000Y-115570000D03*
%TD*%
%TO.P,MX54,1,1*%
%TO.N,COL2*%
X60483750Y-99060000D03*
D11*
X61138605Y-98330169D03*
D12*
%TO.P,MX54,2,2*%
%TO.N,Net-(D54-A)*%
X66813507Y-96810172D03*
D10*
X66833750Y-96520000D03*
%TD*%
%TO.P,MX69,1,1*%
%TO.N,COL5*%
X129540000Y-118110000D03*
D11*
X130194855Y-117380169D03*
D12*
%TO.P,MX69,2,2*%
%TO.N,Net-(D69-A)*%
X135869757Y-115860172D03*
D10*
X135890000Y-115570000D03*
%TD*%
%TO.P,MX80,1,1*%
%TO.N,COL8*%
X172402500Y-118110000D03*
D11*
X173057355Y-117380169D03*
D12*
%TO.P,MX80,2,2*%
%TO.N,Net-(D71-A)*%
X178732257Y-115860172D03*
D10*
X178752500Y-115570000D03*
%TD*%
%TO.P,MX48,1,1*%
%TO.N,COL9*%
X184308750Y-80010000D03*
D11*
X184963605Y-79280169D03*
D12*
%TO.P,MX48,2,2*%
%TO.N,Net-(D48-A)*%
X190638507Y-77760172D03*
D10*
X190658750Y-77470000D03*
%TD*%
%TO.P,MX67,1,1*%
%TO.N,COL3*%
X79533750Y-118110000D03*
D11*
X80188605Y-117380169D03*
D12*
%TO.P,MX67,2,2*%
%TO.N,Net-(D67-A)*%
X85863507Y-115860172D03*
D10*
X85883750Y-115570000D03*
%TD*%
%TO.P,MX15,1,1*%
%TO.N,COL6*%
X131921250Y-41910000D03*
D11*
X132576105Y-41180169D03*
D12*
%TO.P,MX15,2,2*%
%TO.N,Net-(D15-A)*%
X138251007Y-39660172D03*
D10*
X138271250Y-39370000D03*
%TD*%
%TO.P,MX29,1,1*%
%TO.N,COL5*%
X122396250Y-60960000D03*
D11*
X123051105Y-60230169D03*
D12*
%TO.P,MX29,2,2*%
%TO.N,Net-(D29-A)*%
X128726007Y-58710172D03*
D10*
X128746250Y-58420000D03*
%TD*%
D13*
%TO.P,SW3,A,A*%
%TO.N,ENC_e*%
X280868750Y-109100000D03*
%TO.P,SW3,B,B*%
%TO.N,ENC_f*%
X285868750Y-109100000D03*
D14*
%TO.P,SW3,C,C*%
%TO.N,GND*%
X283368750Y-109100000D03*
D15*
%TO.P,SW3,MP*%
%TO.N,N/C*%
X277768750Y-101600000D03*
X288968750Y-101600000D03*
D13*
%TO.P,SW3,S1,S1*%
%TO.N,row_3*%
X285868750Y-94600000D03*
%TO.P,SW3,S2,S2*%
%TO.N,COL13*%
X280868750Y-94600000D03*
%TD*%
D10*
%TO.P,MX13,1,1*%
%TO.N,COL4*%
X93821250Y-41910000D03*
D11*
X94476105Y-41180169D03*
D12*
%TO.P,MX13,2,2*%
%TO.N,Net-(D13-A)*%
X100151007Y-39660172D03*
D10*
X100171250Y-39370000D03*
%TD*%
%TO.P,MX36,1,1*%
%TO.N,COL12*%
X255746250Y-60960000D03*
D11*
X256401105Y-60230169D03*
D12*
%TO.P,MX36,2,2*%
%TO.N,Net-(D36-A)*%
X262076007Y-58710172D03*
D10*
X262096250Y-58420000D03*
%TD*%
%TO.P,MX18,1,1*%
%TO.N,COL9*%
X189071250Y-41910000D03*
D11*
X189726105Y-41180169D03*
D12*
%TO.P,MX18,2,2*%
%TO.N,Net-(D18-A)*%
X195401007Y-39660172D03*
D10*
X195421250Y-39370000D03*
%TD*%
%TO.P,MX43,1,1*%
%TO.N,COL4*%
X89058750Y-80010000D03*
D11*
X89713605Y-79280169D03*
D12*
%TO.P,MX43,2,2*%
%TO.N,Net-(D43-A)*%
X95388507Y-77760172D03*
D10*
X95408750Y-77470000D03*
%TD*%
%TO.P,MX42,1,1*%
%TO.N,COL3*%
X70008750Y-80010000D03*
D11*
X70663605Y-79280169D03*
D12*
%TO.P,MX42,2,2*%
%TO.N,Net-(D42-A)*%
X76338507Y-77760172D03*
D10*
X76358750Y-77470000D03*
%TD*%
%TO.P,MX40,1,1*%
%TO.N,COL1*%
X31908750Y-80010000D03*
D11*
X32563605Y-79280169D03*
D12*
%TO.P,MX40,2,2*%
%TO.N,Net-(D40-A)*%
X38238507Y-77760172D03*
D10*
X38258750Y-77470000D03*
%TD*%
%TO.P,MX70,1,1*%
%TO.N,COL7*%
X146208750Y-118110000D03*
D11*
X146863605Y-117380169D03*
D12*
%TO.P,MX70,2,2*%
%TO.N,row_4*%
X152538507Y-115860172D03*
D10*
X152558750Y-115570000D03*
%TD*%
%TO.P,MX46,1,1*%
%TO.N,COL7*%
X146208750Y-80010000D03*
D11*
X146863605Y-79280169D03*
D12*
%TO.P,MX46,2,2*%
%TO.N,Net-(D46-A)*%
X152538507Y-77760172D03*
D10*
X152558750Y-77470000D03*
%TD*%
%TO.P,MX79,1,1*%
%TO.N,COL5*%
X120015000Y-118110000D03*
D11*
X120669855Y-117380169D03*
D12*
%TO.P,MX79,2,2*%
%TO.N,Net-(D69-A)*%
X126344757Y-115860172D03*
D10*
X126365000Y-115570000D03*
%TD*%
%TO.P,MX14,1,1*%
%TO.N,COL5*%
X112871250Y-41910000D03*
D11*
X113526105Y-41180169D03*
D12*
%TO.P,MX14,2,2*%
%TO.N,Net-(D14-A)*%
X119201007Y-39660172D03*
D10*
X119221250Y-39370000D03*
%TD*%
%TO.P,MX83,1,1*%
%TO.N,COL8*%
X174783750Y-118110000D03*
D11*
X175438605Y-117380169D03*
D12*
%TO.P,MX83,2,2*%
%TO.N,Net-(D71-A)*%
X181113507Y-115860172D03*
D10*
X181133750Y-115570000D03*
%TD*%
%TO.P,MX30,1,1*%
%TO.N,COL6*%
X141446250Y-60960000D03*
D11*
X142101105Y-60230169D03*
D12*
%TO.P,MX30,2,2*%
%TO.N,Net-(D30-A)*%
X147776007Y-58710172D03*
D10*
X147796250Y-58420000D03*
%TD*%
%TO.P,MX58,1,1*%
%TO.N,COL6*%
X136683750Y-99060000D03*
D11*
X137338605Y-98330169D03*
D12*
%TO.P,MX58,2,2*%
%TO.N,Net-(D58-A)*%
X143013507Y-96810172D03*
D10*
X143033750Y-96520000D03*
%TD*%
%TO.P,MX84,1,1*%
%TO.N,Net-(D72-A)*%
X184308750Y-118110000D03*
D11*
X184963605Y-117380169D03*
D12*
%TO.P,MX84,2,2*%
%TO.N,COL9*%
X190638507Y-115860172D03*
D10*
X190658750Y-115570000D03*
%TD*%
%TO.P,MX82,1,1*%
%TO.N,Net-(D68-A)*%
X108108750Y-118110000D03*
D11*
X108763605Y-117380169D03*
D12*
%TO.P,MX82,2,2*%
%TO.N,COL4*%
X114438507Y-115860172D03*
D10*
X114458750Y-115570000D03*
%TD*%
%TO.P,MX71,1,1*%
%TO.N,COL8*%
X162877500Y-118110000D03*
D11*
X163532355Y-117380169D03*
D12*
%TO.P,MX71,2,2*%
%TO.N,Net-(D71-A)*%
X169207257Y-115860172D03*
D10*
X169227500Y-115570000D03*
%TD*%
%TO.P,MX27,1,1*%
%TO.N,COL3*%
X84296250Y-60960000D03*
D11*
X84951105Y-60230169D03*
D12*
%TO.P,MX27,2,2*%
%TO.N,Net-(D27-A)*%
X90626007Y-58710172D03*
D10*
X90646250Y-58420000D03*
%TD*%
%TO.P,MX78,1,1*%
%TO.N,COL10*%
X200977500Y-118110000D03*
D11*
X201632355Y-117380169D03*
D12*
%TO.P,MX78,2,2*%
%TO.N,Net-(D73-A)*%
X207307257Y-115860172D03*
D10*
X207327500Y-115570000D03*
%TD*%
%TO.P,MX11,1,1*%
%TO.N,COL2*%
X55721250Y-41910000D03*
D11*
X56376105Y-41180169D03*
D12*
%TO.P,MX11,2,2*%
%TO.N,Net-(D11-A)*%
X62051007Y-39660172D03*
D10*
X62071250Y-39370000D03*
%TD*%
%TO.P,MX52,1,1*%
%TO.N,COL13*%
X270033750Y-80010000D03*
D11*
X270688605Y-79280169D03*
D12*
%TO.P,MX52,2,2*%
%TO.N,Net-(D52-A)*%
X276363507Y-77760172D03*
D10*
X276383750Y-77470000D03*
%TD*%
%TO.P,MX17,1,1*%
%TO.N,COL8*%
X170021250Y-41910000D03*
D11*
X170676105Y-41180169D03*
D12*
%TO.P,MX17,2,2*%
%TO.N,Net-(D17-A)*%
X176351007Y-39660172D03*
D10*
X176371250Y-39370000D03*
%TD*%
%TO.P,MX3,1,1*%
%TO.N,COL3*%
X89058750Y-22860000D03*
D11*
X89713605Y-22130169D03*
D12*
%TO.P,MX3,2,2*%
%TO.N,Net-(D3-A)*%
X95388507Y-20610172D03*
D10*
X95408750Y-20320000D03*
%TD*%
%TO.P,MX10,1,1*%
%TO.N,COL1*%
X36671250Y-41910000D03*
D11*
X37326105Y-41180169D03*
D12*
%TO.P,MX10,2,2*%
%TO.N,Net-(D10-A)*%
X43001007Y-39660172D03*
D10*
X43021250Y-39370000D03*
%TD*%
%TO.P,MX20,1,1*%
%TO.N,COL11*%
X227171250Y-41910000D03*
D11*
X227826105Y-41180169D03*
D12*
%TO.P,MX20,2,2*%
%TO.N,Net-(D20-A)*%
X233501007Y-39660172D03*
D10*
X233521250Y-39370000D03*
%TD*%
D13*
%TO.P,SW2,A,A*%
%TO.N,ENC_c*%
X276106250Y-32900000D03*
%TO.P,SW2,B,B*%
%TO.N,ENC_d*%
X281106250Y-32900000D03*
D14*
%TO.P,SW2,C,C*%
%TO.N,GND*%
X278606250Y-32900000D03*
D15*
%TO.P,SW2,MP*%
%TO.N,N/C*%
X273006250Y-25400000D03*
X284206250Y-25400000D03*
D13*
%TO.P,SW2,S1,S1*%
%TO.N,row_2*%
X281106250Y-18400000D03*
%TO.P,SW2,S2,S2*%
%TO.N,COL13*%
X276106250Y-18400000D03*
%TD*%
D10*
%TO.P,MX7,1,1*%
%TO.N,COL12*%
X246221250Y-22860000D03*
D11*
X246876105Y-22130169D03*
D12*
%TO.P,MX7,2,2*%
%TO.N,Net-(D7-A)*%
X252551007Y-20610172D03*
D10*
X252571250Y-20320000D03*
%TD*%
%TO.P,MX45,1,1*%
%TO.N,COL6*%
X127158750Y-80010000D03*
D11*
X127813605Y-79280169D03*
D12*
%TO.P,MX45,2,2*%
%TO.N,Net-(D45-A)*%
X133488507Y-77760172D03*
D10*
X133508750Y-77470000D03*
%TD*%
%TO.P,MX25,1,1*%
%TO.N,COL1*%
X46196250Y-60960000D03*
D11*
X46851105Y-60230169D03*
D12*
%TO.P,MX25,2,2*%
%TO.N,Net-(D25-A)*%
X52526007Y-58710172D03*
D10*
X52546250Y-58420000D03*
%TD*%
%TO.P,MX60,1,1*%
%TO.N,COL8*%
X174783750Y-99060000D03*
D11*
X175438605Y-98330169D03*
D12*
%TO.P,MX60,2,2*%
%TO.N,Net-(D60-A)*%
X181113507Y-96810172D03*
D10*
X181133750Y-96520000D03*
%TD*%
%TO.P,MX8,1,1*%
%TO.N,COL13*%
X274796250Y-22860000D03*
D11*
X275451105Y-22130169D03*
D12*
%TO.P,MX8,2,2*%
%TO.N,row_2*%
X281126007Y-20610172D03*
D10*
X281146250Y-20320000D03*
%TD*%
%TO.P,MX39,1,1*%
%TO.N,COL0*%
X12858750Y-80010000D03*
D11*
X13513605Y-79280169D03*
D12*
%TO.P,MX39,2,2*%
%TO.N,Net-(D39-A)*%
X19188507Y-77760172D03*
D10*
X19208750Y-77470000D03*
%TD*%
%TO.P,MX23,1,1*%
%TO.N,COL14*%
X284321250Y-41910000D03*
D11*
X284976105Y-41180169D03*
D12*
%TO.P,MX23,2,2*%
%TO.N,Net-(D23-A)*%
X290651007Y-39660172D03*
D10*
X290671250Y-39370000D03*
%TD*%
%TO.P,MX59,1,1*%
%TO.N,COL7*%
X155733750Y-99060000D03*
D11*
X156388605Y-98330169D03*
D12*
%TO.P,MX59,2,2*%
%TO.N,Net-(D59-A)*%
X162063507Y-96810172D03*
D10*
X162083750Y-96520000D03*
%TD*%
%TO.P,MX1,1,1*%
%TO.N,COL0*%
X31908750Y-22860000D03*
D11*
X32563605Y-22130169D03*
D12*
%TO.P,MX1,2,2*%
%TO.N,row_1*%
X38238507Y-20610172D03*
D10*
X38258750Y-20320000D03*
%TD*%
%TO.P,MX76,1,1*%
%TO.N,Net-(D74-A)*%
X227171250Y-118110000D03*
D11*
X227826105Y-117380169D03*
D12*
%TO.P,MX76,2,2*%
%TO.N,COL11*%
X233501007Y-115860172D03*
D10*
X233521250Y-115570000D03*
%TD*%
%TO.P,MX32,1,1*%
%TO.N,COL8*%
X179546250Y-60960000D03*
D11*
X180201105Y-60230169D03*
D12*
%TO.P,MX32,2,2*%
%TO.N,Net-(D32-A)*%
X185876007Y-58710172D03*
D10*
X185896250Y-58420000D03*
%TD*%
%TO.P,MX68,1,1*%
%TO.N,COL4*%
X100965000Y-118110000D03*
D11*
X101619855Y-117380169D03*
D12*
%TO.P,MX68,2,2*%
%TO.N,Net-(D68-A)*%
X107294757Y-115860172D03*
D10*
X107315000Y-115570000D03*
%TD*%
%TO.P,MX31,1,1*%
%TO.N,COL7*%
X160496250Y-60960000D03*
D11*
X161151105Y-60230169D03*
D12*
%TO.P,MX31,2,2*%
%TO.N,Net-(D31-A)*%
X166826007Y-58710172D03*
D10*
X166846250Y-58420000D03*
%TD*%
%TO.P,MX51,1,1*%
%TO.N,COL12*%
X241458750Y-80010000D03*
D11*
X242113605Y-79280169D03*
D12*
%TO.P,MX51,2,2*%
%TO.N,Net-(D51-A)*%
X247788507Y-77760172D03*
D10*
X247808750Y-77470000D03*
%TD*%
D13*
%TO.P,SW1,A,A*%
%TO.N,ENC_a*%
X33218750Y-32900000D03*
%TO.P,SW1,B,B*%
%TO.N,ENC_b*%
X38218750Y-32900000D03*
D14*
%TO.P,SW1,C,C*%
%TO.N,GND*%
X35718750Y-32900000D03*
D15*
%TO.P,SW1,MP*%
%TO.N,N/C*%
X30118750Y-25400000D03*
X41318750Y-25400000D03*
D13*
%TO.P,SW1,S1,S1*%
%TO.N,row_1*%
X38218750Y-18400000D03*
%TO.P,SW1,S2,S2*%
%TO.N,COL0*%
X33218750Y-18400000D03*
%TD*%
D10*
%TO.P,MX55,1,1*%
%TO.N,COL3*%
X79533750Y-99060000D03*
D11*
X80188605Y-98330169D03*
D12*
%TO.P,MX55,2,2*%
%TO.N,Net-(D55-A)*%
X85863507Y-96810172D03*
D10*
X85883750Y-96520000D03*
%TD*%
%TO.P,MX2,1,1*%
%TO.N,COL2*%
X60483750Y-22860000D03*
D11*
X61138605Y-22130169D03*
D12*
%TO.P,MX2,2,2*%
%TO.N,Net-(D2-A)*%
X66813507Y-20610172D03*
D10*
X66833750Y-20320000D03*
%TD*%
D16*
%TO.N,GND*%
X84146716Y-50482064D03*
X18644250Y-121940897D03*
X32875000Y-120650000D03*
X18587500Y-123825000D03*
X30178397Y-114865941D03*
X84147629Y-55680682D03*
X27318750Y-111918750D03*
X18587500Y-112404740D03*
%TO.N,+3V3*%
X20175000Y-123825000D03*
X19989044Y-116145812D03*
X29891691Y-120932309D03*
X28112500Y-115887500D03*
X17728276Y-109529906D03*
%TO.N,BOOT0*%
X15362213Y-111440352D03*
X24606250Y-117475000D03*
%TD*%
D17*
%TO.N,COL0*%
X23693750Y-60328427D02*
X23693750Y-68346573D01*
X33218750Y-21550000D02*
X31908750Y-22860000D01*
X33218750Y-21400000D02*
X33218750Y-21550000D01*
X17621250Y-41910000D02*
X17621250Y-52599073D01*
X33218750Y-18400000D02*
X33218750Y-21400000D01*
X31322963Y-28208287D02*
X17621250Y-41910000D01*
X31908750Y-22860000D02*
X31908750Y-26794073D01*
X23107963Y-69760787D02*
X12858750Y-80010000D01*
X18207037Y-54013287D02*
X23107964Y-58914214D01*
X23693745Y-60328427D02*
G75*
G03*
X23107964Y-58914214I-1999945J27D01*
G01*
X23107966Y-69760790D02*
G75*
G03*
X23693750Y-68346573I-1414166J1414190D01*
G01*
X31322966Y-28208290D02*
G75*
G03*
X31908750Y-26794073I-1414166J1414190D01*
G01*
X17621248Y-52599073D02*
G75*
G03*
X18207037Y-54013287I2000002J3D01*
G01*
%TO.N,COL1*%
X36671250Y-41910000D02*
X36671250Y-47836573D01*
X46920463Y-64998287D02*
X31908750Y-80010000D01*
X47506250Y-60328427D02*
X47506250Y-63584073D01*
X31908750Y-80010000D02*
X31908750Y-91527500D01*
X37981250Y-40600000D02*
X36671250Y-41910000D01*
X37981250Y-40450000D02*
X37981250Y-40600000D01*
X37257037Y-49250787D02*
X46920464Y-58914214D01*
X31908750Y-91527500D02*
G75*
G03*
X37981250Y-97600000I6072500J0D01*
G01*
X46920466Y-64998290D02*
G75*
G03*
X47506250Y-63584073I-1414166J1414190D01*
G01*
X36671255Y-47836573D02*
G75*
G03*
X37257037Y-49250787I1999945J-27D01*
G01*
X47506245Y-60328427D02*
G75*
G03*
X46920464Y-58914214I-1999945J27D01*
G01*
%TO.N,COL2*%
X56307037Y-49250787D02*
X65970464Y-58914214D01*
X60483750Y-22860000D02*
X60483750Y-36319073D01*
X50958750Y-80010000D02*
X50958750Y-85936573D01*
X61793750Y-21400000D02*
X61793750Y-21550000D01*
X61793750Y-115093750D02*
X61793750Y-116650000D01*
X55721250Y-41910000D02*
X55721250Y-47836573D01*
X66556250Y-60328427D02*
X66556250Y-63584073D01*
X62792500Y-114095000D02*
X70121250Y-114095000D01*
X65970463Y-64998287D02*
X50958750Y-80010000D01*
X59897963Y-37733287D02*
X55721250Y-41910000D01*
X61793750Y-21550000D02*
X60483750Y-22860000D01*
X61793750Y-98428427D02*
X61793750Y-115093750D01*
X51544537Y-87350787D02*
X61207964Y-97014214D01*
X62792500Y-114094950D02*
G75*
G03*
X61793750Y-115093750I0J-998750D01*
G01*
X65970466Y-64998290D02*
G75*
G03*
X66556250Y-63584073I-1414166J1414190D01*
G01*
X61793745Y-98428427D02*
G75*
G03*
X61207964Y-97014214I-1999945J27D01*
G01*
X55721255Y-47836573D02*
G75*
G03*
X56307037Y-49250787I1999945J-27D01*
G01*
X66556245Y-60328427D02*
G75*
G03*
X65970464Y-58914214I-1999945J27D01*
G01*
X59897966Y-37733290D02*
G75*
G03*
X60483750Y-36319073I-1414166J1414190D01*
G01*
X50958755Y-85936573D02*
G75*
G03*
X51544537Y-87350787I1999945J-27D01*
G01*
X71596300Y-115570000D02*
G75*
G03*
X70121250Y-114095000I-1475000J0D01*
G01*
%TO.N,COL3*%
X70008750Y-85936573D02*
X70008750Y-80010000D01*
X90368750Y-21550000D02*
X89058750Y-22860000D01*
X90368750Y-21400000D02*
X90368750Y-21550000D01*
X85606250Y-60328427D02*
X85606250Y-63584073D01*
X75357037Y-49250787D02*
X85020464Y-58914214D01*
X80843750Y-116650000D02*
X80843750Y-98428427D01*
X85020463Y-64998287D02*
X70008750Y-80010000D01*
X88472963Y-28208287D02*
X74771250Y-41910000D01*
X89058750Y-22860000D02*
X89058750Y-26794073D01*
X81822520Y-117628770D02*
X91771230Y-117628770D01*
X80257964Y-97014214D02*
X70594537Y-87350787D01*
X74771250Y-41910000D02*
X74771250Y-47836573D01*
X85606245Y-60328427D02*
G75*
G03*
X85020464Y-58914214I-1999945J27D01*
G01*
X91771230Y-117628800D02*
G75*
G03*
X92750000Y-116650000I-30J978800D01*
G01*
X85020466Y-64998290D02*
G75*
G03*
X85606250Y-63584073I-1414166J1414190D01*
G01*
X80843730Y-116650000D02*
G75*
G03*
X81822520Y-117628770I978770J0D01*
G01*
X74771255Y-47836573D02*
G75*
G03*
X75357037Y-49250787I1999945J-27D01*
G01*
X70008755Y-85936573D02*
G75*
G03*
X70594537Y-87350787I1999945J-27D01*
G01*
X88472966Y-28208290D02*
G75*
G03*
X89058750Y-26794073I-1414166J1414190D01*
G01*
X80843745Y-98428427D02*
G75*
G03*
X80257964Y-97014214I-1999945J27D01*
G01*
%TO.N,COL11*%
X233243750Y-97750000D02*
X231933750Y-99060000D01*
X231933750Y-99060000D02*
X231933750Y-118110000D01*
X222994537Y-87350787D02*
X233243750Y-97600000D01*
X228481250Y-40600000D02*
X227171250Y-41910000D01*
X238006250Y-60328427D02*
X238006250Y-63584073D01*
X233243750Y-97600000D02*
X233243750Y-97750000D01*
X237420463Y-64998287D02*
X222408750Y-80010000D01*
X228481250Y-40450000D02*
X228481250Y-40600000D01*
X227757037Y-49250787D02*
X237420464Y-58914214D01*
X232607269Y-116483981D02*
X233521250Y-115570000D01*
X222408750Y-80010000D02*
X222408750Y-85936573D01*
X227171250Y-41910000D02*
X227171250Y-47836573D01*
X232607267Y-116483979D02*
G75*
G03*
X231933750Y-118110000I1626033J-1626021D01*
G01*
X222408755Y-85936573D02*
G75*
G03*
X222994537Y-87350787I1999945J-27D01*
G01*
X238006245Y-60328427D02*
G75*
G03*
X237420464Y-58914214I-1999945J27D01*
G01*
X237420466Y-64998290D02*
G75*
G03*
X238006250Y-63584073I-1414166J1414190D01*
G01*
X227171255Y-47836573D02*
G75*
G03*
X227757037Y-49250787I1999945J-27D01*
G01*
%TO.N,COL12*%
X241458750Y-80010000D02*
X241458750Y-83944073D01*
X247531250Y-40600000D02*
X246221250Y-41910000D01*
X247531250Y-40450000D02*
X247531250Y-40600000D01*
X247531250Y-21400000D02*
X247531250Y-21550000D01*
X246221250Y-22860000D02*
X246945464Y-23584214D01*
X246221250Y-41910000D02*
X246221250Y-47836573D01*
X247531250Y-24998427D02*
X247531250Y-40450000D01*
X246807037Y-49250787D02*
X256470464Y-58914214D01*
X247531250Y-21550000D02*
X246221250Y-22860000D01*
X257056250Y-60328427D02*
X257056250Y-63584073D01*
X256470463Y-64998287D02*
X241458750Y-80010000D01*
X242044537Y-85358287D02*
X255746250Y-99060000D01*
X256470466Y-64998290D02*
G75*
G03*
X257056250Y-63584073I-1414166J1414190D01*
G01*
X247531245Y-24998427D02*
G75*
G03*
X246945464Y-23584214I-1999945J27D01*
G01*
X241458755Y-83944073D02*
G75*
G03*
X242044537Y-85358287I1999945J-27D01*
G01*
X257056245Y-60328427D02*
G75*
G03*
X256470464Y-58914214I-1999945J27D01*
G01*
X246221255Y-47836573D02*
G75*
G03*
X246807037Y-49250787I1999945J-27D01*
G01*
%TO.N,COL13*%
X265271250Y-41910000D02*
X265271250Y-47836573D01*
X280868750Y-97600000D02*
X280868750Y-97750000D01*
X276106250Y-21550000D02*
X274796250Y-22860000D01*
X270033750Y-80010000D02*
X270033750Y-82936573D01*
X276106250Y-21400000D02*
X276106250Y-21550000D01*
X265857037Y-49250787D02*
X275520464Y-58914214D01*
X276106250Y-60328427D02*
X276106250Y-73109073D01*
X270619537Y-84350787D02*
X280868750Y-94600000D01*
X266581250Y-40600000D02*
X265271250Y-41910000D01*
X276106250Y-18400000D02*
X276106250Y-21400000D01*
X275520463Y-74523287D02*
X270033750Y-80010000D01*
X266581250Y-40450000D02*
X266581250Y-40600000D01*
X274210463Y-32820787D02*
X266581250Y-40450000D01*
X280868750Y-97750000D02*
X279558750Y-99060000D01*
X274796250Y-22860000D02*
X274796250Y-31406573D01*
X280868750Y-94600000D02*
X280868750Y-97600000D01*
X276106245Y-60328427D02*
G75*
G03*
X275520464Y-58914214I-1999945J27D01*
G01*
X270033755Y-82936573D02*
G75*
G03*
X270619537Y-84350787I1999945J-27D01*
G01*
X265271255Y-47836573D02*
G75*
G03*
X265857037Y-49250787I1999945J-27D01*
G01*
X275520466Y-74523290D02*
G75*
G03*
X276106250Y-73109073I-1414166J1414190D01*
G01*
X274210466Y-32820790D02*
G75*
G03*
X274796250Y-31406573I-1414166J1414190D01*
G01*
%TO.N,COL14*%
X284907037Y-49250787D02*
X295156250Y-59500000D01*
X295156250Y-59500000D02*
X295156250Y-59650000D01*
X284321250Y-41910000D02*
X284321250Y-47836573D01*
X285631250Y-40450000D02*
X285631250Y-40600000D01*
X285631250Y-40600000D02*
X284321250Y-41910000D01*
X295156250Y-59650000D02*
X293846250Y-60960000D01*
X284321255Y-47836573D02*
G75*
G03*
X284907037Y-49250787I1999945J-27D01*
G01*
%TO.N,COL4*%
X99149537Y-113524537D02*
X102275000Y-116650000D01*
X112960268Y-114071518D02*
X104944378Y-114071518D01*
X89058750Y-80010000D02*
X89058750Y-85936573D01*
X99893750Y-97600000D02*
X99149536Y-98344214D01*
X103352738Y-114730797D02*
X102870006Y-115213529D01*
X104656250Y-60328427D02*
X104656250Y-63584073D01*
X98563750Y-99758427D02*
X98563750Y-112110323D01*
X93821250Y-41910000D02*
X93821250Y-47836573D01*
X104070463Y-64998287D02*
X89058750Y-80010000D01*
X89644537Y-87350787D02*
X99893750Y-97600000D01*
X95131250Y-40600000D02*
X93821250Y-41910000D01*
X95131250Y-40450000D02*
X95131250Y-40600000D01*
X94407037Y-49250787D02*
X104070464Y-58914214D01*
X89058755Y-85936573D02*
G75*
G03*
X89644537Y-87350787I1999945J-27D01*
G01*
X93821255Y-47836573D02*
G75*
G03*
X94407037Y-49250787I1999945J-27D01*
G01*
X102870001Y-115213524D02*
G75*
G03*
X102275000Y-116650000I1436499J-1436476D01*
G01*
X104070466Y-64998290D02*
G75*
G03*
X104656250Y-63584073I-1414166J1414190D01*
G01*
X99149533Y-98344211D02*
G75*
G03*
X98563750Y-99758427I1414167J-1414189D01*
G01*
X104944378Y-114071492D02*
G75*
G03*
X103352738Y-114730797I22J-2250908D01*
G01*
X104656245Y-60328427D02*
G75*
G03*
X104070464Y-58914214I-1999945J27D01*
G01*
X98563720Y-112110323D02*
G75*
G03*
X99149538Y-113524536I1999980J23D01*
G01*
X114458782Y-115570000D02*
G75*
G03*
X112960268Y-114071518I-1498482J0D01*
G01*
%TO.N,COL5*%
X117633750Y-118110000D02*
X119865000Y-118110000D01*
X108108750Y-80010000D02*
X108108750Y-85936573D01*
X123120463Y-64998287D02*
X108108750Y-80010000D01*
X112871250Y-41910000D02*
X112871250Y-47836573D01*
X123706250Y-60328427D02*
X123706250Y-63584073D01*
X117633750Y-99060000D02*
X117633750Y-118110000D01*
X118943750Y-21400000D02*
X118943750Y-35009073D01*
X118357963Y-36423287D02*
X112871250Y-41910000D01*
X129836862Y-117663138D02*
X122338138Y-117663138D01*
X108694537Y-87350787D02*
X118357964Y-97014214D01*
X113457037Y-49250787D02*
X123120464Y-58914214D01*
X123706245Y-60328427D02*
G75*
G03*
X123120464Y-58914214I-1999945J27D01*
G01*
X108108755Y-85936573D02*
G75*
G03*
X108694537Y-87350787I1999945J-27D01*
G01*
X121324962Y-116650000D02*
G75*
G03*
X122338138Y-117663138I1013138J0D01*
G01*
X119865000Y-118110000D02*
G75*
G03*
X121325000Y-116650000I0J1460000D01*
G01*
X118357966Y-36423290D02*
G75*
G03*
X118943750Y-35009073I-1414166J1414190D01*
G01*
X112871255Y-47836573D02*
G75*
G03*
X113457037Y-49250787I1999945J-27D01*
G01*
X123120466Y-64998290D02*
G75*
G03*
X123706250Y-63584073I-1414166J1414190D01*
G01*
X129836862Y-117663100D02*
G75*
G03*
X130850000Y-116650000I38J1013100D01*
G01*
%TO.N,COL6*%
X132507037Y-49250787D02*
X142170464Y-58914214D01*
X133231250Y-40450000D02*
X133231250Y-40600000D01*
X133231250Y-40600000D02*
X131921250Y-41910000D01*
X127744537Y-87350787D02*
X137993750Y-97600000D01*
X131921250Y-41910000D02*
X131921250Y-47836573D01*
X137993750Y-97750000D02*
X136683750Y-99060000D01*
X127158750Y-80010000D02*
X127158750Y-85936573D01*
X142756250Y-60328427D02*
X142756250Y-63584073D01*
X137993750Y-97600000D02*
X137993750Y-97750000D01*
X142170463Y-64998287D02*
X127158750Y-80010000D01*
X127158755Y-85936573D02*
G75*
G03*
X127744537Y-87350787I1999945J-27D01*
G01*
X142756245Y-60328427D02*
G75*
G03*
X142170464Y-58914214I-1999945J27D01*
G01*
X142170466Y-64998290D02*
G75*
G03*
X142756250Y-63584073I-1414166J1414190D01*
G01*
X131921255Y-47836573D02*
G75*
G03*
X132507037Y-49250787I1999945J-27D01*
G01*
%TO.N,COL7*%
X157043750Y-97750000D02*
X155733750Y-99060000D01*
X146794537Y-87350787D02*
X157043750Y-97600000D01*
X151557037Y-49250787D02*
X161220464Y-58914214D01*
X155147963Y-106020787D02*
X147518750Y-113650000D01*
X152281250Y-40600000D02*
X150971250Y-41910000D01*
X161806250Y-60328427D02*
X161806250Y-63584073D01*
X152281250Y-40450000D02*
X152281250Y-40600000D01*
X150971250Y-41910000D02*
X150971250Y-47836573D01*
X155733750Y-99060000D02*
X155733750Y-104606573D01*
X147518750Y-116650000D02*
X147518750Y-116800000D01*
X161220463Y-64998287D02*
X146208750Y-80010000D01*
X146208750Y-80010000D02*
X146208750Y-85936573D01*
X157043750Y-97600000D02*
X157043750Y-97750000D01*
X147518750Y-113650000D02*
X147518750Y-116650000D01*
X147518750Y-116800000D02*
X146208750Y-118110000D01*
X146208755Y-85936573D02*
G75*
G03*
X146794537Y-87350787I1999945J-27D01*
G01*
X161220466Y-64998290D02*
G75*
G03*
X161806250Y-63584073I-1414166J1414190D01*
G01*
X155147966Y-106020790D02*
G75*
G03*
X155733750Y-104606573I-1414166J1414190D01*
G01*
X161806245Y-60328427D02*
G75*
G03*
X161220464Y-58914214I-1999945J27D01*
G01*
X150971255Y-47836573D02*
G75*
G03*
X151557037Y-49250787I1999945J-27D01*
G01*
%TO.N,COL8*%
X171331250Y-40600000D02*
X170021250Y-41910000D01*
X174783750Y-99060000D02*
X174783750Y-114900323D01*
X176093750Y-97600000D02*
X176093750Y-97750000D01*
X165258750Y-80010000D02*
X165258750Y-85936573D01*
X170607037Y-49250787D02*
X180270464Y-58914214D01*
X173712500Y-116650000D02*
X173712500Y-117038750D01*
X165844537Y-87350787D02*
X176093750Y-97600000D01*
X180856250Y-60328427D02*
X180856250Y-63584073D01*
X170021250Y-41910000D02*
X170021250Y-47836573D01*
X162877500Y-118110000D02*
X162877500Y-117960000D01*
X180270463Y-64998287D02*
X165258750Y-80010000D01*
X176093750Y-97750000D02*
X174783750Y-99060000D01*
X165163238Y-117625738D02*
X172736762Y-117625738D01*
X171331250Y-40450000D02*
X171331250Y-40600000D01*
X165258755Y-85936573D02*
G75*
G03*
X165844537Y-87350787I1999945J-27D01*
G01*
X164187462Y-116650000D02*
G75*
G03*
X165163238Y-117625738I975738J0D01*
G01*
X164187500Y-116650000D02*
G75*
G03*
X162877500Y-117960000I0J-1310000D01*
G01*
X172736762Y-117625700D02*
G75*
G03*
X173712500Y-116650000I38J975700D01*
G01*
X180270466Y-64998290D02*
G75*
G03*
X180856250Y-63584073I-1414166J1414190D01*
G01*
X170021255Y-47836573D02*
G75*
G03*
X170607037Y-49250787I1999945J-27D01*
G01*
X173712500Y-117038750D02*
G75*
G03*
X174783750Y-118110000I1071300J50D01*
G01*
X174197941Y-116314515D02*
G75*
G03*
X174783750Y-114900323I-1414141J1414215D01*
G01*
X174633750Y-118109950D02*
G75*
G03*
X176093750Y-116650000I50J1459950D01*
G01*
X180856245Y-60328427D02*
G75*
G03*
X180270464Y-58914214I-1999945J27D01*
G01*
%TO.N,COL9*%
X184894537Y-87350787D02*
X195143750Y-97600000D01*
X189071250Y-41910000D02*
X189071250Y-47836573D01*
X193833750Y-99060000D02*
X193833750Y-114063774D01*
X190618750Y-116150000D02*
X190656121Y-116187371D01*
X195143750Y-97750000D02*
X193833750Y-99060000D01*
X199906250Y-60328427D02*
X199906250Y-63584073D01*
X190381250Y-40600000D02*
X189071250Y-41910000D01*
X190381250Y-40450000D02*
X190381250Y-40600000D01*
X190381250Y-21400000D02*
X190381250Y-40450000D01*
X192762500Y-116650000D02*
X191558567Y-117853933D01*
X189657037Y-49250787D02*
X199320464Y-58914214D01*
X195143750Y-97600000D02*
X195143750Y-97750000D01*
X184308750Y-80010000D02*
X184308750Y-85936573D01*
X199320463Y-64998287D02*
X184308750Y-80010000D01*
X191452502Y-118110000D02*
G75*
G03*
X190656121Y-116187371I-2719002J0D01*
G01*
X189071255Y-47836573D02*
G75*
G03*
X189657037Y-49250787I1999945J-27D01*
G01*
X199320466Y-64998290D02*
G75*
G03*
X199906250Y-63584073I-1414166J1414190D01*
G01*
X199906245Y-60328427D02*
G75*
G03*
X199320464Y-58914214I-1999945J27D01*
G01*
X184308755Y-85936573D02*
G75*
G03*
X184894537Y-87350787I1999945J-27D01*
G01*
X192762508Y-116650008D02*
G75*
G03*
X193833750Y-114063774I-2586208J2586208D01*
G01*
X191558574Y-117853940D02*
G75*
G03*
X191452500Y-118110000I256026J-256060D01*
G01*
%TO.N,COL10*%
X218956250Y-21400000D02*
X218956250Y-21550000D01*
X208121250Y-41910000D02*
X208121250Y-47836573D01*
X203358750Y-80010000D02*
X203358750Y-85936573D01*
X218370463Y-64998287D02*
X203358750Y-80010000D01*
X217646250Y-22860000D02*
X217646250Y-31406573D01*
X209431250Y-40450000D02*
X209431250Y-40600000D01*
X217060463Y-32820787D02*
X209431250Y-40450000D01*
X208707037Y-49250787D02*
X218370464Y-58914214D01*
X203263238Y-117625738D02*
X213218012Y-117625738D01*
X203944537Y-87350787D02*
X214193750Y-97600000D01*
X218956250Y-60328427D02*
X218956250Y-63584073D01*
X212883750Y-99060000D02*
X212883750Y-118110000D01*
X214193750Y-97600000D02*
X214193750Y-97750000D01*
X214193750Y-97750000D02*
X212883750Y-99060000D01*
X218956250Y-21550000D02*
X217646250Y-22860000D01*
X209431250Y-40600000D02*
X208121250Y-41910000D01*
X218956245Y-60328427D02*
G75*
G03*
X218370464Y-58914214I-1999945J27D01*
G01*
X202287462Y-116650000D02*
G75*
G03*
X203263238Y-117625738I975738J0D01*
G01*
X217060466Y-32820790D02*
G75*
G03*
X217646250Y-31406573I-1414166J1414190D01*
G01*
X213218012Y-117625750D02*
G75*
G03*
X214193750Y-116650000I-12J975750D01*
G01*
X203358755Y-85936573D02*
G75*
G03*
X203944537Y-87350787I1999945J-27D01*
G01*
X208121255Y-47836573D02*
G75*
G03*
X208707037Y-49250787I1999945J-27D01*
G01*
X218370466Y-64998290D02*
G75*
G03*
X218956250Y-63584073I-1414166J1414190D01*
G01*
%TO.N,GND*%
X84146716Y-50482064D02*
X84146716Y-55679769D01*
X27318750Y-111918750D02*
X27318750Y-112006294D01*
X27318750Y-112006294D02*
X30178397Y-114865941D01*
X32875000Y-120650000D02*
X32875000Y-123744338D01*
X19073490Y-111918750D02*
X27318750Y-111918750D01*
X30178397Y-114865941D02*
X32875000Y-117562544D01*
X84146716Y-55679769D02*
X84147629Y-55680682D01*
D18*
X18587500Y-123825000D02*
X18587500Y-121997647D01*
D17*
X32069338Y-124550000D02*
X19312500Y-124550000D01*
X32875000Y-117562544D02*
X32875000Y-120650000D01*
X32069338Y-124550000D02*
G75*
G03*
X32875000Y-123744338I-38J805700D01*
G01*
D18*
X18644250Y-121940800D02*
G75*
G03*
X18587500Y-121997647I50J-56800D01*
G01*
D17*
X18587500Y-123825000D02*
G75*
G03*
X19312500Y-124550000I725000J0D01*
G01*
X19073490Y-111918700D02*
G75*
G03*
X18587500Y-112404740I10J-486000D01*
G01*
D19*
%TO.N,+3V3*%
X29891691Y-117666691D02*
X29891691Y-120932309D01*
X20247356Y-115887500D02*
X28112500Y-115887500D01*
X17728276Y-113885044D02*
X17728276Y-109529906D01*
X28112500Y-115887500D02*
X29891691Y-117666691D01*
X20175000Y-123825000D02*
X28906250Y-123825000D01*
X29891691Y-122839559D02*
X29891691Y-120932309D01*
X28906250Y-123825091D02*
G75*
G03*
X29891691Y-122839559I-50J985491D01*
G01*
X17728278Y-113885044D02*
G75*
G03*
X19989044Y-116145812I2260772J4D01*
G01*
X20247356Y-115887444D02*
G75*
G03*
X19989044Y-116145812I44J-258356D01*
G01*
D18*
%TO.N,BOOT0*%
X15362213Y-115374713D02*
X15362213Y-111440352D01*
X24606250Y-117475000D02*
X17462500Y-117475000D01*
X15362210Y-115374713D02*
G75*
G03*
X17462500Y-117475000I2100290J3D01*
G01*
%TD*%
M02*
