%TF.GenerationSoftware,KiCad,Pcbnew,(7.0.0)*%
%TF.CreationDate,2024-01-04T19:09:41+01:00*%
%TF.ProjectId,HP 2621,48502032-3632-4312-9e6b-696361645f70,rev?*%
%TF.SameCoordinates,Original*%
%TF.FileFunction,Paste,Bot*%
%TF.FilePolarity,Positive*%
%FSLAX46Y46*%
G04 Gerber Fmt 4.6, Leading zero omitted, Abs format (unit mm)*
G04 Created by KiCad (PCBNEW (7.0.0)) date 2024-01-04 19:09:41*
%MOMM*%
%LPD*%
G01*
G04 APERTURE LIST*
G04 Aperture macros list*
%AMRoundRect*
0 Rectangle with rounded corners*
0 $1 Rounding radius*
0 $2 $3 $4 $5 $6 $7 $8 $9 X,Y pos of 4 corners*
0 Add a 4 corners polygon primitive as box body*
4,1,4,$2,$3,$4,$5,$6,$7,$8,$9,$2,$3,0*
0 Add four circle primitives for the rounded corners*
1,1,$1+$1,$2,$3*
1,1,$1+$1,$4,$5*
1,1,$1+$1,$6,$7*
1,1,$1+$1,$8,$9*
0 Add four rect primitives between the rounded corners*
20,1,$1+$1,$2,$3,$4,$5,0*
20,1,$1+$1,$4,$5,$6,$7,0*
20,1,$1+$1,$6,$7,$8,$9,0*
20,1,$1+$1,$8,$9,$2,$3,0*%
G04 Aperture macros list end*
%ADD10RoundRect,0.150000X-0.625000X0.150000X-0.625000X-0.150000X0.625000X-0.150000X0.625000X0.150000X0*%
%ADD11RoundRect,0.250000X-0.650000X0.350000X-0.650000X-0.350000X0.650000X-0.350000X0.650000X0.350000X0*%
%ADD12RoundRect,0.250000X0.300000X-0.300000X0.300000X0.300000X-0.300000X0.300000X-0.300000X-0.300000X0*%
%ADD13RoundRect,0.075000X0.662500X0.075000X-0.662500X0.075000X-0.662500X-0.075000X0.662500X-0.075000X0*%
%ADD14RoundRect,0.075000X0.075000X0.662500X-0.075000X0.662500X-0.075000X-0.662500X0.075000X-0.662500X0*%
%ADD15RoundRect,0.140000X0.170000X-0.140000X0.170000X0.140000X-0.170000X0.140000X-0.170000X-0.140000X0*%
%ADD16RoundRect,0.140000X-0.140000X-0.170000X0.140000X-0.170000X0.140000X0.170000X-0.140000X0.170000X0*%
%ADD17RoundRect,0.250000X-0.300000X0.300000X-0.300000X-0.300000X0.300000X-0.300000X0.300000X0.300000X0*%
%ADD18RoundRect,0.140000X0.140000X0.170000X-0.140000X0.170000X-0.140000X-0.170000X0.140000X-0.170000X0*%
%ADD19RoundRect,0.140000X-0.170000X0.140000X-0.170000X-0.140000X0.170000X-0.140000X0.170000X0.140000X0*%
%ADD20RoundRect,0.275000X0.275000X-0.625000X0.275000X0.625000X-0.275000X0.625000X-0.275000X-0.625000X0*%
%ADD21RoundRect,0.150000X-0.587500X-0.150000X0.587500X-0.150000X0.587500X0.150000X-0.587500X0.150000X0*%
%ADD22RoundRect,0.225000X0.250000X-0.225000X0.250000X0.225000X-0.250000X0.225000X-0.250000X-0.225000X0*%
%ADD23RoundRect,0.150000X-0.275000X0.150000X-0.275000X-0.150000X0.275000X-0.150000X0.275000X0.150000X0*%
%ADD24RoundRect,0.175000X-0.225000X0.175000X-0.225000X-0.175000X0.225000X-0.175000X0.225000X0.175000X0*%
%ADD25RoundRect,0.135000X-0.135000X-0.185000X0.135000X-0.185000X0.135000X0.185000X-0.135000X0.185000X0*%
G04 APERTURE END LIST*
D10*
%TO.C,J1*%
X82137500Y-51681250D03*
X82137500Y-52681250D03*
X82137500Y-53681250D03*
X82137500Y-54681250D03*
D11*
X86012500Y-50381250D03*
X86012500Y-55981250D03*
%TD*%
D12*
%TO.C,D29*%
X133350000Y-64900000D03*
X133350000Y-62100000D03*
%TD*%
%TO.C,D60*%
X185737500Y-103000000D03*
X185737500Y-100200000D03*
%TD*%
D13*
%TO.C,U2*%
X28306250Y-117106250D03*
X28306250Y-117606250D03*
X28306250Y-118106250D03*
X28306250Y-118606250D03*
X28306250Y-119106250D03*
X28306250Y-119606250D03*
X28306250Y-120106250D03*
X28306250Y-120606250D03*
X28306250Y-121106250D03*
X28306250Y-121606250D03*
X28306250Y-122106250D03*
X28306250Y-122606250D03*
D14*
X26893750Y-124018750D03*
X26393750Y-124018750D03*
X25893750Y-124018750D03*
X25393750Y-124018750D03*
X24893750Y-124018750D03*
X24393750Y-124018750D03*
X23893750Y-124018750D03*
X23393750Y-124018750D03*
X22893750Y-124018750D03*
X22393750Y-124018750D03*
X21893750Y-124018750D03*
X21393750Y-124018750D03*
D13*
X19981250Y-122606250D03*
X19981250Y-122106250D03*
X19981250Y-121606250D03*
X19981250Y-121106250D03*
X19981250Y-120606250D03*
X19981250Y-120106250D03*
X19981250Y-119606250D03*
X19981250Y-119106250D03*
X19981250Y-118606250D03*
X19981250Y-118106250D03*
X19981250Y-117606250D03*
X19981250Y-117106250D03*
D14*
X21393750Y-115693750D03*
X21893750Y-115693750D03*
X22393750Y-115693750D03*
X22893750Y-115693750D03*
X23393750Y-115693750D03*
X23893750Y-115693750D03*
X24393750Y-115693750D03*
X24893750Y-115693750D03*
X25393750Y-115693750D03*
X25893750Y-115693750D03*
X26393750Y-115693750D03*
X26893750Y-115693750D03*
%TD*%
D12*
%TO.C,D27*%
X95250000Y-64900000D03*
X95250000Y-62100000D03*
%TD*%
%TO.C,D8*%
X286543750Y-26800000D03*
X286543750Y-24000000D03*
%TD*%
D15*
%TO.C,C5*%
X20175000Y-115093750D03*
X20175000Y-114133750D03*
%TD*%
D12*
%TO.C,D10*%
X47625000Y-45850000D03*
X47625000Y-43050000D03*
%TD*%
%TO.C,D37*%
X285750000Y-64900000D03*
X285750000Y-62100000D03*
%TD*%
D16*
%TO.C,C7*%
X30807500Y-120313728D03*
X31767500Y-120313728D03*
%TD*%
D12*
%TO.C,D61*%
X204787500Y-103000000D03*
X204787500Y-100200000D03*
%TD*%
%TO.C,D30*%
X152400000Y-64900000D03*
X152400000Y-62100000D03*
%TD*%
%TO.C,D65*%
X291306250Y-103000000D03*
X291306250Y-100200000D03*
%TD*%
D15*
%TO.C,C9*%
X73606237Y-55952595D03*
X73606237Y-54992595D03*
%TD*%
D17*
%TO.C,D72*%
X195262500Y-114487500D03*
X195262500Y-117287500D03*
%TD*%
D12*
%TO.C,D42*%
X80962500Y-83950000D03*
X80962500Y-81150000D03*
%TD*%
%TO.C,D13*%
X104775000Y-45850000D03*
X104775000Y-43050000D03*
%TD*%
D17*
%TO.C,D71*%
X166687500Y-114487500D03*
X166687500Y-117287500D03*
%TD*%
D12*
%TO.C,D28*%
X114300000Y-64900000D03*
X114300000Y-62100000D03*
%TD*%
%TO.C,D62*%
X223837500Y-103000000D03*
X223837500Y-100200000D03*
%TD*%
%TO.C,D43*%
X100012500Y-83950000D03*
X100012500Y-81150000D03*
%TD*%
%TO.C,D31*%
X171450000Y-64900000D03*
X171450000Y-62100000D03*
%TD*%
%TO.C,D17*%
X180975000Y-45850000D03*
X180975000Y-43050000D03*
%TD*%
%TO.C,D3*%
X100012500Y-26800000D03*
X100012500Y-24000000D03*
%TD*%
%TO.C,D39*%
X23812500Y-83950000D03*
X23812500Y-81150000D03*
%TD*%
D18*
%TO.C,C4*%
X19547500Y-124618750D03*
X18587500Y-124618750D03*
%TD*%
D12*
%TO.C,D54*%
X71437500Y-103000000D03*
X71437500Y-100200000D03*
%TD*%
%TO.C,D6*%
X228600000Y-26800000D03*
X228600000Y-24000000D03*
%TD*%
D15*
%TO.C,C1*%
X27318750Y-113890483D03*
X27318750Y-112930483D03*
%TD*%
D12*
%TO.C,D22*%
X276225000Y-45850000D03*
X276225000Y-43050000D03*
%TD*%
%TO.C,D14*%
X123825000Y-45850000D03*
X123825000Y-43050000D03*
%TD*%
%TO.C,D11*%
X66675000Y-45850000D03*
X66675000Y-43050000D03*
%TD*%
%TO.C,D40*%
X42862500Y-83950000D03*
X42862500Y-81150000D03*
%TD*%
%TO.C,D15*%
X142875000Y-45850000D03*
X142875000Y-43050000D03*
%TD*%
%TO.C,D18*%
X200025000Y-45850000D03*
X200025000Y-43050000D03*
%TD*%
D17*
%TO.C,D67*%
X88106250Y-114487500D03*
X88106250Y-117287500D03*
%TD*%
D16*
%TO.C,C3*%
X30812236Y-121289389D03*
X31772236Y-121289389D03*
%TD*%
D12*
%TO.C,D25*%
X57150000Y-64900000D03*
X57150000Y-62100000D03*
%TD*%
%TO.C,D16*%
X161925000Y-45850000D03*
X161925000Y-43050000D03*
%TD*%
D17*
%TO.C,D69*%
X133350000Y-114487500D03*
X133350000Y-117287500D03*
%TD*%
%TO.C,D70*%
X150018750Y-114487500D03*
X150018750Y-117287500D03*
%TD*%
D12*
%TO.C,D7*%
X257175000Y-26800000D03*
X257175000Y-24000000D03*
%TD*%
%TO.C,D63*%
X242887500Y-103000000D03*
X242887500Y-100200000D03*
%TD*%
%TO.C,D5*%
X200025000Y-26800000D03*
X200025000Y-24000000D03*
%TD*%
%TO.C,D24*%
X33337500Y-64900000D03*
X33337500Y-62100000D03*
%TD*%
D19*
%TO.C,C8*%
X78368737Y-54992595D03*
X78368737Y-55952595D03*
%TD*%
D12*
%TO.C,D45*%
X138112500Y-83950000D03*
X138112500Y-81150000D03*
%TD*%
D20*
%TO.C,SW5*%
X17725000Y-107875000D03*
X17725000Y-101675000D03*
X14025000Y-107875000D03*
X14025000Y-101675000D03*
%TD*%
D17*
%TO.C,D68*%
X104775000Y-114487500D03*
X104775000Y-117287500D03*
%TD*%
D16*
%TO.C,C2*%
X29220000Y-115887500D03*
X30180000Y-115887500D03*
%TD*%
D12*
%TO.C,D33*%
X209550000Y-64900000D03*
X209550000Y-62100000D03*
%TD*%
%TO.C,D53*%
X47625000Y-103000000D03*
X47625000Y-100200000D03*
%TD*%
%TO.C,D46*%
X157162500Y-83950000D03*
X157162500Y-81150000D03*
%TD*%
%TO.C,D34*%
X228600000Y-64900000D03*
X228600000Y-62100000D03*
%TD*%
D17*
%TO.C,D73*%
X221456250Y-114487500D03*
X221456250Y-117287500D03*
%TD*%
D12*
%TO.C,D59*%
X166687500Y-103000000D03*
X166687500Y-100200000D03*
%TD*%
%TO.C,D58*%
X147637500Y-103000000D03*
X147637500Y-100200000D03*
%TD*%
%TO.C,D55*%
X90487500Y-103000000D03*
X90487500Y-100200000D03*
%TD*%
%TO.C,D56*%
X109537500Y-103000000D03*
X109537500Y-100200000D03*
%TD*%
D21*
%TO.C,U1*%
X75049987Y-56422595D03*
X75049987Y-54522595D03*
X76924987Y-55472595D03*
%TD*%
D12*
%TO.C,D50*%
X233362500Y-83950000D03*
X233362500Y-81150000D03*
%TD*%
D22*
%TO.C,C6*%
X18587500Y-115075000D03*
X18587500Y-113525000D03*
%TD*%
D12*
%TO.C,D1*%
X43656250Y-26800000D03*
X43656250Y-24000000D03*
%TD*%
%TO.C,D36*%
X266700000Y-64900000D03*
X266700000Y-62100000D03*
%TD*%
%TO.C,D9*%
X28575000Y-45850000D03*
X28575000Y-43050000D03*
%TD*%
%TO.C,D44*%
X119062500Y-83950000D03*
X119062500Y-81150000D03*
%TD*%
%TO.C,D52*%
X280987500Y-83950000D03*
X280987500Y-81150000D03*
%TD*%
D23*
%TO.C,J2*%
X83850000Y-51381250D03*
X83850000Y-52581250D03*
X83850000Y-53781250D03*
X83850000Y-54981250D03*
D24*
X87625000Y-50231250D03*
X87625000Y-56131250D03*
%TD*%
D17*
%TO.C,D66*%
X73818750Y-114487500D03*
X73818750Y-117287500D03*
%TD*%
D12*
%TO.C,D12*%
X85725000Y-45850000D03*
X85725000Y-43050000D03*
%TD*%
%TO.C,D64*%
X266700000Y-103000000D03*
X266700000Y-100200000D03*
%TD*%
%TO.C,D35*%
X247650000Y-64900000D03*
X247650000Y-62100000D03*
%TD*%
%TO.C,D51*%
X252412500Y-83950000D03*
X252412500Y-81150000D03*
%TD*%
%TO.C,D41*%
X61912500Y-83950000D03*
X61912500Y-81150000D03*
%TD*%
%TO.C,D47*%
X176212500Y-83950000D03*
X176212500Y-81150000D03*
%TD*%
%TO.C,D4*%
X128587500Y-26800000D03*
X128587500Y-24000000D03*
%TD*%
D17*
%TO.C,D74*%
X240506250Y-114487500D03*
X240506250Y-117287500D03*
%TD*%
D12*
%TO.C,D26*%
X76200000Y-65087500D03*
X76200000Y-62287500D03*
%TD*%
%TO.C,D32*%
X190500000Y-64900000D03*
X190500000Y-62100000D03*
%TD*%
%TO.C,D21*%
X257175000Y-45850000D03*
X257175000Y-43050000D03*
%TD*%
%TO.C,D48*%
X195262500Y-83950000D03*
X195262500Y-81150000D03*
%TD*%
%TO.C,D38*%
X300831250Y-64900000D03*
X300831250Y-62100000D03*
%TD*%
%TO.C,D23*%
X295275000Y-45850000D03*
X295275000Y-43050000D03*
%TD*%
%TO.C,D2*%
X71437500Y-26800000D03*
X71437500Y-24000000D03*
%TD*%
%TO.C,D57*%
X128587500Y-103000000D03*
X128587500Y-100200000D03*
%TD*%
%TO.C,D20*%
X238125000Y-45850000D03*
X238125000Y-43050000D03*
%TD*%
D25*
%TO.C,R1*%
X15365000Y-110331250D03*
X16385000Y-110331250D03*
%TD*%
D12*
%TO.C,D19*%
X219075000Y-45850000D03*
X219075000Y-43050000D03*
%TD*%
%TO.C,D49*%
X214312500Y-83950000D03*
X214312500Y-81150000D03*
%TD*%
M02*
