%TF.GenerationSoftware,KiCad,Pcbnew,(7.0.0)*%
%TF.CreationDate,2024-01-04T19:09:41+01:00*%
%TF.ProjectId,HP 2621,48502032-3632-4312-9e6b-696361645f70,rev?*%
%TF.SameCoordinates,Original*%
%TF.FileFunction,Other,Comment*%
%FSLAX46Y46*%
G04 Gerber Fmt 4.6, Leading zero omitted, Abs format (unit mm)*
G04 Created by KiCad (PCBNEW (7.0.0)) date 2024-01-04 19:09:41*
%MOMM*%
%LPD*%
G01*
G04 APERTURE LIST*
%ADD10C,0.150000*%
%ADD11C,0.030000*%
G04 APERTURE END LIST*
D10*
%TO.C,S5*%
X120658036Y-111889380D02*
X121277083Y-111889380D01*
X121277083Y-111889380D02*
X120943750Y-112270333D01*
X120943750Y-112270333D02*
X121086607Y-112270333D01*
X121086607Y-112270333D02*
X121181845Y-112317952D01*
X121181845Y-112317952D02*
X121229464Y-112365571D01*
X121229464Y-112365571D02*
X121277083Y-112460809D01*
X121277083Y-112460809D02*
X121277083Y-112698904D01*
X121277083Y-112698904D02*
X121229464Y-112794142D01*
X121229464Y-112794142D02*
X121181845Y-112841761D01*
X121181845Y-112841761D02*
X121086607Y-112889380D01*
X121086607Y-112889380D02*
X120800893Y-112889380D01*
X120800893Y-112889380D02*
X120705655Y-112841761D01*
X120705655Y-112841761D02*
X120658036Y-112794142D01*
X122134226Y-112222714D02*
X122134226Y-112889380D01*
X121705655Y-112222714D02*
X121705655Y-112746523D01*
X121705655Y-112746523D02*
X121753274Y-112841761D01*
X121753274Y-112841761D02*
X121848512Y-112889380D01*
X121848512Y-112889380D02*
X121991369Y-112889380D01*
X121991369Y-112889380D02*
X122086607Y-112841761D01*
X122086607Y-112841761D02*
X122134226Y-112794142D01*
%TO.C,S6*%
X177808036Y-111889380D02*
X178427083Y-111889380D01*
X178427083Y-111889380D02*
X178093750Y-112270333D01*
X178093750Y-112270333D02*
X178236607Y-112270333D01*
X178236607Y-112270333D02*
X178331845Y-112317952D01*
X178331845Y-112317952D02*
X178379464Y-112365571D01*
X178379464Y-112365571D02*
X178427083Y-112460809D01*
X178427083Y-112460809D02*
X178427083Y-112698904D01*
X178427083Y-112698904D02*
X178379464Y-112794142D01*
X178379464Y-112794142D02*
X178331845Y-112841761D01*
X178331845Y-112841761D02*
X178236607Y-112889380D01*
X178236607Y-112889380D02*
X177950893Y-112889380D01*
X177950893Y-112889380D02*
X177855655Y-112841761D01*
X177855655Y-112841761D02*
X177808036Y-112794142D01*
X179284226Y-112222714D02*
X179284226Y-112889380D01*
X178855655Y-112222714D02*
X178855655Y-112746523D01*
X178855655Y-112746523D02*
X178903274Y-112841761D01*
X178903274Y-112841761D02*
X178998512Y-112889380D01*
X178998512Y-112889380D02*
X179141369Y-112889380D01*
X179141369Y-112889380D02*
X179236607Y-112841761D01*
X179236607Y-112841761D02*
X179284226Y-112794142D01*
%TO.C,S1*%
X149375892Y-112889380D02*
X148804464Y-112889380D01*
X149090178Y-112889380D02*
X149090178Y-111889380D01*
X149090178Y-111889380D02*
X148994940Y-112032238D01*
X148994940Y-112032238D02*
X148899702Y-112127476D01*
X148899702Y-112127476D02*
X148804464Y-112175095D01*
X149994940Y-111889380D02*
X150090178Y-111889380D01*
X150090178Y-111889380D02*
X150185416Y-111937000D01*
X150185416Y-111937000D02*
X150233035Y-111984619D01*
X150233035Y-111984619D02*
X150280654Y-112079857D01*
X150280654Y-112079857D02*
X150328273Y-112270333D01*
X150328273Y-112270333D02*
X150328273Y-112508428D01*
X150328273Y-112508428D02*
X150280654Y-112698904D01*
X150280654Y-112698904D02*
X150233035Y-112794142D01*
X150233035Y-112794142D02*
X150185416Y-112841761D01*
X150185416Y-112841761D02*
X150090178Y-112889380D01*
X150090178Y-112889380D02*
X149994940Y-112889380D01*
X149994940Y-112889380D02*
X149899702Y-112841761D01*
X149899702Y-112841761D02*
X149852083Y-112794142D01*
X149852083Y-112794142D02*
X149804464Y-112698904D01*
X149804464Y-112698904D02*
X149756845Y-112508428D01*
X149756845Y-112508428D02*
X149756845Y-112270333D01*
X149756845Y-112270333D02*
X149804464Y-112079857D01*
X149804464Y-112079857D02*
X149852083Y-111984619D01*
X149852083Y-111984619D02*
X149899702Y-111937000D01*
X149899702Y-111937000D02*
X149994940Y-111889380D01*
X151185416Y-112222714D02*
X151185416Y-112889380D01*
X150756845Y-112222714D02*
X150756845Y-112746523D01*
X150756845Y-112746523D02*
X150804464Y-112841761D01*
X150804464Y-112841761D02*
X150899702Y-112889380D01*
X150899702Y-112889380D02*
X151042559Y-112889380D01*
X151042559Y-112889380D02*
X151137797Y-112841761D01*
X151137797Y-112841761D02*
X151185416Y-112794142D01*
%TO.C,S8*%
X187333036Y-111889380D02*
X187952083Y-111889380D01*
X187952083Y-111889380D02*
X187618750Y-112270333D01*
X187618750Y-112270333D02*
X187761607Y-112270333D01*
X187761607Y-112270333D02*
X187856845Y-112317952D01*
X187856845Y-112317952D02*
X187904464Y-112365571D01*
X187904464Y-112365571D02*
X187952083Y-112460809D01*
X187952083Y-112460809D02*
X187952083Y-112698904D01*
X187952083Y-112698904D02*
X187904464Y-112794142D01*
X187904464Y-112794142D02*
X187856845Y-112841761D01*
X187856845Y-112841761D02*
X187761607Y-112889380D01*
X187761607Y-112889380D02*
X187475893Y-112889380D01*
X187475893Y-112889380D02*
X187380655Y-112841761D01*
X187380655Y-112841761D02*
X187333036Y-112794142D01*
X188809226Y-112222714D02*
X188809226Y-112889380D01*
X188380655Y-112222714D02*
X188380655Y-112746523D01*
X188380655Y-112746523D02*
X188428274Y-112841761D01*
X188428274Y-112841761D02*
X188523512Y-112889380D01*
X188523512Y-112889380D02*
X188666369Y-112889380D01*
X188666369Y-112889380D02*
X188761607Y-112841761D01*
X188761607Y-112841761D02*
X188809226Y-112794142D01*
%TO.C,S3*%
X149756845Y-111889380D02*
X149566369Y-111889380D01*
X149566369Y-111889380D02*
X149471131Y-111937000D01*
X149471131Y-111937000D02*
X149423512Y-111984619D01*
X149423512Y-111984619D02*
X149328274Y-112127476D01*
X149328274Y-112127476D02*
X149280655Y-112317952D01*
X149280655Y-112317952D02*
X149280655Y-112698904D01*
X149280655Y-112698904D02*
X149328274Y-112794142D01*
X149328274Y-112794142D02*
X149375893Y-112841761D01*
X149375893Y-112841761D02*
X149471131Y-112889380D01*
X149471131Y-112889380D02*
X149661607Y-112889380D01*
X149661607Y-112889380D02*
X149756845Y-112841761D01*
X149756845Y-112841761D02*
X149804464Y-112794142D01*
X149804464Y-112794142D02*
X149852083Y-112698904D01*
X149852083Y-112698904D02*
X149852083Y-112460809D01*
X149852083Y-112460809D02*
X149804464Y-112365571D01*
X149804464Y-112365571D02*
X149756845Y-112317952D01*
X149756845Y-112317952D02*
X149661607Y-112270333D01*
X149661607Y-112270333D02*
X149471131Y-112270333D01*
X149471131Y-112270333D02*
X149375893Y-112317952D01*
X149375893Y-112317952D02*
X149328274Y-112365571D01*
X149328274Y-112365571D02*
X149280655Y-112460809D01*
X150709226Y-112222714D02*
X150709226Y-112889380D01*
X150280655Y-112222714D02*
X150280655Y-112746523D01*
X150280655Y-112746523D02*
X150328274Y-112841761D01*
X150328274Y-112841761D02*
X150423512Y-112889380D01*
X150423512Y-112889380D02*
X150566369Y-112889380D01*
X150566369Y-112889380D02*
X150661607Y-112841761D01*
X150661607Y-112841761D02*
X150709226Y-112794142D01*
%TO.C,S7*%
X111133036Y-111889380D02*
X111752083Y-111889380D01*
X111752083Y-111889380D02*
X111418750Y-112270333D01*
X111418750Y-112270333D02*
X111561607Y-112270333D01*
X111561607Y-112270333D02*
X111656845Y-112317952D01*
X111656845Y-112317952D02*
X111704464Y-112365571D01*
X111704464Y-112365571D02*
X111752083Y-112460809D01*
X111752083Y-112460809D02*
X111752083Y-112698904D01*
X111752083Y-112698904D02*
X111704464Y-112794142D01*
X111704464Y-112794142D02*
X111656845Y-112841761D01*
X111656845Y-112841761D02*
X111561607Y-112889380D01*
X111561607Y-112889380D02*
X111275893Y-112889380D01*
X111275893Y-112889380D02*
X111180655Y-112841761D01*
X111180655Y-112841761D02*
X111133036Y-112794142D01*
X112609226Y-112222714D02*
X112609226Y-112889380D01*
X112180655Y-112222714D02*
X112180655Y-112746523D01*
X112180655Y-112746523D02*
X112228274Y-112841761D01*
X112228274Y-112841761D02*
X112323512Y-112889380D01*
X112323512Y-112889380D02*
X112466369Y-112889380D01*
X112466369Y-112889380D02*
X112561607Y-112841761D01*
X112561607Y-112841761D02*
X112609226Y-112794142D01*
%TO.C,S9*%
X273105655Y-90140619D02*
X273153274Y-90093000D01*
X273153274Y-90093000D02*
X273248512Y-90045380D01*
X273248512Y-90045380D02*
X273486607Y-90045380D01*
X273486607Y-90045380D02*
X273581845Y-90093000D01*
X273581845Y-90093000D02*
X273629464Y-90140619D01*
X273629464Y-90140619D02*
X273677083Y-90235857D01*
X273677083Y-90235857D02*
X273677083Y-90331095D01*
X273677083Y-90331095D02*
X273629464Y-90473952D01*
X273629464Y-90473952D02*
X273058036Y-91045380D01*
X273058036Y-91045380D02*
X273677083Y-91045380D01*
X274534226Y-90378714D02*
X274534226Y-91045380D01*
X274105655Y-90378714D02*
X274105655Y-90902523D01*
X274105655Y-90902523D02*
X274153274Y-90997761D01*
X274153274Y-90997761D02*
X274248512Y-91045380D01*
X274248512Y-91045380D02*
X274391369Y-91045380D01*
X274391369Y-91045380D02*
X274486607Y-90997761D01*
X274486607Y-90997761D02*
X274534226Y-90950142D01*
D11*
%TO.C,SW5*%
X15748476Y-103323571D02*
X15548476Y-103323571D01*
X15548476Y-103323571D02*
X15748476Y-103209286D01*
X15748476Y-103209286D02*
X15548476Y-103209286D01*
X15748476Y-103085476D02*
X15738952Y-103104524D01*
X15738952Y-103104524D02*
X15729428Y-103114047D01*
X15729428Y-103114047D02*
X15710380Y-103123571D01*
X15710380Y-103123571D02*
X15653238Y-103123571D01*
X15653238Y-103123571D02*
X15634190Y-103114047D01*
X15634190Y-103114047D02*
X15624666Y-103104524D01*
X15624666Y-103104524D02*
X15615142Y-103085476D01*
X15615142Y-103085476D02*
X15615142Y-103056905D01*
X15615142Y-103056905D02*
X15624666Y-103037857D01*
X15624666Y-103037857D02*
X15634190Y-103028333D01*
X15634190Y-103028333D02*
X15653238Y-103018809D01*
X15653238Y-103018809D02*
X15710380Y-103018809D01*
X15710380Y-103018809D02*
X15729428Y-103028333D01*
X15729428Y-103028333D02*
X15738952Y-103037857D01*
X15738952Y-103037857D02*
X15748476Y-103056905D01*
X15748476Y-103056905D02*
X15748476Y-103085476D01*
X15643714Y-102746429D02*
X15643714Y-102813095D01*
X15748476Y-102813095D02*
X15548476Y-102813095D01*
X15548476Y-102813095D02*
X15548476Y-102717857D01*
X15729428Y-102641666D02*
X15738952Y-102632143D01*
X15738952Y-102632143D02*
X15748476Y-102641666D01*
X15748476Y-102641666D02*
X15738952Y-102651190D01*
X15738952Y-102651190D02*
X15729428Y-102641666D01*
X15729428Y-102641666D02*
X15748476Y-102641666D01*
X15729428Y-102432143D02*
X15738952Y-102441667D01*
X15738952Y-102441667D02*
X15748476Y-102470238D01*
X15748476Y-102470238D02*
X15748476Y-102489286D01*
X15748476Y-102489286D02*
X15738952Y-102517857D01*
X15738952Y-102517857D02*
X15719904Y-102536905D01*
X15719904Y-102536905D02*
X15700857Y-102546428D01*
X15700857Y-102546428D02*
X15662761Y-102555952D01*
X15662761Y-102555952D02*
X15634190Y-102555952D01*
X15634190Y-102555952D02*
X15596095Y-102546428D01*
X15596095Y-102546428D02*
X15577047Y-102536905D01*
X15577047Y-102536905D02*
X15558000Y-102517857D01*
X15558000Y-102517857D02*
X15548476Y-102489286D01*
X15548476Y-102489286D02*
X15548476Y-102470238D01*
X15548476Y-102470238D02*
X15558000Y-102441667D01*
X15558000Y-102441667D02*
X15567523Y-102432143D01*
X15615142Y-102260714D02*
X15748476Y-102260714D01*
X15615142Y-102346428D02*
X15719904Y-102346428D01*
X15719904Y-102346428D02*
X15738952Y-102336905D01*
X15738952Y-102336905D02*
X15748476Y-102317857D01*
X15748476Y-102317857D02*
X15748476Y-102289286D01*
X15748476Y-102289286D02*
X15738952Y-102270238D01*
X15738952Y-102270238D02*
X15729428Y-102260714D01*
X15615142Y-102074048D02*
X15615142Y-101997857D01*
X15548476Y-102045476D02*
X15719904Y-102045476D01*
X15719904Y-102045476D02*
X15738952Y-102035953D01*
X15738952Y-102035953D02*
X15748476Y-102016905D01*
X15748476Y-102016905D02*
X15748476Y-101997857D01*
X15748476Y-101931190D02*
X15615142Y-101931190D01*
X15653238Y-101931190D02*
X15634190Y-101921667D01*
X15634190Y-101921667D02*
X15624666Y-101912143D01*
X15624666Y-101912143D02*
X15615142Y-101893095D01*
X15615142Y-101893095D02*
X15615142Y-101874048D01*
X15748476Y-101721666D02*
X15643714Y-101721666D01*
X15643714Y-101721666D02*
X15624666Y-101731190D01*
X15624666Y-101731190D02*
X15615142Y-101750238D01*
X15615142Y-101750238D02*
X15615142Y-101788333D01*
X15615142Y-101788333D02*
X15624666Y-101807380D01*
X15738952Y-101721666D02*
X15748476Y-101740714D01*
X15748476Y-101740714D02*
X15748476Y-101788333D01*
X15748476Y-101788333D02*
X15738952Y-101807380D01*
X15738952Y-101807380D02*
X15719904Y-101816904D01*
X15719904Y-101816904D02*
X15700857Y-101816904D01*
X15700857Y-101816904D02*
X15681809Y-101807380D01*
X15681809Y-101807380D02*
X15672285Y-101788333D01*
X15672285Y-101788333D02*
X15672285Y-101740714D01*
X15672285Y-101740714D02*
X15662761Y-101721666D01*
X15738952Y-101540714D02*
X15748476Y-101559762D01*
X15748476Y-101559762D02*
X15748476Y-101597857D01*
X15748476Y-101597857D02*
X15738952Y-101616905D01*
X15738952Y-101616905D02*
X15729428Y-101626428D01*
X15729428Y-101626428D02*
X15710380Y-101635952D01*
X15710380Y-101635952D02*
X15653238Y-101635952D01*
X15653238Y-101635952D02*
X15634190Y-101626428D01*
X15634190Y-101626428D02*
X15624666Y-101616905D01*
X15624666Y-101616905D02*
X15615142Y-101597857D01*
X15615142Y-101597857D02*
X15615142Y-101559762D01*
X15615142Y-101559762D02*
X15624666Y-101540714D01*
X15748476Y-101454999D02*
X15548476Y-101454999D01*
X15672285Y-101435952D02*
X15748476Y-101378809D01*
X15615142Y-101378809D02*
X15691333Y-101454999D01*
X15738952Y-101302618D02*
X15748476Y-101283571D01*
X15748476Y-101283571D02*
X15748476Y-101245475D01*
X15748476Y-101245475D02*
X15738952Y-101226428D01*
X15738952Y-101226428D02*
X15719904Y-101216904D01*
X15719904Y-101216904D02*
X15710380Y-101216904D01*
X15710380Y-101216904D02*
X15691333Y-101226428D01*
X15691333Y-101226428D02*
X15681809Y-101245475D01*
X15681809Y-101245475D02*
X15681809Y-101274047D01*
X15681809Y-101274047D02*
X15672285Y-101293094D01*
X15672285Y-101293094D02*
X15653238Y-101302618D01*
X15653238Y-101302618D02*
X15643714Y-101302618D01*
X15643714Y-101302618D02*
X15624666Y-101293094D01*
X15624666Y-101293094D02*
X15615142Y-101274047D01*
X15615142Y-101274047D02*
X15615142Y-101245475D01*
X15615142Y-101245475D02*
X15624666Y-101226428D01*
X15748476Y-108323571D02*
X15548476Y-108323571D01*
X15548476Y-108323571D02*
X15748476Y-108209286D01*
X15748476Y-108209286D02*
X15548476Y-108209286D01*
X15748476Y-108085476D02*
X15738952Y-108104524D01*
X15738952Y-108104524D02*
X15729428Y-108114047D01*
X15729428Y-108114047D02*
X15710380Y-108123571D01*
X15710380Y-108123571D02*
X15653238Y-108123571D01*
X15653238Y-108123571D02*
X15634190Y-108114047D01*
X15634190Y-108114047D02*
X15624666Y-108104524D01*
X15624666Y-108104524D02*
X15615142Y-108085476D01*
X15615142Y-108085476D02*
X15615142Y-108056905D01*
X15615142Y-108056905D02*
X15624666Y-108037857D01*
X15624666Y-108037857D02*
X15634190Y-108028333D01*
X15634190Y-108028333D02*
X15653238Y-108018809D01*
X15653238Y-108018809D02*
X15710380Y-108018809D01*
X15710380Y-108018809D02*
X15729428Y-108028333D01*
X15729428Y-108028333D02*
X15738952Y-108037857D01*
X15738952Y-108037857D02*
X15748476Y-108056905D01*
X15748476Y-108056905D02*
X15748476Y-108085476D01*
X15643714Y-107746429D02*
X15643714Y-107813095D01*
X15748476Y-107813095D02*
X15548476Y-107813095D01*
X15548476Y-107813095D02*
X15548476Y-107717857D01*
X15729428Y-107641666D02*
X15738952Y-107632143D01*
X15738952Y-107632143D02*
X15748476Y-107641666D01*
X15748476Y-107641666D02*
X15738952Y-107651190D01*
X15738952Y-107651190D02*
X15729428Y-107641666D01*
X15729428Y-107641666D02*
X15748476Y-107641666D01*
X15729428Y-107432143D02*
X15738952Y-107441667D01*
X15738952Y-107441667D02*
X15748476Y-107470238D01*
X15748476Y-107470238D02*
X15748476Y-107489286D01*
X15748476Y-107489286D02*
X15738952Y-107517857D01*
X15738952Y-107517857D02*
X15719904Y-107536905D01*
X15719904Y-107536905D02*
X15700857Y-107546428D01*
X15700857Y-107546428D02*
X15662761Y-107555952D01*
X15662761Y-107555952D02*
X15634190Y-107555952D01*
X15634190Y-107555952D02*
X15596095Y-107546428D01*
X15596095Y-107546428D02*
X15577047Y-107536905D01*
X15577047Y-107536905D02*
X15558000Y-107517857D01*
X15558000Y-107517857D02*
X15548476Y-107489286D01*
X15548476Y-107489286D02*
X15548476Y-107470238D01*
X15548476Y-107470238D02*
X15558000Y-107441667D01*
X15558000Y-107441667D02*
X15567523Y-107432143D01*
X15615142Y-107260714D02*
X15748476Y-107260714D01*
X15615142Y-107346428D02*
X15719904Y-107346428D01*
X15719904Y-107346428D02*
X15738952Y-107336905D01*
X15738952Y-107336905D02*
X15748476Y-107317857D01*
X15748476Y-107317857D02*
X15748476Y-107289286D01*
X15748476Y-107289286D02*
X15738952Y-107270238D01*
X15738952Y-107270238D02*
X15729428Y-107260714D01*
X15615142Y-107074048D02*
X15615142Y-106997857D01*
X15548476Y-107045476D02*
X15719904Y-107045476D01*
X15719904Y-107045476D02*
X15738952Y-107035953D01*
X15738952Y-107035953D02*
X15748476Y-107016905D01*
X15748476Y-107016905D02*
X15748476Y-106997857D01*
X15748476Y-106931190D02*
X15615142Y-106931190D01*
X15653238Y-106931190D02*
X15634190Y-106921667D01*
X15634190Y-106921667D02*
X15624666Y-106912143D01*
X15624666Y-106912143D02*
X15615142Y-106893095D01*
X15615142Y-106893095D02*
X15615142Y-106874048D01*
X15748476Y-106721666D02*
X15643714Y-106721666D01*
X15643714Y-106721666D02*
X15624666Y-106731190D01*
X15624666Y-106731190D02*
X15615142Y-106750238D01*
X15615142Y-106750238D02*
X15615142Y-106788333D01*
X15615142Y-106788333D02*
X15624666Y-106807380D01*
X15738952Y-106721666D02*
X15748476Y-106740714D01*
X15748476Y-106740714D02*
X15748476Y-106788333D01*
X15748476Y-106788333D02*
X15738952Y-106807380D01*
X15738952Y-106807380D02*
X15719904Y-106816904D01*
X15719904Y-106816904D02*
X15700857Y-106816904D01*
X15700857Y-106816904D02*
X15681809Y-106807380D01*
X15681809Y-106807380D02*
X15672285Y-106788333D01*
X15672285Y-106788333D02*
X15672285Y-106740714D01*
X15672285Y-106740714D02*
X15662761Y-106721666D01*
X15738952Y-106540714D02*
X15748476Y-106559762D01*
X15748476Y-106559762D02*
X15748476Y-106597857D01*
X15748476Y-106597857D02*
X15738952Y-106616905D01*
X15738952Y-106616905D02*
X15729428Y-106626428D01*
X15729428Y-106626428D02*
X15710380Y-106635952D01*
X15710380Y-106635952D02*
X15653238Y-106635952D01*
X15653238Y-106635952D02*
X15634190Y-106626428D01*
X15634190Y-106626428D02*
X15624666Y-106616905D01*
X15624666Y-106616905D02*
X15615142Y-106597857D01*
X15615142Y-106597857D02*
X15615142Y-106559762D01*
X15615142Y-106559762D02*
X15624666Y-106540714D01*
X15748476Y-106454999D02*
X15548476Y-106454999D01*
X15672285Y-106435952D02*
X15748476Y-106378809D01*
X15615142Y-106378809D02*
X15691333Y-106454999D01*
X15738952Y-106302618D02*
X15748476Y-106283571D01*
X15748476Y-106283571D02*
X15748476Y-106245475D01*
X15748476Y-106245475D02*
X15738952Y-106226428D01*
X15738952Y-106226428D02*
X15719904Y-106216904D01*
X15719904Y-106216904D02*
X15710380Y-106216904D01*
X15710380Y-106216904D02*
X15691333Y-106226428D01*
X15691333Y-106226428D02*
X15681809Y-106245475D01*
X15681809Y-106245475D02*
X15681809Y-106274047D01*
X15681809Y-106274047D02*
X15672285Y-106293094D01*
X15672285Y-106293094D02*
X15653238Y-106302618D01*
X15653238Y-106302618D02*
X15643714Y-106302618D01*
X15643714Y-106302618D02*
X15624666Y-106293094D01*
X15624666Y-106293094D02*
X15615142Y-106274047D01*
X15615142Y-106274047D02*
X15615142Y-106245475D01*
X15615142Y-106245475D02*
X15624666Y-106226428D01*
X16148476Y-103473094D02*
X15948476Y-103473094D01*
X16148476Y-103358809D02*
X16034190Y-103444523D01*
X15948476Y-103358809D02*
X16062761Y-103473094D01*
X16043714Y-103273094D02*
X16043714Y-103206428D01*
X16148476Y-103177856D02*
X16148476Y-103273094D01*
X16148476Y-103273094D02*
X15948476Y-103273094D01*
X15948476Y-103273094D02*
X15948476Y-103177856D01*
X16043714Y-103092142D02*
X16043714Y-103025476D01*
X16148476Y-102996904D02*
X16148476Y-103092142D01*
X16148476Y-103092142D02*
X15948476Y-103092142D01*
X15948476Y-103092142D02*
X15948476Y-102996904D01*
X16148476Y-102911190D02*
X15948476Y-102911190D01*
X15948476Y-102911190D02*
X15948476Y-102835000D01*
X15948476Y-102835000D02*
X15958000Y-102815952D01*
X15958000Y-102815952D02*
X15967523Y-102806429D01*
X15967523Y-102806429D02*
X15986571Y-102796905D01*
X15986571Y-102796905D02*
X16015142Y-102796905D01*
X16015142Y-102796905D02*
X16034190Y-102806429D01*
X16034190Y-102806429D02*
X16043714Y-102815952D01*
X16043714Y-102815952D02*
X16053238Y-102835000D01*
X16053238Y-102835000D02*
X16053238Y-102911190D01*
X16072285Y-102711190D02*
X16072285Y-102558810D01*
X15948476Y-102425476D02*
X15948476Y-102387381D01*
X15948476Y-102387381D02*
X15958000Y-102368333D01*
X15958000Y-102368333D02*
X15977047Y-102349286D01*
X15977047Y-102349286D02*
X16015142Y-102339762D01*
X16015142Y-102339762D02*
X16081809Y-102339762D01*
X16081809Y-102339762D02*
X16119904Y-102349286D01*
X16119904Y-102349286D02*
X16138952Y-102368333D01*
X16138952Y-102368333D02*
X16148476Y-102387381D01*
X16148476Y-102387381D02*
X16148476Y-102425476D01*
X16148476Y-102425476D02*
X16138952Y-102444524D01*
X16138952Y-102444524D02*
X16119904Y-102463571D01*
X16119904Y-102463571D02*
X16081809Y-102473095D01*
X16081809Y-102473095D02*
X16015142Y-102473095D01*
X16015142Y-102473095D02*
X15977047Y-102463571D01*
X15977047Y-102463571D02*
X15958000Y-102444524D01*
X15958000Y-102444524D02*
X15948476Y-102425476D01*
X15948476Y-102254047D02*
X16110380Y-102254047D01*
X16110380Y-102254047D02*
X16129428Y-102244524D01*
X16129428Y-102244524D02*
X16138952Y-102235000D01*
X16138952Y-102235000D02*
X16148476Y-102215952D01*
X16148476Y-102215952D02*
X16148476Y-102177857D01*
X16148476Y-102177857D02*
X16138952Y-102158809D01*
X16138952Y-102158809D02*
X16129428Y-102149286D01*
X16129428Y-102149286D02*
X16110380Y-102139762D01*
X16110380Y-102139762D02*
X15948476Y-102139762D01*
X15948476Y-102073095D02*
X15948476Y-101958809D01*
X16148476Y-102015952D02*
X15948476Y-102015952D01*
X15948476Y-101791190D02*
X15948476Y-101657857D01*
X15948476Y-101657857D02*
X16148476Y-101791190D01*
X16148476Y-101791190D02*
X16148476Y-101657857D01*
X15948476Y-101543571D02*
X15948476Y-101505476D01*
X15948476Y-101505476D02*
X15958000Y-101486428D01*
X15958000Y-101486428D02*
X15977047Y-101467381D01*
X15977047Y-101467381D02*
X16015142Y-101457857D01*
X16015142Y-101457857D02*
X16081809Y-101457857D01*
X16081809Y-101457857D02*
X16119904Y-101467381D01*
X16119904Y-101467381D02*
X16138952Y-101486428D01*
X16138952Y-101486428D02*
X16148476Y-101505476D01*
X16148476Y-101505476D02*
X16148476Y-101543571D01*
X16148476Y-101543571D02*
X16138952Y-101562619D01*
X16138952Y-101562619D02*
X16119904Y-101581666D01*
X16119904Y-101581666D02*
X16081809Y-101591190D01*
X16081809Y-101591190D02*
X16015142Y-101591190D01*
X16015142Y-101591190D02*
X15977047Y-101581666D01*
X15977047Y-101581666D02*
X15958000Y-101562619D01*
X15958000Y-101562619D02*
X15948476Y-101543571D01*
X16148476Y-101372142D02*
X15948476Y-101372142D01*
X15948476Y-101372142D02*
X16148476Y-101257857D01*
X16148476Y-101257857D02*
X15948476Y-101257857D01*
X16043714Y-101162618D02*
X16043714Y-101095952D01*
X16148476Y-101067380D02*
X16148476Y-101162618D01*
X16148476Y-101162618D02*
X15948476Y-101162618D01*
X15948476Y-101162618D02*
X15948476Y-101067380D01*
X16148476Y-108473094D02*
X15948476Y-108473094D01*
X16148476Y-108358809D02*
X16034190Y-108444523D01*
X15948476Y-108358809D02*
X16062761Y-108473094D01*
X16043714Y-108273094D02*
X16043714Y-108206428D01*
X16148476Y-108177856D02*
X16148476Y-108273094D01*
X16148476Y-108273094D02*
X15948476Y-108273094D01*
X15948476Y-108273094D02*
X15948476Y-108177856D01*
X16043714Y-108092142D02*
X16043714Y-108025476D01*
X16148476Y-107996904D02*
X16148476Y-108092142D01*
X16148476Y-108092142D02*
X15948476Y-108092142D01*
X15948476Y-108092142D02*
X15948476Y-107996904D01*
X16148476Y-107911190D02*
X15948476Y-107911190D01*
X15948476Y-107911190D02*
X15948476Y-107835000D01*
X15948476Y-107835000D02*
X15958000Y-107815952D01*
X15958000Y-107815952D02*
X15967523Y-107806429D01*
X15967523Y-107806429D02*
X15986571Y-107796905D01*
X15986571Y-107796905D02*
X16015142Y-107796905D01*
X16015142Y-107796905D02*
X16034190Y-107806429D01*
X16034190Y-107806429D02*
X16043714Y-107815952D01*
X16043714Y-107815952D02*
X16053238Y-107835000D01*
X16053238Y-107835000D02*
X16053238Y-107911190D01*
X16072285Y-107711190D02*
X16072285Y-107558810D01*
X15948476Y-107425476D02*
X15948476Y-107387381D01*
X15948476Y-107387381D02*
X15958000Y-107368333D01*
X15958000Y-107368333D02*
X15977047Y-107349286D01*
X15977047Y-107349286D02*
X16015142Y-107339762D01*
X16015142Y-107339762D02*
X16081809Y-107339762D01*
X16081809Y-107339762D02*
X16119904Y-107349286D01*
X16119904Y-107349286D02*
X16138952Y-107368333D01*
X16138952Y-107368333D02*
X16148476Y-107387381D01*
X16148476Y-107387381D02*
X16148476Y-107425476D01*
X16148476Y-107425476D02*
X16138952Y-107444524D01*
X16138952Y-107444524D02*
X16119904Y-107463571D01*
X16119904Y-107463571D02*
X16081809Y-107473095D01*
X16081809Y-107473095D02*
X16015142Y-107473095D01*
X16015142Y-107473095D02*
X15977047Y-107463571D01*
X15977047Y-107463571D02*
X15958000Y-107444524D01*
X15958000Y-107444524D02*
X15948476Y-107425476D01*
X15948476Y-107254047D02*
X16110380Y-107254047D01*
X16110380Y-107254047D02*
X16129428Y-107244524D01*
X16129428Y-107244524D02*
X16138952Y-107235000D01*
X16138952Y-107235000D02*
X16148476Y-107215952D01*
X16148476Y-107215952D02*
X16148476Y-107177857D01*
X16148476Y-107177857D02*
X16138952Y-107158809D01*
X16138952Y-107158809D02*
X16129428Y-107149286D01*
X16129428Y-107149286D02*
X16110380Y-107139762D01*
X16110380Y-107139762D02*
X15948476Y-107139762D01*
X15948476Y-107073095D02*
X15948476Y-106958809D01*
X16148476Y-107015952D02*
X15948476Y-107015952D01*
X15948476Y-106791190D02*
X15948476Y-106657857D01*
X15948476Y-106657857D02*
X16148476Y-106791190D01*
X16148476Y-106791190D02*
X16148476Y-106657857D01*
X15948476Y-106543571D02*
X15948476Y-106505476D01*
X15948476Y-106505476D02*
X15958000Y-106486428D01*
X15958000Y-106486428D02*
X15977047Y-106467381D01*
X15977047Y-106467381D02*
X16015142Y-106457857D01*
X16015142Y-106457857D02*
X16081809Y-106457857D01*
X16081809Y-106457857D02*
X16119904Y-106467381D01*
X16119904Y-106467381D02*
X16138952Y-106486428D01*
X16138952Y-106486428D02*
X16148476Y-106505476D01*
X16148476Y-106505476D02*
X16148476Y-106543571D01*
X16148476Y-106543571D02*
X16138952Y-106562619D01*
X16138952Y-106562619D02*
X16119904Y-106581666D01*
X16119904Y-106581666D02*
X16081809Y-106591190D01*
X16081809Y-106591190D02*
X16015142Y-106591190D01*
X16015142Y-106591190D02*
X15977047Y-106581666D01*
X15977047Y-106581666D02*
X15958000Y-106562619D01*
X15958000Y-106562619D02*
X15948476Y-106543571D01*
X16148476Y-106372142D02*
X15948476Y-106372142D01*
X15948476Y-106372142D02*
X16148476Y-106257857D01*
X16148476Y-106257857D02*
X15948476Y-106257857D01*
X16043714Y-106162618D02*
X16043714Y-106095952D01*
X16148476Y-106067380D02*
X16148476Y-106162618D01*
X16148476Y-106162618D02*
X15948476Y-106162618D01*
X15948476Y-106162618D02*
X15948476Y-106067380D01*
%TD*%
M02*
