%TF.GenerationSoftware,KiCad,Pcbnew,(7.0.0)*%
%TF.CreationDate,2024-01-04T19:09:41+01:00*%
%TF.ProjectId,HP 2621,48502032-3632-4312-9e6b-696361645f70,rev?*%
%TF.SameCoordinates,Original*%
%TF.FileFunction,Legend,Top*%
%TF.FilePolarity,Positive*%
%FSLAX46Y46*%
G04 Gerber Fmt 4.6, Leading zero omitted, Abs format (unit mm)*
G04 Created by KiCad (PCBNEW (7.0.0)) date 2024-01-04 19:09:41*
%MOMM*%
%LPD*%
G01*
G04 APERTURE LIST*
%ADD10C,0.600000*%
%ADD11C,0.120000*%
%ADD12C,1.750000*%
%ADD13C,3.987800*%
%ADD14C,3.048000*%
G04 APERTURE END LIST*
D10*
X254525892Y-122060535D02*
X254525892Y-116060535D01*
X254525892Y-118917678D02*
X257954463Y-118917678D01*
X257954463Y-122060535D02*
X257954463Y-116060535D01*
X260811606Y-122060535D02*
X260811606Y-116060535D01*
X260811606Y-116060535D02*
X263097320Y-116060535D01*
X263097320Y-116060535D02*
X263668749Y-116346250D01*
X263668749Y-116346250D02*
X263954463Y-116631964D01*
X263954463Y-116631964D02*
X264240177Y-117203392D01*
X264240177Y-117203392D02*
X264240177Y-118060535D01*
X264240177Y-118060535D02*
X263954463Y-118631964D01*
X263954463Y-118631964D02*
X263668749Y-118917678D01*
X263668749Y-118917678D02*
X263097320Y-119203392D01*
X263097320Y-119203392D02*
X260811606Y-119203392D01*
X266525892Y-116631964D02*
X266811606Y-116346250D01*
X266811606Y-116346250D02*
X267383035Y-116060535D01*
X267383035Y-116060535D02*
X268811606Y-116060535D01*
X268811606Y-116060535D02*
X269383035Y-116346250D01*
X269383035Y-116346250D02*
X269668749Y-116631964D01*
X269668749Y-116631964D02*
X269954463Y-117203392D01*
X269954463Y-117203392D02*
X269954463Y-117774821D01*
X269954463Y-117774821D02*
X269668749Y-118631964D01*
X269668749Y-118631964D02*
X266240177Y-122060535D01*
X266240177Y-122060535D02*
X269954463Y-122060535D01*
X275097321Y-116060535D02*
X273954463Y-116060535D01*
X273954463Y-116060535D02*
X273383035Y-116346250D01*
X273383035Y-116346250D02*
X273097321Y-116631964D01*
X273097321Y-116631964D02*
X272525892Y-117489107D01*
X272525892Y-117489107D02*
X272240178Y-118631964D01*
X272240178Y-118631964D02*
X272240178Y-120917678D01*
X272240178Y-120917678D02*
X272525892Y-121489107D01*
X272525892Y-121489107D02*
X272811606Y-121774821D01*
X272811606Y-121774821D02*
X273383035Y-122060535D01*
X273383035Y-122060535D02*
X274525892Y-122060535D01*
X274525892Y-122060535D02*
X275097321Y-121774821D01*
X275097321Y-121774821D02*
X275383035Y-121489107D01*
X275383035Y-121489107D02*
X275668749Y-120917678D01*
X275668749Y-120917678D02*
X275668749Y-119489107D01*
X275668749Y-119489107D02*
X275383035Y-118917678D01*
X275383035Y-118917678D02*
X275097321Y-118631964D01*
X275097321Y-118631964D02*
X274525892Y-118346250D01*
X274525892Y-118346250D02*
X273383035Y-118346250D01*
X273383035Y-118346250D02*
X272811606Y-118631964D01*
X272811606Y-118631964D02*
X272525892Y-118917678D01*
X272525892Y-118917678D02*
X272240178Y-119489107D01*
X281383035Y-122060535D02*
X277954464Y-122060535D01*
X279668749Y-122060535D02*
X279668749Y-116060535D01*
X279668749Y-116060535D02*
X279097321Y-116917678D01*
X279097321Y-116917678D02*
X278525892Y-117489107D01*
X278525892Y-117489107D02*
X277954464Y-117774821D01*
X283668750Y-116631964D02*
X283954464Y-116346250D01*
X283954464Y-116346250D02*
X284525893Y-116060535D01*
X284525893Y-116060535D02*
X285954464Y-116060535D01*
X285954464Y-116060535D02*
X286525893Y-116346250D01*
X286525893Y-116346250D02*
X286811607Y-116631964D01*
X286811607Y-116631964D02*
X287097321Y-117203392D01*
X287097321Y-117203392D02*
X287097321Y-117774821D01*
X287097321Y-117774821D02*
X286811607Y-118631964D01*
X286811607Y-118631964D02*
X283383035Y-122060535D01*
X283383035Y-122060535D02*
X287097321Y-122060535D01*
D11*
%TO.C,SW4*%
X144118750Y-114550000D02*
X146518750Y-114550000D01*
X144118750Y-118650000D02*
X144118750Y-114550000D01*
X144118750Y-122650000D02*
X144118750Y-126750000D01*
X144118750Y-126750000D02*
X155918750Y-126750000D01*
X148718750Y-114550000D02*
X151318750Y-114550000D01*
X149718750Y-126150000D02*
X150318750Y-126150000D01*
X150018750Y-126450000D02*
X149718750Y-126150000D01*
X150318750Y-126150000D02*
X150018750Y-126450000D01*
X153518750Y-114550000D02*
X155918750Y-114550000D01*
X155918750Y-114550000D02*
X155918750Y-118650000D01*
X155918750Y-122650000D02*
X155918750Y-126750000D01*
X152018750Y-120650000D02*
G75*
G03*
X152018750Y-120650000I-2000000J0D01*
G01*
%TO.C,SW3*%
X277468750Y-95500000D02*
X279868750Y-95500000D01*
X277468750Y-99600000D02*
X277468750Y-95500000D01*
X277468750Y-103600000D02*
X277468750Y-107700000D01*
X277468750Y-107700000D02*
X289268750Y-107700000D01*
X282068750Y-95500000D02*
X284668750Y-95500000D01*
X283068750Y-107100000D02*
X283668750Y-107100000D01*
X283368750Y-107400000D02*
X283068750Y-107100000D01*
X283668750Y-107100000D02*
X283368750Y-107400000D01*
X286868750Y-95500000D02*
X289268750Y-95500000D01*
X289268750Y-95500000D02*
X289268750Y-99600000D01*
X289268750Y-103600000D02*
X289268750Y-107700000D01*
X285368750Y-101600000D02*
G75*
G03*
X285368750Y-101600000I-2000000J0D01*
G01*
%TO.C,SW2*%
X272706250Y-19300000D02*
X275106250Y-19300000D01*
X272706250Y-23400000D02*
X272706250Y-19300000D01*
X272706250Y-27400000D02*
X272706250Y-31500000D01*
X272706250Y-31500000D02*
X284506250Y-31500000D01*
X277306250Y-19300000D02*
X279906250Y-19300000D01*
X278306250Y-30900000D02*
X278906250Y-30900000D01*
X278606250Y-31200000D02*
X278306250Y-30900000D01*
X278906250Y-30900000D02*
X278606250Y-31200000D01*
X282106250Y-19300000D02*
X284506250Y-19300000D01*
X284506250Y-19300000D02*
X284506250Y-23400000D01*
X284506250Y-27400000D02*
X284506250Y-31500000D01*
X280606250Y-25400000D02*
G75*
G03*
X280606250Y-25400000I-2000000J0D01*
G01*
%TO.C,SW1*%
X29818750Y-19300000D02*
X32218750Y-19300000D01*
X29818750Y-23400000D02*
X29818750Y-19300000D01*
X29818750Y-27400000D02*
X29818750Y-31500000D01*
X29818750Y-31500000D02*
X41618750Y-31500000D01*
X34418750Y-19300000D02*
X37018750Y-19300000D01*
X35418750Y-30900000D02*
X36018750Y-30900000D01*
X35718750Y-31200000D02*
X35418750Y-30900000D01*
X36018750Y-30900000D02*
X35718750Y-31200000D01*
X39218750Y-19300000D02*
X41618750Y-19300000D01*
X41618750Y-19300000D02*
X41618750Y-23400000D01*
X41618750Y-27400000D02*
X41618750Y-31500000D01*
X37718750Y-25400000D02*
G75*
G03*
X37718750Y-25400000I-2000000J0D01*
G01*
%TD*%
%LPC*%
D12*
%TO.C,MX66*%
X59213750Y-120650000D03*
D13*
X64293750Y-120650000D03*
D12*
X69373750Y-120650000D03*
%TD*%
%TO.C,MX6*%
X216376250Y-25400000D03*
D13*
X221456250Y-25400000D03*
D12*
X226536250Y-25400000D03*
%TD*%
%TO.C,MX35*%
X235426250Y-63500000D03*
D13*
X240506250Y-63500000D03*
D12*
X245586250Y-63500000D03*
%TD*%
%TO.C,MX19*%
X206851250Y-44450000D03*
D13*
X211931250Y-44450000D03*
D12*
X217011250Y-44450000D03*
%TD*%
%TO.C,MX81*%
X116363750Y-120650000D03*
D13*
X121443750Y-120650000D03*
D12*
X126523750Y-120650000D03*
%TD*%
%TO.C,MX47*%
X163988750Y-82550000D03*
D13*
X169068750Y-82550000D03*
D12*
X174148750Y-82550000D03*
%TD*%
%TO.C,MX37*%
X273526250Y-63500000D03*
D13*
X278606250Y-63500000D03*
D12*
X283686250Y-63500000D03*
%TD*%
%TO.C,MX73*%
X211613750Y-120650000D03*
D13*
X216693750Y-120650000D03*
D12*
X221773750Y-120650000D03*
%TD*%
%TO.C,MX5*%
X187801250Y-25400000D03*
D13*
X192881250Y-25400000D03*
D12*
X197961250Y-25400000D03*
%TD*%
%TO.C,MX28*%
X102076250Y-63500000D03*
D13*
X107156250Y-63500000D03*
D12*
X112236250Y-63500000D03*
%TD*%
%TO.C,MX75*%
X63976250Y-120650000D03*
D13*
X69056250Y-120650000D03*
D12*
X74136250Y-120650000D03*
%TD*%
%TO.C,MX33*%
X197326250Y-63500000D03*
D13*
X202406250Y-63500000D03*
D12*
X207486250Y-63500000D03*
%TD*%
%TO.C,MX49*%
X202088750Y-82550000D03*
D13*
X207168750Y-82550000D03*
D12*
X212248750Y-82550000D03*
%TD*%
%TO.C,MX34*%
X216376250Y-63500000D03*
D13*
X221456250Y-63500000D03*
D12*
X226536250Y-63500000D03*
%TD*%
D14*
%TO.C,S5*%
X140493750Y-127635000D03*
D13*
X140493750Y-112395000D03*
D14*
X102393750Y-127635000D03*
D13*
X102393750Y-112395000D03*
%TD*%
D12*
%TO.C,MX65*%
X278288750Y-101600000D03*
D13*
X283368750Y-101600000D03*
D12*
X288448750Y-101600000D03*
%TD*%
D14*
%TO.C,S6*%
X197643750Y-127635000D03*
D13*
X197643750Y-112395000D03*
D14*
X159543750Y-127635000D03*
D13*
X159543750Y-112395000D03*
%TD*%
D12*
%TO.C,MX50*%
X221138750Y-82550000D03*
D13*
X226218750Y-82550000D03*
D12*
X231298750Y-82550000D03*
%TD*%
%TO.C,MX56*%
X97313750Y-101600000D03*
D13*
X102393750Y-101600000D03*
D12*
X107473750Y-101600000D03*
%TD*%
%TO.C,MX38*%
X292576250Y-63500000D03*
D13*
X297656250Y-63500000D03*
D12*
X302736250Y-63500000D03*
%TD*%
%TO.C,MX4*%
X116363750Y-25400000D03*
D13*
X121443750Y-25400000D03*
D12*
X126523750Y-25400000D03*
%TD*%
%TO.C,MX72*%
X190182500Y-120650000D03*
D13*
X195262500Y-120650000D03*
D12*
X200342500Y-120650000D03*
%TD*%
%TO.C,MX63*%
X230663750Y-101600000D03*
D13*
X235743750Y-101600000D03*
D12*
X240823750Y-101600000D03*
%TD*%
%TO.C,MX64*%
X254476250Y-101600000D03*
D13*
X259556250Y-101600000D03*
D12*
X264636250Y-101600000D03*
%TD*%
%TO.C,MX57*%
X116363750Y-101600000D03*
D13*
X121443750Y-101600000D03*
D12*
X126523750Y-101600000D03*
%TD*%
%TO.C,MX44*%
X106838750Y-82550000D03*
D13*
X111918750Y-82550000D03*
D12*
X116998750Y-82550000D03*
%TD*%
%TO.C,MX12*%
X73501250Y-44450000D03*
D13*
X78581250Y-44450000D03*
D12*
X83661250Y-44450000D03*
%TD*%
%TO.C,MX24*%
X21113750Y-63500000D03*
D13*
X26193750Y-63500000D03*
D12*
X31273750Y-63500000D03*
%TD*%
%TO.C,MX62*%
X211613750Y-101600000D03*
D13*
X216693750Y-101600000D03*
D12*
X221773750Y-101600000D03*
%TD*%
%TO.C,MX9*%
X16351250Y-44450000D03*
D13*
X21431250Y-44450000D03*
D12*
X26511250Y-44450000D03*
%TD*%
%TO.C,MX22*%
X264001250Y-44450000D03*
D13*
X269081250Y-44450000D03*
D12*
X274161250Y-44450000D03*
%TD*%
%TO.C,MX26*%
X63976250Y-63500000D03*
D13*
X69056250Y-63500000D03*
D12*
X74136250Y-63500000D03*
%TD*%
%TO.C,MX61*%
X192563750Y-101600000D03*
D13*
X197643750Y-101600000D03*
D12*
X202723750Y-101600000D03*
%TD*%
%TO.C,MX53*%
X35401250Y-101600000D03*
D13*
X40481250Y-101600000D03*
D12*
X45561250Y-101600000D03*
%TD*%
%TO.C,MX16*%
X149701250Y-44450000D03*
D13*
X154781250Y-44450000D03*
D12*
X159861250Y-44450000D03*
%TD*%
D14*
%TO.C,S1*%
X216693750Y-127635000D03*
D13*
X216693750Y-112395000D03*
D14*
X207168750Y-127635000D03*
D13*
X207168750Y-112395000D03*
D14*
X92868750Y-127635000D03*
D13*
X92868750Y-112395000D03*
D14*
X83343750Y-127635000D03*
D13*
X83343750Y-112395000D03*
%TD*%
D12*
%TO.C,MX41*%
X49688750Y-82550000D03*
D13*
X54768750Y-82550000D03*
D12*
X59848750Y-82550000D03*
%TD*%
%TO.C,MX74*%
X230663750Y-120650000D03*
D13*
X235743750Y-120650000D03*
D12*
X240823750Y-120650000D03*
%TD*%
%TO.C,MX21*%
X244951250Y-44450000D03*
D13*
X250031250Y-44450000D03*
D12*
X255111250Y-44450000D03*
%TD*%
%TO.C,MX77*%
X90170000Y-120650000D03*
D13*
X95250000Y-120650000D03*
D12*
X100330000Y-120650000D03*
%TD*%
%TO.C,MX54*%
X59213750Y-101600000D03*
D13*
X64293750Y-101600000D03*
D12*
X69373750Y-101600000D03*
%TD*%
%TO.C,MX69*%
X128270000Y-120650000D03*
D13*
X133350000Y-120650000D03*
D12*
X138430000Y-120650000D03*
%TD*%
%TO.C,MX80*%
X171132500Y-120650000D03*
D13*
X176212500Y-120650000D03*
D12*
X181292500Y-120650000D03*
%TD*%
%TO.C,MX48*%
X183038750Y-82550000D03*
D13*
X188118750Y-82550000D03*
D12*
X193198750Y-82550000D03*
%TD*%
%TO.C,MX67*%
X78263750Y-120650000D03*
D13*
X83343750Y-120650000D03*
D12*
X88423750Y-120650000D03*
%TD*%
%TO.C,MX15*%
X130651250Y-44450000D03*
D13*
X135731250Y-44450000D03*
D12*
X140811250Y-44450000D03*
%TD*%
%TO.C,MX29*%
X121126250Y-63500000D03*
D13*
X126206250Y-63500000D03*
D12*
X131286250Y-63500000D03*
%TD*%
D14*
%TO.C,S8*%
X207168750Y-127635000D03*
D13*
X207168750Y-112395000D03*
D14*
X169068750Y-127635000D03*
D13*
X169068750Y-112395000D03*
%TD*%
D12*
%TO.C,MX13*%
X92551250Y-44450000D03*
D13*
X97631250Y-44450000D03*
D12*
X102711250Y-44450000D03*
%TD*%
D14*
%TO.C,S3*%
X197643750Y-127635000D03*
D13*
X197643750Y-112395000D03*
D14*
X102393750Y-127635000D03*
D13*
X102393750Y-112395000D03*
%TD*%
D12*
%TO.C,MX36*%
X254476250Y-63500000D03*
D13*
X259556250Y-63500000D03*
D12*
X264636250Y-63500000D03*
%TD*%
%TO.C,MX18*%
X187801250Y-44450000D03*
D13*
X192881250Y-44450000D03*
D12*
X197961250Y-44450000D03*
%TD*%
%TO.C,MX43*%
X87788750Y-82550000D03*
D13*
X92868750Y-82550000D03*
D12*
X97948750Y-82550000D03*
%TD*%
%TO.C,MX42*%
X68738750Y-82550000D03*
D13*
X73818750Y-82550000D03*
D12*
X78898750Y-82550000D03*
%TD*%
%TO.C,MX40*%
X30638750Y-82550000D03*
D13*
X35718750Y-82550000D03*
D12*
X40798750Y-82550000D03*
%TD*%
%TO.C,MX70*%
X144938750Y-120650000D03*
D13*
X150018750Y-120650000D03*
D12*
X155098750Y-120650000D03*
%TD*%
%TO.C,MX46*%
X144938750Y-82550000D03*
D13*
X150018750Y-82550000D03*
D12*
X155098750Y-82550000D03*
%TD*%
%TO.C,MX79*%
X118745000Y-120650000D03*
D13*
X123825000Y-120650000D03*
D12*
X128905000Y-120650000D03*
%TD*%
%TO.C,MX14*%
X111601250Y-44450000D03*
D13*
X116681250Y-44450000D03*
D12*
X121761250Y-44450000D03*
%TD*%
%TO.C,MX83*%
X173513750Y-120650000D03*
D13*
X178593750Y-120650000D03*
D12*
X183673750Y-120650000D03*
%TD*%
%TO.C,MX30*%
X140176250Y-63500000D03*
D13*
X145256250Y-63500000D03*
D12*
X150336250Y-63500000D03*
%TD*%
%TO.C,MX58*%
X135413750Y-101600000D03*
D13*
X140493750Y-101600000D03*
D12*
X145573750Y-101600000D03*
%TD*%
%TO.C,MX84*%
X183038750Y-120650000D03*
D13*
X188118750Y-120650000D03*
D12*
X193198750Y-120650000D03*
%TD*%
%TO.C,MX82*%
X106838750Y-120650000D03*
D13*
X111918750Y-120650000D03*
D12*
X116998750Y-120650000D03*
%TD*%
%TO.C,MX71*%
X161607500Y-120650000D03*
D13*
X166687500Y-120650000D03*
D12*
X171767500Y-120650000D03*
%TD*%
%TO.C,MX27*%
X83026250Y-63500000D03*
D13*
X88106250Y-63500000D03*
D12*
X93186250Y-63500000D03*
%TD*%
%TO.C,MX78*%
X199707500Y-120650000D03*
D13*
X204787500Y-120650000D03*
D12*
X209867500Y-120650000D03*
%TD*%
%TO.C,MX11*%
X54451250Y-44450000D03*
D13*
X59531250Y-44450000D03*
D12*
X64611250Y-44450000D03*
%TD*%
%TO.C,MX52*%
X268763750Y-82550000D03*
D13*
X273843750Y-82550000D03*
D12*
X278923750Y-82550000D03*
%TD*%
%TO.C,MX17*%
X168751250Y-44450000D03*
D13*
X173831250Y-44450000D03*
D12*
X178911250Y-44450000D03*
%TD*%
%TO.C,MX3*%
X87788750Y-25400000D03*
D13*
X92868750Y-25400000D03*
D12*
X97948750Y-25400000D03*
%TD*%
%TO.C,MX10*%
X35401250Y-44450000D03*
D13*
X40481250Y-44450000D03*
D12*
X45561250Y-44450000D03*
%TD*%
%TO.C,MX20*%
X225901250Y-44450000D03*
D13*
X230981250Y-44450000D03*
D12*
X236061250Y-44450000D03*
%TD*%
%TO.C,MX7*%
X244951250Y-25400000D03*
D13*
X250031250Y-25400000D03*
D12*
X255111250Y-25400000D03*
%TD*%
%TO.C,MX45*%
X125888750Y-82550000D03*
D13*
X130968750Y-82550000D03*
D12*
X136048750Y-82550000D03*
%TD*%
%TO.C,MX25*%
X44926250Y-63500000D03*
D13*
X50006250Y-63500000D03*
D12*
X55086250Y-63500000D03*
%TD*%
%TO.C,MX60*%
X173513750Y-101600000D03*
D13*
X178593750Y-101600000D03*
D12*
X183673750Y-101600000D03*
%TD*%
%TO.C,MX8*%
X273526250Y-25400000D03*
D13*
X278606250Y-25400000D03*
D12*
X283686250Y-25400000D03*
%TD*%
%TO.C,MX39*%
X11588750Y-82550000D03*
D13*
X16668750Y-82550000D03*
D12*
X21748750Y-82550000D03*
%TD*%
%TO.C,MX23*%
X283051250Y-44450000D03*
D13*
X288131250Y-44450000D03*
D12*
X293211250Y-44450000D03*
%TD*%
%TO.C,MX59*%
X154463750Y-101600000D03*
D13*
X159543750Y-101600000D03*
D12*
X164623750Y-101600000D03*
%TD*%
%TO.C,MX1*%
X30638750Y-25400000D03*
D13*
X35718750Y-25400000D03*
D12*
X40798750Y-25400000D03*
%TD*%
%TO.C,MX76*%
X225901250Y-120650000D03*
D13*
X230981250Y-120650000D03*
D12*
X236061250Y-120650000D03*
%TD*%
D14*
%TO.C,S7*%
X130968750Y-127635000D03*
D13*
X130968750Y-112395000D03*
D14*
X92868750Y-127635000D03*
D13*
X92868750Y-112395000D03*
%TD*%
D12*
%TO.C,MX32*%
X178276250Y-63500000D03*
D13*
X183356250Y-63500000D03*
D12*
X188436250Y-63500000D03*
%TD*%
D14*
%TO.C,S9*%
X261937500Y-75565000D03*
D13*
X261937500Y-90805000D03*
D14*
X285750000Y-75565000D03*
D13*
X285750000Y-90805000D03*
%TD*%
D12*
%TO.C,MX68*%
X99695000Y-120650000D03*
D13*
X104775000Y-120650000D03*
D12*
X109855000Y-120650000D03*
%TD*%
%TO.C,MX31*%
X159226250Y-63500000D03*
D13*
X164306250Y-63500000D03*
D12*
X169386250Y-63500000D03*
%TD*%
%TO.C,MX51*%
X240188750Y-82550000D03*
D13*
X245268750Y-82550000D03*
D12*
X250348750Y-82550000D03*
%TD*%
%TO.C,MX55*%
X78263750Y-101600000D03*
D13*
X83343750Y-101600000D03*
D12*
X88423750Y-101600000D03*
%TD*%
%TO.C,MX2*%
X59213750Y-25400000D03*
D13*
X64293750Y-25400000D03*
D12*
X69373750Y-25400000D03*
%TD*%
M02*
