<?xml version="1.0" standalone="no"?>
 <!DOCTYPE svg PUBLIC "-//W3C//DTD SVG 1.1//EN" 
 "http://www.w3.org/Graphics/SVG/1.1/DTD/svg11.dtd"> 
<svg
  xmlns:svg="http://www.w3.org/2000/svg"
  xmlns="http://www.w3.org/2000/svg"
  xmlns:xlink="http://www.w3.org/1999/xlink"
  version="1.1"
  width="300.1518mm" height="141.9860mm" viewBox="0.0000 0.0000 300.1518 141.9860">
<title>SVG Image created as HP 2621-F_Silkscreen.svg date 2023/12/31 11:32:37 </title>
  <desc>Image generated by PCBNEW </desc>
<g style="fill:#000000; fill-opacity:1.0000;stroke:#000000; stroke-opacity:1.0000;
stroke-linecap:round; stroke-linejoin:round;"
 transform="translate(0 0) scale(1 1)">
</g>
<g style="fill:#000000; fill-opacity:0.0; 
stroke:#000000; stroke-width:0.0000; stroke-opacity:1; 
stroke-linecap:round; stroke-linejoin:round;">
</g>
<g style="fill:#F2EDA1; fill-opacity:0.0; 
stroke:#F2EDA1; stroke-width:0.0000; stroke-opacity:1; 
stroke-linecap:round; stroke-linejoin:round;">
</g>
<g style="fill:#F2EDA1; fill-opacity:0.0; 
stroke:#F2EDA1; stroke-width:0.6000; stroke-opacity:1; 
stroke-linecap:round; stroke-linejoin:round;">
<text x="263.5850" y="107.0412"
textLength="35.4429" font-size="8.0000" lengthAdjust="spacingAndGlyphs"
text-anchor="middle" opacity="0">HP2612</text>
<g class="stroked-text"><desc>HP2612</desc>
<path d="M247.4421 106.2455
L247.4421 100.2455
" />
<path d="M247.4421 103.1027
L250.8707 103.1027
" />
<path d="M250.8707 106.2455
L250.8707 100.2455
" />
<path d="M253.7279 106.2455
L253.7279 100.2455
" />
<path d="M253.7279 100.2455
L256.0136 100.2455
" />
<path d="M256.0136 100.2455
L256.5850 100.5312
" />
<path d="M256.5850 100.5312
L256.8707 100.8170
" />
<path d="M256.8707 100.8170
L257.1564 101.3884
" />
<path d="M257.1564 101.3884
L257.1564 102.2455
" />
<path d="M257.1564 102.2455
L256.8707 102.8170
" />
<path d="M256.8707 102.8170
L256.5850 103.1027
" />
<path d="M256.5850 103.1027
L256.0136 103.3884
" />
<path d="M256.0136 103.3884
L253.7279 103.3884
" />
<path d="M259.4421 100.8170
L259.7279 100.5312
" />
<path d="M259.7279 100.5312
L260.2993 100.2455
" />
<path d="M260.2993 100.2455
L261.7279 100.2455
" />
<path d="M261.7279 100.2455
L262.2993 100.5312
" />
<path d="M262.2993 100.5312
L262.5850 100.8170
" />
<path d="M262.5850 100.8170
L262.8707 101.3884
" />
<path d="M262.8707 101.3884
L262.8707 101.9598
" />
<path d="M262.8707 101.9598
L262.5850 102.8170
" />
<path d="M262.5850 102.8170
L259.1564 106.2455
" />
<path d="M259.1564 106.2455
L262.8707 106.2455
" />
<path d="M268.0136 100.2455
L266.8707 100.2455
" />
<path d="M266.8707 100.2455
L266.2993 100.5312
" />
<path d="M266.2993 100.5312
L266.0136 100.8170
" />
<path d="M266.0136 100.8170
L265.4421 101.6741
" />
<path d="M265.4421 101.6741
L265.1564 102.8170
" />
<path d="M265.1564 102.8170
L265.1564 105.1027
" />
<path d="M265.1564 105.1027
L265.4421 105.6741
" />
<path d="M265.4421 105.6741
L265.7279 105.9598
" />
<path d="M265.7279 105.9598
L266.2993 106.2455
" />
<path d="M266.2993 106.2455
L267.4421 106.2455
" />
<path d="M267.4421 106.2455
L268.0136 105.9598
" />
<path d="M268.0136 105.9598
L268.2993 105.6741
" />
<path d="M268.2993 105.6741
L268.5850 105.1027
" />
<path d="M268.5850 105.1027
L268.5850 103.6741
" />
<path d="M268.5850 103.6741
L268.2993 103.1027
" />
<path d="M268.2993 103.1027
L268.0136 102.8170
" />
<path d="M268.0136 102.8170
L267.4421 102.5312
" />
<path d="M267.4421 102.5312
L266.2993 102.5312
" />
<path d="M266.2993 102.5312
L265.7279 102.8170
" />
<path d="M265.7279 102.8170
L265.4421 103.1027
" />
<path d="M265.4421 103.1027
L265.1564 103.6741
" />
<path d="M274.2993 106.2455
L270.8707 106.2455
" />
<path d="M272.5850 106.2455
L272.5850 100.2455
" />
<path d="M272.5850 100.2455
L272.0136 101.1027
" />
<path d="M272.0136 101.1027
L271.4421 101.6741
" />
<path d="M271.4421 101.6741
L270.8707 101.9598
" />
<path d="M276.5850 100.8170
L276.8707 100.5312
" />
<path d="M276.8707 100.5312
L277.4421 100.2455
" />
<path d="M277.4421 100.2455
L278.8707 100.2455
" />
<path d="M278.8707 100.2455
L279.4421 100.5312
" />
<path d="M279.4421 100.5312
L279.7279 100.8170
" />
<path d="M279.7279 100.8170
L280.0136 101.3884
" />
<path d="M280.0136 101.3884
L280.0136 101.9598
" />
<path d="M280.0136 101.9598
L279.7279 102.8170
" />
<path d="M279.7279 102.8170
L276.2993 106.2455
" />
<path d="M276.2993 106.2455
L280.0136 106.2455
" />
</g></g>
<g style="fill:#F2EDA1; fill-opacity:0.0; 
stroke:#F2EDA1; stroke-width:0.1200; stroke-opacity:1; 
stroke-linecap:round; stroke-linejoin:round;">
<path d="M137.0350 98.7350
L139.4350 98.7350
" />
<path d="M137.0350 102.8350
L137.0350 98.7350
" />
<path d="M137.0350 106.8350
L137.0350 110.9350
" />
<path d="M137.0350 110.9350
L148.8350 110.9350
" />
<path d="M141.6350 98.7350
L144.2350 98.7350
" />
<path d="M142.6350 110.3350
L143.2350 110.3350
" />
<path d="M142.9350 110.6350
L142.6350 110.3350
" />
<path d="M143.2350 110.3350
L142.9350 110.6350
" />
<path d="M146.4350 98.7350
L148.8350 98.7350
" />
<path d="M148.8350 98.7350
L148.8350 102.8350
" />
<path d="M148.8350 106.8350
L148.8350 110.9350
" />
<circle cx="142.9350" cy="104.8350" r="2.0000" /> 
<path d="M270.3850 79.6850
L272.7850 79.6850
" />
<path d="M270.3850 83.7850
L270.3850 79.6850
" />
<path d="M270.3850 87.7850
L270.3850 91.8850
" />
<path d="M270.3850 91.8850
L282.1850 91.8850
" />
<path d="M274.9850 79.6850
L277.5850 79.6850
" />
<path d="M275.9850 91.2850
L276.5850 91.2850
" />
<path d="M276.2850 91.5850
L275.9850 91.2850
" />
<path d="M276.5850 91.2850
L276.2850 91.5850
" />
<path d="M279.7850 79.6850
L282.1850 79.6850
" />
<path d="M282.1850 79.6850
L282.1850 83.7850
" />
<path d="M282.1850 87.7850
L282.1850 91.8850
" />
<circle cx="276.2850" cy="85.7850" r="2.0000" /> 
<path d="M265.6225 3.4850
L268.0225 3.4850
" />
<path d="M265.6225 7.5850
L265.6225 3.4850
" />
<path d="M265.6225 11.5850
L265.6225 15.6850
" />
<path d="M265.6225 15.6850
L277.4225 15.6850
" />
<path d="M270.2225 3.4850
L272.8225 3.4850
" />
<path d="M271.2225 15.0850
L271.8225 15.0850
" />
<path d="M271.5225 15.3850
L271.2225 15.0850
" />
<path d="M271.8225 15.0850
L271.5225 15.3850
" />
<path d="M275.0225 3.4850
L277.4225 3.4850
" />
<path d="M277.4225 3.4850
L277.4225 7.5850
" />
<path d="M277.4225 11.5850
L277.4225 15.6850
" />
<circle cx="271.5225" cy="9.5850" r="2.0000" /> 
<path d="M22.7350 3.4850
L25.1350 3.4850
" />
<path d="M22.7350 7.5850
L22.7350 3.4850
" />
<path d="M22.7350 11.5850
L22.7350 15.6850
" />
<path d="M22.7350 15.6850
L34.5350 15.6850
" />
<path d="M27.3350 3.4850
L29.9350 3.4850
" />
<path d="M28.3350 15.0850
L28.9350 15.0850
" />
<path d="M28.6350 15.3850
L28.3350 15.0850
" />
<path d="M28.9350 15.0850
L28.6350 15.3850
" />
<path d="M32.1350 3.4850
L34.5350 3.4850
" />
<path d="M34.5350 3.4850
L34.5350 7.5850
" />
<path d="M34.5350 11.5850
L34.5350 15.6850
" />
<circle cx="28.6350" cy="9.5850" r="2.0000" /> 
<g >
</g>
<g >
</g>
<g >
</g>
<g >
</g>
<g >
</g>
<g >
</g>
<g >
</g>
<g >
</g>
<g >
</g>
<g >
</g>
<g >
</g>
<g >
</g>
<g >
</g>
<g >
</g>
<g >
</g>
<g >
</g>
<g >
</g>
<g >
</g>
<g >
</g>
<g >
</g>
<g >
</g>
<g >
</g>
<g >
</g>
<g >
</g>
<g >
</g>
<g >
</g>
<g >
</g>
<g >
</g>
<g >
</g>
<g >
</g>
<g >
</g>
<g >
</g>
<g >
</g>
<g >
</g>
<g >
</g>
<g >
</g>
<g >
</g>
<g >
</g>
<g >
</g>
<g >
</g>
<g >
</g>
<g >
</g>
<g >
</g>
<g >
</g>
<g >
</g>
<g >
</g>
<g >
</g>
<g >
</g>
<g >
</g>
<g >
</g>
<g >
</g>
<g >
</g>
<g >
</g>
<g >
</g>
<g >
</g>
<g >
</g>
<g >
</g>
<g >
</g>
<g >
</g>
<g >
</g>
<g >
</g>
<g >
</g>
<g >
</g>
<g >
</g>
<g >
</g>
<g >
</g>
<g >
</g>
<g >
</g>
<g >
</g>
<g >
</g>
<g >
</g>
<g >
</g>
<g >
</g>
<g >
</g>
<g >
</g>
<g >
</g>
<g >
</g>
<g >
</g>
<g >
</g>
<g >
</g>
<g >
</g>
<g >
</g>
<g >
</g>
<g >
</g>
<g >
</g>
<g >
</g>
<g >
</g>
<g >
</g>
<g >
</g>
<g >
</g>
<g >
</g>
<g >
</g>
<g >
</g>
<g >
</g>
<g >
</g>
<g >
</g>
<g >
</g>
<g >
</g>
<g >
</g>
<g >
</g>
<g >
</g>
<g >
</g>
<g >
</g>
<g >
</g>
<g >
</g>
<g >
</g>
<g >
</g>
<g >
</g>
<g >
</g>
<g >
</g>
<g >
</g>
<g >
</g>
<g >
</g>
<g >
</g>
<g >
</g>
<g >
</g>
<g >
</g>
<g >
</g>
<g >
</g>
<g >
</g>
<g >
</g>
<g >
</g>
<g >
</g>
<g >
</g>
<g >
</g>
<g >
</g>
<g >
</g>
<g >
</g>
<g >
</g>
<g >
</g>
<g >
</g>
<g >
</g>
<g >
</g>
<g >
</g>
<g >
</g>
<g >
</g>
<g >
</g>
<g >
</g>
<g >
</g>
<g >
</g>
<g >
</g>
<g >
</g>
<g >
</g>
<g >
</g>
<g >
</g>
<g >
</g>
<g >
</g>
<g >
</g>
<g >
</g>
<g >
</g>
<g >
</g>
<g >
</g>
<g >
</g>
<g >
</g>
<g >
</g>
<g >
</g>
<g >
</g>
<g >
</g>
<g >
</g>
<g >
</g>
<g >
</g>
<g >
</g>
<g >
</g>
<g >
</g>
<g >
</g>
<g >
</g>
<g >
</g>
<g >
</g>
<g >
</g>
<g >
</g>
<g >
</g>
<g >
</g>
<g >
</g>
<g >
</g>
<g >
</g>
<g >
</g>
<g >
</g>
<g >
</g>
<g >
</g>
<g >
</g>
<g >
</g>
<g >
</g>
<g >
</g>
<g >
</g>
<g >
</g>
<g >
</g>
<g >
</g>
<g >
</g>
</g>
<g style="fill:#000000; fill-opacity:0.0; 
stroke:#000000; stroke-width:0.1200; stroke-opacity:1; 
stroke-linecap:round; stroke-linejoin:round;">
</g>
<g style="fill:#D0D2CD; fill-opacity:0.0; 
stroke:#D0D2CD; stroke-width:0.1200; stroke-opacity:1; 
stroke-linecap:round; stroke-linejoin:round;">
</g>
<g style="fill:#D0D2CD; fill-opacity:0.0; 
stroke:#D0D2CD; stroke-width:0.1000; stroke-opacity:1; 
stroke-linecap:round; stroke-linejoin:round;">
<path d="M171.5100 16.7287
L171.5100 2.4412
" />
<path d="M169.1287 19.1100 A2.3813 2.3813 0.0 0 0 171.5100 16.7287" />
<path d="M300.0975 2.4412
L300.0975 111.9787
" />
<path d="M128.6475 2.4412
L128.6475 16.7287
" />
<path d="M128.6475 2.4412 A2.3813 2.3813 0.0 0 0 126.2662 0.0600" />
<path d="M131.0288 19.1100
L169.1287 19.1100
" />
<path d="M0.0600 111.9787
L0.0600 2.4412
" />
<path d="M297.7163 114.3599 A2.3813 2.3813 0.0 0 0 300.0975 111.9787" />
<path d="M297.7163 114.3600
L2.4412 114.3600
" />
<path d="M0.0600 111.9787 A2.3813 2.3813 0.0 0 0 2.4412 114.3600" />
<path d="M128.6475 16.7288 A2.3813 2.3813 0.0 0 0 131.0288 19.1100" />
<path d="M173.8912 0.0600
L297.7163 0.0600
" />
<path d="M2.4412 0.0600 A2.3813 2.3813 0.0 0 0 0.0600 2.4412" />
<path d="M173.8912 0.0600 A2.3813 2.3813 0.0 0 0 171.5100 2.4413" />
<path d="M2.4412 0.0600
L126.2662 0.0600
" />
<path d="M300.0975 2.4412 A2.3813 2.3813 0.0 0 0 297.7163 0.0600" />
<g >
</g>
<g >
</g>
<g >
</g>
<g >
</g>
<g >
</g>
<g >
</g>
<g >
</g>
<g >
</g>
<g >
</g>
<g >
</g>
<g >
</g>
<g >
</g>
<g >
</g>
<g >
</g>
<g >
</g>
<g >
</g>
<g >
</g>
<g >
</g>
<g >
</g>
<g >
</g>
<g >
</g>
<g >
</g>
<g >
</g>
<g >
</g>
<g >
</g>
<g >
</g>
<g >
</g>
<g >
</g>
<g >
</g>
<g >
</g>
<g >
</g>
<g >
</g>
<g >
</g>
<g >
</g>
<g >
</g>
<g >
</g>
<g >
</g>
<g >
</g>
<g >
</g>
<g >
</g>
<g >
</g>
<g >
</g>
<g >
</g>
<g >
</g>
<g >
</g>
<g >
</g>
<g >
</g>
<g >
</g>
<g >
</g>
<g >
</g>
<g >
</g>
<g >
</g>
<g >
</g>
<g >
</g>
<g >
</g>
<g >
</g>
<g >
</g>
<g >
</g>
<g >
</g>
<g >
</g>
<g >
</g>
<g >
</g>
<g >
</g>
<g >
</g>
<g >
</g>
<g >
</g>
<g >
</g>
<g >
</g>
<g >
</g>
<g >
</g>
<g >
</g>
<g >
</g>
<g >
</g>
<g >
</g>
<g >
</g>
<g >
</g>
<g >
</g>
<g >
</g>
<g >
</g>
<g >
</g>
<g >
</g>
<g >
</g>
<g >
</g>
<g >
</g>
<g >
</g>
<g >
</g>
<g >
</g>
<g >
</g>
<g >
</g>
<g >
</g>
<g >
</g>
<g >
</g>
<g >
</g>
<g >
</g>
<g >
</g>
<g >
</g>
<g >
</g>
<g >
</g>
<g >
</g>
<g >
</g>
<g >
</g>
<g >
</g>
<g >
</g>
<g >
</g>
<g >
</g>
<g >
</g>
<g >
</g>
<g >
</g>
<g >
</g>
<g >
</g>
<g >
</g>
<g >
</g>
<g >
</g>
<g >
</g>
<g >
</g>
<g >
</g>
<g >
</g>
<g >
</g>
<g >
</g>
<g >
</g>
<g >
</g>
<g >
</g>
<g >
</g>
<g >
</g>
<g >
</g>
<g >
</g>
<g >
</g>
<g >
</g>
<g >
</g>
<g >
</g>
<g >
</g>
<g >
</g>
<g >
</g>
<g >
</g>
<g >
</g>
<g >
</g>
<g >
</g>
<g >
</g>
<g >
</g>
<g >
</g>
<g >
</g>
<g >
</g>
<g >
</g>
<g >
</g>
<g >
</g>
<g >
</g>
<g >
</g>
<g >
</g>
<g >
</g>
<g >
</g>
<g >
</g>
<g >
</g>
<g >
</g>
<g >
</g>
<g >
</g>
<g >
</g>
<g >
</g>
<g >
</g>
<g >
</g>
<g >
</g>
<g >
</g>
<g >
</g>
<g >
</g>
<g >
</g>
<g >
</g>
<g >
</g>
<g >
</g>
<g >
</g>
<g >
</g>
<g >
</g>
<g >
</g>
<g >
</g>
<g >
</g>
<g >
</g>
<g >
</g>
<g >
</g>
<g >
</g>
<g >
</g>
<g >
</g>
<g >
</g>
<g >
</g>
<g >
</g>
<g >
</g>
<g >
</g>
<g >
</g>
<g >
</g>
<g >
</g>
<g >
</g>
</g> 
</svg>
